<svg width="27" height="27" viewBox="0 0 27 27" fill="none" xmlns="http://www.w3.org/2000/svg">
<path d="M18.3327 13.5003V14.7086C18.3327 15.67 18.7146 16.5921 19.3944 17.2719C20.0742 17.9517 20.9963 18.3336 21.9577 18.3336C22.9191 18.3336 23.8411 17.9517 24.521 17.2719C25.2008 16.5921 25.5827 15.67 25.5827 14.7086V13.5003C25.5825 10.7731 24.6598 8.12622 22.9646 5.98995C21.2693 3.85368 18.9013 2.35371 16.2455 1.73392C13.5897 1.11413 10.8023 1.41098 8.33657 2.57621C5.87086 3.74144 3.87184 5.7065 2.66455 8.15189C1.45725 10.5973 1.11269 13.3792 1.6869 16.0452C2.2611 18.7112 3.72029 21.1046 5.8272 22.8362C7.93412 24.5678 10.5648 25.5357 13.2916 25.5826C16.0184 25.6295 18.6808 24.7526 20.846 23.0945" stroke="#38957F" stroke-width="2" stroke-linecap="round" stroke-linejoin="round"/>
</svg>
