<svg width="14" height="11" viewBox="0 0 14 11" fill="none" xmlns="http://www.w3.org/2000/svg">
<path d="M12.2507 0.916667C11.6032 0.7125 10.8915 0.625 10.209 0.625C9.07148 0.625 7.84648 0.858333 7.00065 1.5C6.15482 0.858333 4.92982 0.625 3.79232 0.625C2.65482 0.625 1.42982 0.858333 0.583984 1.5V10.0458C0.583984 10.1917 0.729818 10.3375 0.875651 10.3375C0.933984 10.3375 0.963151 10.3083 1.02148 10.3083C1.80898 9.92917 2.94648 9.66667 3.79232 9.66667C4.92982 9.66667 6.15482 9.9 7.00065 10.5417C7.78815 10.0458 9.21732 9.66667 10.209 9.66667C11.1715 9.66667 12.1632 9.84167 12.9798 10.2792C13.0382 10.3083 13.0673 10.3083 13.1257 10.3083C13.2715 10.3083 13.4173 10.1625 13.4173 10.0167V1.5C13.0673 1.2375 12.6882 1.0625 12.2507 0.916667ZM12.2507 8.79167C11.609 8.5875 10.909 8.5 10.209 8.5C9.21732 8.5 7.78815 8.87917 7.00065 9.375V2.66667C7.78815 2.17083 9.21732 1.79167 10.209 1.79167C10.909 1.79167 11.609 1.87917 12.2507 2.08333V8.79167Z" fill="#323232" fill-opacity="0.8"/>
<path d="M10.209 4.125C10.7223 4.125 11.2182 4.1775 11.6673 4.27667V3.39C11.2065 3.3025 10.7107 3.25 10.209 3.25C9.21732 3.25 8.31898 3.41917 7.58398 3.73417V4.7025C8.24315 4.32917 9.15898 4.125 10.209 4.125Z" fill="#323232" fill-opacity="0.8"/>
<path d="M7.58398 5.28574V6.25407C8.24315 5.88074 9.15898 5.67657 10.209 5.67657C10.7223 5.67657 11.2182 5.72907 11.6673 5.82824V4.94157C11.2065 4.85407 10.7107 4.80157 10.209 4.80157C9.21732 4.80157 8.31898 4.97657 7.58398 5.28574Z" fill="#323232" fill-opacity="0.8"/>
<path d="M10.209 6.35913C9.21732 6.35913 8.31898 6.5283 7.58398 6.8433V7.81163C8.24315 7.4383 9.15898 7.23413 10.209 7.23413C10.7223 7.23413 11.2182 7.28663 11.6673 7.3858V6.49913C11.2065 6.4058 10.7107 6.35913 10.209 6.35913Z" fill="#323232" fill-opacity="0.8"/>
</svg>
