<svg height="20.089" viewBox="0 0 21.908 20.089" width="21.908" xmlns="http://www.w3.org/2000/svg"><g fill="#6d6e71"><path d="m231.96 147.944h-13.16a.936.936 0 0 1 -1-.84v-.065a.936.936 0 0 1 1-.84h13.16a.936.936 0 0 1 1 .84v.065a.924.924 0 0 1 -1 .84z" transform="translate(-211.052 -141.724)"/><path d="m159.683 208.944h-15.423a.807.807 0 0 1 -.76-.84v-.065a.807.807 0 0 1 .76-.84h15.423a.807.807 0 0 1 .76.84v.065a.8.8 0 0 1 -.76.84z" transform="translate(-138.535 -199.258)"/><path d="m159.683 269.944h-15.423a.807.807 0 0 1 -.76-.84v-.065a.807.807 0 0 1 .76-.84h15.423a.807.807 0 0 1 .76.84v.065a.8.8 0 0 1 -.76.84z" transform="translate(-138.535 -256.792)"/><path d="m159.683 331.044h-15.423a.807.807 0 0 1 -.76-.84v-.065a.807.807 0 0 1 .76-.84h15.423a.807.807 0 0 1 .76.84v.065a.8.8 0 0 1 -.76.84z" transform="translate(-138.535 -314.421)"/><path d="m159.683 392.044h-15.423a.807.807 0 0 1 -.76-.84v-.065a.807.807 0 0 1 .76-.84h15.423a.807.807 0 0 1 .76.84v.065a.8.8 0 0 1 -.76.84z" transform="translate(-138.535 -371.955)"/><path d="m74.631 30.479 2.622.924a.166.166 0 0 0 .242-.17l-.123-2.687a.351.351 0 0 0 -.05-.159c0-.007-.012-.015-.015-.022l-1.87-2.465-.614.432 1.693 2.225a.2.2 0 0 1 -.046.281l-.146.1a.214.214 0 0 1 -.292-.044l-1.689-2.221-.607.429 1.7 2.243a.174.174 0 0 1 -.042.251l-.18.129a.19.19 0 0 1 -.261-.041l-1.7-2.247-.653.463 1.812 2.38a.406.406 0 0 0 .219.199zm.48-.292 1.827-1.29c.111-.078.292.048.3.214l.042 1.467a.267.267 0 0 0 -.077.026l-.545.384h-.012l-1.413-.466c-.161-.051-.233-.258-.122-.335z" transform="translate(-72.002 -24.954)"/><path d="m57.466 3.081-.219-.281a1.163 1.163 0 0 1 .269-1.663l.844-.599a1.27 1.27 0 0 1 1.728.262l.219.285z" transform="translate(-57.009 -.309)"/></g></svg>