<svg width="28" height="28" viewBox="0 0 28 28" fill="none" xmlns="http://www.w3.org/2000/svg">
<path d="M24.5 3.5V24.5H3.5V3.5H24.5ZM24.5 0.5H3.5C1.835 0.5 0.5 1.85 0.5 3.5V24.5C0.5 26.15 1.835 27.5 3.5 27.5H24.5C26.15 27.5 27.5 26.15 27.5 24.5V3.5C27.5 1.85 26.15 0.5 24.5 0.5ZM14 14C11.525 14 9.5 11.975 9.5 9.5C9.5 7.025 11.525 5 14 5C16.475 5 18.5 7.025 18.5 9.5C18.5 11.975 16.475 14 14 14ZM14 8C13.175 8 12.5 8.675 12.5 9.5C12.5 10.325 13.175 11 14 11C14.825 11 15.5 10.325 15.5 9.5C15.5 8.675 14.825 8 14 8ZM23 23H5V20.705C5 16.955 10.955 15.335 14 15.335C17.045 15.335 23 16.955 23 20.705V23ZM8.465 20H19.535C18.5 19.16 15.965 18.32 14 18.32C12.035 18.32 9.485 19.16 8.465 20Z" fill="#38957F"/>
</svg>
