<svg fill="none" height="16" viewBox="0 0 16 16" width="16" xmlns="http://www.w3.org/2000/svg"><path clip-rule="evenodd" d="m11.229 4.3648c-.826-.7878-1.9283-1.21697-3.06885-1.19934-2.08708 0-3.85962 1.40804-4.49163 3.30404-.33511.99357-.33511 2.06948-.00001 3.06305h.00294c.63494 1.89305 2.40455 3.30115 4.49164 3.30115 1.07735 0 2.00221-.2756 2.71911-.7623v-.002c.8436-.5585 1.4198-1.4374 1.5991-2.43101h-4.32114v-3.08065h7.54584c.0941.535.1382 1.08176.1382 1.62557 0 2.43319-.8696 4.49039-2.3827 5.88379l.0016.0012c-1.3257 1.2228-3.1453 1.9313-5.30295 1.9313-3.0248 0-5.79093-1.705-7.149-4.4064-1.134661-2.26053-1.134658-4.92377.00001-7.18428 1.35807-2.7044 4.12419-4.40935745 7.14899-4.40935745 1.98715-.02351645 3.90665.72313045 5.35295 2.08120745z" fill="#fff" fill-rule="evenodd"/></svg>