<svg height="80" viewBox="0 0 80 80" width="80" xmlns="http://www.w3.org/2000/svg"><path d="m29.3 63.471-4.048 4.02a9.059 9.059 0 0 1 -12.723 0 8.8 8.8 0 0 1 0-12.515l14.9-14.783c3.088-3.062 8.9-7.571 13.131-3.372a4.956 4.956 0 1 0 6.985-7.034c-7.2-7.142-17.834-5.822-27.1 3.37l-14.902 14.784a18.708 18.708 0 0 0 0 26.585 19 19 0 0 0 26.691 0l4.052-4.026a4.957 4.957 0 0 0 -6.986-7.029zm45.154-57.427c-7.73-7.67-18.538-8.086-25.694-.986l-5.046 5.009a4.957 4.957 0 1 0 6.986 7.033l5.044-5.006c3.707-3.681 8.561-2.155 11.727.986a8.8 8.8 0 0 1 0 12.517l-15.9 15.77c-7.264 7.213-10.671 3.828-12.129 2.384a4.956 4.956 0 1 0 -6.985 7.034 15.633 15.633 0 0 0 11.143 4.954c4.889 0 10.053-2.462 14.963-7.337l15.9-15.77a18.708 18.708 0 0 0 0-26.588z" fill="#1bae8a"/></svg>