<svg height="28.928" viewBox="0 0 23.656 28.928" width="23.656" xmlns="http://www.w3.org/2000/svg"><g fill="#1bae8a"><path d="m3.436 291.684a2.982 2.982 0 0 0 .323 1.333 8.354 8.354 0 0 1 4.811-.008 2.983 2.983 0 0 0 .32-1.325 2.824 2.824 0 0 0 -2.726-2.889 2.826 2.826 0 0 0 -2.728 2.89z" transform="translate(5.651 -288.795)"/><path d="m10.833 290.121a8.443 8.443 0 0 0 -8.189 8.672 25.288 25.288 0 0 1 -1.116 8.695h18.616a25.288 25.288 0 0 1 -1.116-8.695 8.447 8.447 0 0 0 -8.195-8.672z" transform="translate(.996 -285.29)"/><path d="m3.527 295.148a2.9 2.9 0 0 0 0 5.785h18.2a2.9 2.9 0 0 0 0-5.785z" transform="translate(-.794 -272.005)"/></g></svg>