<svg fill="none" height="453" viewBox="0 0 375 453" width="375" xmlns="http://www.w3.org/2000/svg"><path d="m-19 0h412v453h-412z" fill="#fff"/><g fill="#38957f"><path d="m140.204 345.583c78.006 14.798 118.259-14.824 118.463-15.704 2.184-1.414 4.388-2.811 6.455-4.414 3.289-2.552 6.494-5.238 9.692-7.93 1.575-1.326 3.115-2.721 4.555-4.22 1.035-1.078 1.799-2.467 2.822-3.561 2.347-2.513 4.872-4.831 7.157-7.408 4.103-4.627 8.143-9.327 12.097-14.108 3.195-3.863 6.273-7.847 9.314-11.858 2.114-2.788 4.08-5.711 6.107-8.578 1.687-2.387 3.517-4.673 5.008-7.201 1.763-2.988 3.305-6.144 4.805-9.306 1.544-3.255 3.054-6.544 4.337-9.93 1.537-4.052 3.594-7.906 3.758-12.513.133-3.737.721-7.454.918-11.192.231-4.394-.245-8.755-.958-13.081-.615-3.735-1.496-7.407-3.167-10.731-1.762-3.504-3.675-6.933-5.723-10.245-2.459-3.976-5.396-7.485-8.975-10.348-3.341-2.672-6.981-4.678-10.777-6.367-3.55-1.578-7.162-2.983-10.726-4.526-2.044-.885-4.032-1.926-6.069-2.835-3.302-1.473-6.656-2.807-9.926-4.358-5.099-2.418-9.615-5.75-13.336-10.376-2.423-3.013-5.056-5.823-7.624-8.693-2.527-2.823-5.115-5.581-7.627-8.42-1.055-1.192-1.897-2.618-2.991-3.759-1.617-1.686-3.352-3.24-5.074-4.8-1.704-1.542-3.31-3.305-5.212-4.471-4.207-2.579-8.383-5.255-13.078-6.765-4.077-1.311-8.048-2.902-12.294-3.674-4.385-.797-8.739-1.535-13.186-1.529-5.702.007-11.405-.016-17.107.014-1.402.007-2.822.041-4.202.282-3.717.651-7.426 1.374-11.122 2.155-2.951.624-5.883 1.356-8.816 2.077l-.103.026c-2.137.526-4.278 1.052-6.39 1.686-3.68 1.104-7.345 2.269-11.005 3.454-4.998 1.617-9.437 4.784-14.506 6.265-2.699.789-5.298 2.036-7.888 3.218-4.445 2.03-8.862 4.138-13.263 6.28-2.047.996-3.967 2.342-6.0571 3.193-4.213 1.714-8.1445 4.004-11.8669 6.708-3.0527 2.217-5.9051 4.766-8.9296 7.033-4.2266 3.169-8.2433 6.589-11.4464 11.015-2.2937 3.17-4.7043 6.279-6.6565 9.696-2.7582 4.828-5.2844 9.834-7.6435 14.913-2.2054 4.749-4.11 9.67-6.0576 14.558-1.277 3.205-2.5488 6.431-3.5437 9.748-1.1587 3.864-1.9173 7.871-3.0291 11.753-.889 3.105-1.2165 6.249-1.1846 9.465.0086.866.2153 1.729.2254 2.595.0981 8.442.152 16.885.2759 25.326.0222 1.507.266 3.016.4815 4.511.3769 2.615.793 5.225 1.227 7.829.3622 2.174.6118 4.392 1.1936 6.495 1.6712 6.045 3.8209 11.89 6.6809 17.385 1.8833 3.618 3.8378 7.193 5.8412 10.732.6237 1.102 1.5205 2.015 2.2768 3.029 1.5308 2.051 2.7207 3.823 4.5966 6.148 22.1659 27.474 53.5501 30.432 79.2731 35.312z"/><path d="m30.856 268.677c-1.5882-4.11-2.8339-8.185-3.4756-12.498-.5098-3.426-1.3458-6.792-1.9146-10.21-.3056-1.836-.2996-3.732-.5294-5.587-.395-3.19-.8636-6.369-1.3028-9.552-.2165-1.57-.5009-3.132-.6428-4.71-.5162-5.736-.9235-11.48-.7516-17.254.0906-3.045-.0135-6.112.2927-9.13.3878-3.821 1.1321-7.597 1.6684-11.401.3782-2.684.58-5.4 1.0135-8.071.7342-4.526 1.9921-8.878 4.1155-12.868.9331-1.754 1.9918-3.428 3.0059-5.128.6852-1.149 2.8322-2.155 3.7564-1.938 1.2691.298 1.7279 1.325 1.6143 2.461-.2196 2.197-.5504 4.405-1.08 6.535-1.0948 4.403-2.4881 8.72-3.4932 13.146-.7329 3.227-1.0559 6.568-1.5344 9.863-.5904 4.066-1.1669 8.134-1.7172 12.207-.146 1.08-.2073 2.177-.2492 3.269-.1024 2.668-.1607 5.338-.2563 8.007-.0634 1.767-.2871 3.54-.2175 5.299.1688 4.267.4363 8.53.7243 12.79.1879 2.78.431 5.557.7434 8.323.2493 2.207.6431 4.394.968 6.59.3314 2.241.5814 4.5 1.0077 6.718.3864 2.011.9091 3.996 1.4649 5.96 1.4461 5.111 2.9114 10.217 4.4309 15.303 1.1375 3.807 2.3802 7.576 3.5581 11.368.5184 1.67.194 2.645-.9752 2.651-.9314.004-1.6847-.647-2.0964-1.622-.3511-.831-.6436-1.692-.9923-2.525-1.6343-3.901-3.313-7.781-4.906-11.704-.8186-2.015-1.491-4.102-2.2295-6.292z"/><path d="m315.98 128.609c-3.311.902-6.478 1.909-9.694 2.671-2.289.543-4.685 1.237-6.957.996-2.815-.298-5.801.642-8.452-.982-1.745-1.069-3.451-2.246-5.061-3.544-3.007-2.424-4.986-5.775-6.61-9.399-1.749-3.904-2.853-8.044-3.577-12.303-.275-1.616-.555-3.289-.462-4.91.141-2.4341.576-4.8515.944-7.2654.457-2.9965 1.42-5.8148 2.569-8.5699 1.579-3.787 4.41-6.2804 7.369-8.6037 3.464-2.7196 7.249-4.8506 11.321-6.1768 2.405-.7833 4.956-1.0653 7.458-1.4399 4.838-.7243 9.523.6145 14.114 1.8592 6.578 1.7839 10.348 7.0889 12.245 13.9497 1.04 3.7575 1.558 7.6922 2.259 11.5584.387 2.1376.832 4.2884.943 6.4524.091 1.759-.157 3.571-.466 5.315-.602 3.412-1.923 6.525-3.661 9.42-1.418 2.362-3.45 4.051-5.395 5.822-2.599 2.367-5.666 3.796-8.887 5.15z"/><path d="m328.06 154.667c-.787-1.136-1.645-2.129-2.185-3.3-.305-.662-.298-1.702-.057-2.42.426-1.272 1.644-1.199 2.528-.917.924.295 1.829.95 2.55 1.678 3.833 3.879 7.208 8.233 10.068 12.999 2.419 4.031 4.31 8.417 4.982 13.27.439 3.169.826 6.363.974 9.56.275 5.962.489 11.934.485 17.901-.004 5.068-.782 10.037-2.664 14.732-.621 1.547-2.7 3.543-4.441 3.432-1.368-.087-2.702-1.181-2.666-2.674.052-2.171.286-4.345.556-6.5.313-2.497.78-4.97 1.121-7.463.293-2.135.674-4.28.71-6.427.06-3.567.068-7.161-.264-10.703-.312-3.33-1.014-6.627-1.687-9.903-.797-3.88-1.628-7.785-3.445-11.275-2.093-4.022-4.33-7.952-6.565-11.99z"/><path d="m53.3338 140.322c-1.0051 1.254-1.9906 2.404-2.884 3.634-2.2094 3.043-4.3702 6.128-6.5649 9.184-.6415.893-1.5234 1.456-2.5.917-.9691-.534-.836-1.713-.7829-2.722.1228-2.335 1.2047-4.281 2.3835-6.074 2.474-3.761 5.0781-7.433 8.1607-10.629 3.2223-3.341 6.612-6.456 10.3204-9.159 1.9962-1.454 3.9164-2.998 6.3277-3.461.5328-.103 1.484-.058 1.6005.232.2306.573.2458 1.548-.0673 2.027-.6814 1.041-1.5852 1.925-2.4696 2.785-1.5442 1.501-3.1772 2.891-4.7103 4.405-2.9406 2.903-5.8373 5.859-8.8138 8.861z"/></g><g fill="#000"><path d="m314.499 319.652c-1.064 3.753-2.306 7.385-3.013 11.139-1.085 5.754-3.364 11.078-4.612 16.757-.106.485-.3.967-.3 1.45 0 .194.402.524.644.552.411.047.839-.139 1.262-.153 3.127-.101 6.254-.229 9.381-.246.904-.004 1.82.287 2.707.542.176.05.389.587.338.841-.292 1.46-.649 2.905-1.006 4.349-.058.231-.203.591-.349.618-1.556.287-1.355 1.786-1.558 2.87-.572 3.056-.988 6.146-1.493 9.218-.381 2.315-.78 4.627-1.221 6.929-.246 1.284-1.247 1.573-2.213 1.582-4.903.047-9.807.092-14.707-.024-1.354-.032-2.11-.899-2.295-2.186-.515-3.582-1.113-7.15-1.684-10.722-.319-1.992-.632-3.985-.98-5.971-.127-.726-.447-1.281-1.272-1.127-1.288.239-1.952-.375-2.199-1.789-.198-1.131-.643-2.207-.883-3.332-.262-1.231.211-1.821 1.353-1.824 2.228-.006 4.457-.036 6.685.009 1.953.039 3.905.137 5.854.274.645.045.786-.227.678-.818-.098-.531-.134-1.107-.355-1.573-1.478-3.117-2.942-6.245-4.531-9.293-.651-1.248-1.545-2.361-2.427-3.438-2.085-2.544-4.21-5.05-6.359-7.529-.793-.914-1.708-1.701-2.551-2.565-.654-.671-1.343-.432-1.988-.071-3.747 2.099-7.413 1.579-10.836-.725-1.23-.828-2.207-2.291-3.002-3.671-1.203-2.089-2.043-4.43-3.229-6.533-1.154-2.044-2.345-4.148-3.878-5.832-3.564-3.918-7.954-6.47-12.795-7.896-2.155-.636-4.424-.099-6.601.555-1.994.6-3.996.508-6.055.23-3.875-.525-7.217-2.425-10.414-4.63-2.392-1.65-3.727-4.1-4.065-7.372-.263-2.548.241-4.713 1.576-6.571 1.321-1.838 2.865-3.522 5.068-4.208 1.877-.586 3.715-1.321 5.577-1.966.328-.113.69-.149 1.036-.15 2.552-.012 5.116-.172 7.655.03 4.271.341 8.565.681 12.42 3.148 1.19.761 2.536 1.222 3.782 1.886.278.148.433.572.645.869-.341.005-.723.124-1.018-.001-1.921-.815-3.904-1.515-5.71-2.576-2.224-1.306-4.628-1.449-7.004-1.719-2.38-.271-4.791-.215-7.188-.308-3.726-.144-7.233.768-10.628 2.444-2.395 1.183-3.993 3.062-4.733 5.789-.831 3.063.221 7.016 2.795 9.187 2.59 2.184 5.589 3.332 8.567 4.378 2.608.915 5.455 1.052 8.187.116 3.361-1.153 6.527-.397 9.702.935 3.373 1.416 6.538 3.239 9.174 5.925 1.498 1.527 2.763 3.4 3.872 5.301 1.813 3.108 3.414 6.366 5.104 9.562 1.286 2.431 3.531 3.007 5.76 3.7 2.002.623 3.782-.15 5.567-.86.533-.212 1.103-.765 1.342-1.324.524-1.224 1.081-2.525 1.204-3.843.253-2.724.072-5.473-.557-8.141-.462-1.96-.847-3.991-1.625-5.803-1.647-3.836-3.54-7.515-6.749-10.159-1.187-.978-2.14-2.3-3.201-3.466-1.719-1.89-3.454-3.763-5.139-5.689-.256-.292-.279-.831-.409-1.256.362.146.742.256 1.081.449.206.118.348.368.523.554 2.687 2.867 5.209 5.959 8.108 8.54 3.246 2.89 5.138 6.745 6.966 10.619 1.002 2.122 1.317 4.673 1.746 7.073.331 1.85.519 3.771.47 5.65-.041 1.572-.481 3.139-.815 4.689-.178.824-.162 1.457.446 2.111 2.688 2.891 5.351 5.813 7.98 8.77.873.984 1.575 2.15 2.426 3.161 2.002 2.378 3.219 5.249 4.358 8.177.073.189.126.41.25.549.173.193.405.323.611.48.037-.251.142-.516.1-.75-.898-5.071-1.753-10.153-3.385-15.028-.544-1.626-.971-3.299-1.488-4.936-.228-.721-.751-1.223-1.437-.901-1.331.626-2.492.037-3.658-.454-2.325-.979-3.746-2.915-4.477-5.474-.109-.383.093-.873.151-1.314.23.315.529.596.679.952 1.317 3.133 3.465 5.47 6.969 5.206.659-.05.97-.256.74-1.041-1.243-4.238-2.417-8.503-4.3-12.476-1.544-3.26-3.077-6.528-4.611-9.795-.102-.218-.259-.476-.227-.686.072-.478.245-.939.377-1.406.273.364.622.688.808 1.1 1.601 3.546 3.017 7.206 4.801 10.634 1.594 3.063 2.446 6.381 3.47 9.654.245.783.384 1.606.624 2.391.067.217.321.366.49.546.137-.156.301-.291.407-.47 1.623-2.742 1.887-5.684 1.449-8.902-.54-3.974-1.975-7.536-3.418-11.154-1.357-3.405-2.936-6.655-4.917-9.646-1.231-1.859-2.414-3.901-4.568-4.663-2.663-.941-5.195-.622-7.4 1.391-1.776 1.623-1.36 2.748-.109 4.483.425.589.977 1.066 1.444 1.623.141.169.19.433.281.653-.248.053-.595.248-.729.136-1.368-1.147-3.154-2.068-3.424-4.109-.278-2.101.982-3.686 2.569-4.58 2.126-1.198 4.377-1.688 6.87-1.036 3.044.797 4.699 3.326 6.247 5.774 3.233 5.108 5.388 10.838 7.434 16.646 1.116 3.171 1.292 6.312 1.047 9.497-.122 1.593-.923 3.287-1.829 4.589-.719 1.032-.805 1.792-.483 2.895 1.069 3.66 2.114 7.328 3.107 11.013.218.809.155 1.707.28 2.553.037.246.281.456.43.682.094-.234.266-.467.27-.703.025-1.425-.05-2.855.029-4.275.091-1.624.27-3.246.501-4.853.047-.323.498-.576.762-.861.222.421.647.854.628 1.261-.061 1.313-.326 2.613-.438 3.925-.127 1.473-.211 2.953-.244 4.432-.041 1.797.019 3.595-.02 5.392-.026 1.167-.155 2.332-.231 3.498-.026.394-.042.789-.039 1.184.003.297.042.594.065.891.234-.267.605-.496.677-.808.262-1.138.327-2.339.645-3.455.74-2.596 1.586-5.156 2.386-7.731.291-.937.673-1.858.832-2.822.16-.971.147-1.887-.664-2.755-1.167-1.249-2.159-2.716-3.098-4.189-.367-.575-.455-1.407-.552-2.141-.754-5.74-.469-11.519-.474-17.285-.001-1.084.34-2.164.444-3.255.043-.445.02-1.052-.217-1.349-2.076-2.601-3.196-5.715-4.204-8.924-.99-3.152-2.262-6.206-3.123-9.396-.969-3.592-1.656-7.279-2.392-10.942-.551-2.748-.99-5.523-1.464-8.288-.052-.302.003-.623-.009-.934-.16-4.159-.22-8.326-.51-12.474-.38-5.427.187-10.708 1.694-15.862.894-3.058 1.75-6.166 3.011-9.047 1.221-2.787 2.92-5.413 5.783-6.449 1.142-.413 2.496-.292 3.735-.174 2.201.209 4.27.896 5.671 2.981 1.249 1.86 2.163 3.841 2.559 6.199.363 2.168 1.381 4.195 1.849 6.353.629 2.904 1.019 5.871 1.491 8.815.5 3.118.914 6.253 1.477 9.356.662 3.647 1.462 7.264 2.153 10.906.112.586.183.803.598.291.918-1.132 2.074-1.609 3.409-1.955 1.175-.304 2.194-1.29 3.362-1.687 1.594-.541 3.261-.832 4.905-1.181.725-.154 1.47-.2 2.207-.277 2.678-.277 4.984.751 7.098 2.452 1.803 1.451 3.688 2.794 5.394 4.371 2.749 2.541 4.176 6.06 5.674 9.559.952 2.223 1.546 4.502 1.596 6.87.047 2.201-1.168 4.066-2.08 5.977-.69 1.446-1.517 2.67-2.918 3.398-1.963 1.02-4.369.587-5.929-.984-1.775-1.786-3.087-3.941-4.189-6.252-.622-1.303-1.265-2.523-2.483-3.27-.184-.113-.227-.505-.335-.767.235-.079.483-.256.704-.222 1.415.217 2.017 1.512 2.684 2.637 1.031 1.742 1.8 3.698 2.968 5.311 2.026 2.798 4.367 3.941 7.134 1.521 1.098-.961 1.654-2.752 2.294-4.249 1.76-4.114.345-7.771-1.514-11.325-.811-1.55-1.558-3.157-2.51-4.597-1.793-2.709-4.206-4.635-6.745-6.488-2.766-2.018-5.684-2.608-8.855-2.331-2.563.224-5.056.752-7.242 2.391-.276.207-.589.403-.91.48-3.263.779-4.937 3.724-6.962 6.174-1.105 1.337-2.204 2.703-3.139 4.184-1.54 2.438-3.217 4.839-4.345 7.507-2.039 4.82-3.92 9.759-4.892 15.002-.585 3.161-.824 6.398-1.258 9.595-.18 1.327-.486 2.633-.687 3.957-.079.518-.057 1.063-.026 1.592.057.96.204 1.916.226 2.876.038 1.707-.179 3.449.057 5.116.309 2.184.073 4.558 1.243 6.496.636 1.055 1.583 1.896 2.44 2.774.478.489.736.532.93-.427.587-2.917 1.364-5.787 2.051-8.68 1.174-4.946 2.298-9.907 3.525-14.837.323-1.298.94-2.509 1.435-3.753 2.643-6.637 5.255-13.29 7.95-19.901 1.104-2.708 2.397-5.324 3.589-7.989.314-.701.496-1.491.893-2.122.19-.301.742-.326 1.13-.477.025.368.182.808.053 1.091-1.109 2.438-2.377 4.795-3.393 7.278-1.86 4.54-3.558 9.16-5.371 13.724-.854 2.152-1.783 4.27-2.739 6.37-1.818 3.991-3.108 8.156-3.845 12.558-.388 2.319-1.094 4.573-1.64 6.861-.063.261-.024.55-.092.893zm-19.146-58.341c.486 4.01.75 8.072 1.518 12.015.881 4.53 2.014 9.03 3.398 13.406 1.46 4.617 3.342 9.073 5.05 13.594.088.231.279.414.423.62.103-.265.246-.52.302-.796.566-2.773.954-5.605 1.714-8.31.883-3.14 2.135-6.151 3.144-9.251 1.413-4.338 3.847-7.979 6.459-11.476 1.245-1.666 2.747-3.103 4.162-4.611.543-.578.805-1.12.397-1.937-.194-.388-.218-.879-.309-1.326-.65-3.178-1.332-6.349-1.934-9.538-.389-2.064-.679-4.151-.979-6.235-.271-1.887-.375-3.814-.765-5.669-.979-4.661-2.045-9.301-3.144-13.929-.569-2.394-1.594-4.634-3.553-5.921-1.118-.734-2.607-.8-3.937-1.124-.603-.146-1.289-.416-1.831-.239-3.132 1.022-5.119 3.576-6.417 6.653-1.129 2.678-1.89 5.557-2.682 8.392-.933 3.337-1.582 6.736-1.516 10.273.065 3.472-.035 6.948.036 10.42.032 1.577.302 3.148.464 4.989zm20.057 100.376c-3.481 0-6.963.015-10.445-.022-.369-.004-.735-.306-1.103-.469.382-.193.762-.548 1.146-.553 3.279-.044 6.558-.026 9.837-.024.28 0 .672-.107.82.052 1.116 1.191.948-.433 1.034-.689.29-.853.302-1.815.552-2.69.341-1.191.101-1.542-1.092-1.519-4.183.084-8.367.005-12.551.045-2.072.02-4.143.177-6.215.25-.849.031-1.704-.044-2.548.036-.25.023-.697.448-.673.625.269 1.954.603 3.897.941 5.839.558 3.216 1.074 6.442 1.733 9.633.204.989-.064 2.569 1.544 2.576 4.939.022 9.878.025 14.817-.025.372-.004.969-.404 1.068-.755.35-1.233.549-2.52.766-3.795.451-2.647.88-5.298 1.31-7.95.043-.267.032-.544.046-.817-.248.084-.496.168-.987.252zm-11.669-6.95c4.696 0 9.393-.033 14.089.027.963.012 1.223-.504 1.348-1.34.087-.585.064-1.218.264-1.75.468-1.249-.192-1.243-.98-1.218-3.043.098-6.087.217-9.131.254-1.22.015-2.443-.232-3.664-.231-1.262.002-2.527.269-3.786.227-3.619-.119-7.236-.311-10.851-.53-.921-.056-1.029.337-.786 1.152.258.864.56 1.722.713 2.609.14.822.527 1.119 1.224 1.066 1.1-.084 2.199-.239 3.3-.254 2.672-.038 5.345-.012 8.26-.012z"/><path d="m321.55 325.801c1.357-1.66 2.82-3.126 3.913-4.872 1.872-2.99 2.696-6.52 3.67-9.944.686-2.413 1.308-4.855 1.827-7.318.68-3.224 1.111-6.516 1.87-9.716.633-2.666 1.556-5.253 2.41-7.851.329-1.004.769-1.977 1.271-2.888.142-.258.683-.25 1.041-.363-.045.304-.023.645-.145.907-1.775 3.833-2.815 7.924-3.655 12.105-1.238 6.168-2.405 12.348-4.315 18.342-1.328 4.166-3.091 7.847-5.875 11.131-2.837 3.348-6.362 5.04-10.052 6.602-.241.102-.594-.116-.895-.186.192-.268.334-.652.585-.785 1.586-.839 3.243-1.528 4.783-2.454 1.237-.744 2.342-1.753 3.567-2.71z"/><path d="m280.583 313.772c-2.779-3.59-5.403-7.208-8.244-10.608-2.388-2.857-5.46-4.792-8.493-6.734-1.471-.943-2.917-1.934-4.359-2.929-.267-.184-.501-.466-.679-.755-.116-.188-.103-.472-.148-.713.219-.013.484-.12.65-.023.799.468 1.581.973 2.351 1.497 2.225 1.512 4.465 2.998 6.651 4.576 1.255.908 2.512 1.862 3.603 2.989 4.367 4.515 8.273 9.475 11.507 15.041.768 1.321 1.419 2.73 2.047 4.139.163.366.033.888.037 1.339-.334-.278-.773-.482-.983-.845-1.322-2.283-2.592-4.601-3.94-6.974z"/><path d="m350.236 282.897c-.261-.392-.42-1.251-.732-.13-.385 1.382-.752 2.771-1.165 4.143-.083.275-.336.489-.51.732-.15-.27-.477-.599-.421-.801.467-1.694 1.011-3.363 1.513-5.047.098-.331.251-.765.139-1.03-1.262-2.986-2.531-5.972-3.882-8.911-.993-2.163-2.673-3.65-4.4-5.087-.453-.377-1.05-1.466-.977-1.544.795-.849 1.217.242 1.686.617 3.083 2.464 5.166 5.784 6.639 9.616.263.683.646 1.198 1.553 1.291 1.244.127 2.296.953 2.848 2.285.112.268-.024.661-.045.996-.201-.134-.419-.243-.598-.406-.576-.523-1.117-1.096-1.717-1.582-.203-.165-.542-.127-.818-.181.041.33.019.689.132.986.955 2.502 1.948 4.987 2.888 7.495.108.287-.033.687-.058 1.035-.3-.171-.78-.266-.869-.525-.439-1.271-.773-2.586-1.206-3.952z"/><path d="m254.205 292.387c-.47.151-.962.441-1.275.288-2.607-1.269-5.356-1.676-8.164-1.831-2.763-.152-5.525-.332-8.285-.55-.402-.031-.786-.339-1.178-.519.402-.266.8-.752 1.208-.762 3.856-.098 7.691.141 11.481 1.024 1.422.332 2.897.431 4.291.86.725.223 1.326.933 1.922 1.49z"/><path d="m315.715 327.405c-.142.066-.225.053-.303.069-.338.069-.676.146-1.014.221.145-.398.188-.934.452-1.17 1.59-1.416 3.184-2.838 4.869-4.108 1.297-.978 2.714-1.774 4.117-2.565.361-.204.872-.086 1.314-.117-.266.372-.468.853-.809 1.095-1.65 1.17-3.377 2.211-4.999 3.423-1.248.932-2.382 2.05-3.627 3.152z"/><path d="m325.075 312.569c-2.655 1.672-5.247 3.281-7.848 4.874-.222.136-.501.16-.754.237.011-.332-.102-.809.054-.97.616-.633 1.252-1.31 1.997-1.711 2.688-1.45 5.414-2.817 8.154-4.149.325-.158.817.095 1.232.158-.267.309-.484.75-.812.9-.621.286-1.305.405-2.023.661z"/><path d="m258.642 299.403c-.857-.777-.385-1.117.301-1.042 1.727.186 3.483.337 5.151.822 1.725.501 3.372 1.344 5.022 2.119.349.164.562.68.838 1.034-.386.026-.808.178-1.152.059-2.322-.809-4.611-1.734-6.945-2.495-.989-.323-2.06-.341-3.215-.497z"/><path d="m328.477 301.608c-2.963 1.922-5.862 3.784-8.775 5.618-.249.157-.593.132-.893.192.036-.304.012-.639.125-.903.114-.269.325-.543.559-.685 2.698-1.638 5.406-3.258 8.122-4.861.257-.152.585-.196.884-.216.212-.014.431.098.647.154-.203.212-.406.423-.669.701z"/><path d="m308.422 306.688c-.261-.287-.592-.482-.63-.732-.06-.382.082-.802.139-1.206.241.197.535.349.717.599 1.498 2.064 2.97 4.153 4.463 6.222.645.893.821 1.908.709 3.002-.019.187-.189.355-.289.531-.143-.11-.387-.195-.413-.332-.587-3.001-2.726-4.911-4.207-7.28-.15-.24-.286-.491-.489-.804z"/><path d="m298.757 307.69c0 1.995.02 3.856-.019 5.716-.007.326-.264.645-.405.967-.183-.276-.505-.54-.526-.83-.123-1.73-.207-3.465-.238-5.2-.013-.716.149-1.435.211-2.155.03-.349-.084-.758.044-1.043.196-.436.546-.788.831-1.176.115.435.326.871.324 1.305-.005.761-.141 1.521-.222 2.416z"/><path d="m320.09 285.838c.304 1.871.551 3.675.787 5.48.028.219.078.496-.013.657-.155.272-.413.474-.628.705-.109-.306-.261-.603-.321-.921-.339-1.809-.58-3.645-1.013-5.425-.198-.813-.764-1.516-1.155-2.275-.125-.243-.225-.502-.337-.754.358-.012.896-.194 1.041-.007.592.763 1.063 1.639 1.639 2.54z"/><path d="m310.366 321.123c.29.675.611 1.265.717 1.898.075.45-.142.958-.228 1.44-.229-.294-.535-.55-.675-.889-.99-2.398-1.961-4.806-2.896-7.231-.116-.302.014-.72.03-1.084.308.198.764.315.9.609.624 1.358 1.162 2.763 1.724 4.155.137.338.246.69.428 1.102z"/><path d="m315.228 306.287c-.344-.916-.666-1.889-.904-2.885-.439-1.838-1.239-3.423-2.486-4.75-.184-.195-.181-.603-.264-.912.334.05.765-.03.986.17 2.014 1.823 2.75 4.383 3.184 7.069.06.372-.293.825-.516 1.308z"/><path d="m274.992 294.124c.312.299.764.653.782 1.032.1 2.169.142 4.346.081 6.517-.009.324-.67.626-1.029.938-.046-.434-.128-.867-.132-1.301-.012-1.746-.02-3.493.013-5.238.013-.628.146-1.254.285-1.948z"/><path d="m275.903 311.7c1.123.113 2.141.201 2.843 1.142.135.181.134.484.196.73-.224.02-.457.093-.672.052-1.432-.271-2.855-.621-4.295-.827-.554-.08-1.144.21-1.718.212-.243 0-.487-.307-.73-.474.183-.189.336-.455.553-.555 1.199-.554 2.426-.862 3.823-.28z"/><path d="m281.738 306.087c-.405 1.323-.801 2.516-1.224 3.698-.073.204-.259.36-.392.539-.11-.172-.313-.344-.312-.516.001-.706-.089-1.476.134-2.104.584-1.647.965-3.297.838-5.078-.019-.262.18-.544.279-.816.225.273.626.531.646.821.077 1.102.031 2.214.031 3.456z"/><path d="m326.168 293.99c-.929.665-1.793 1.271-2.67 1.854-.142.094-.339.088-.511.128.007-.215-.068-.523.033-.63.623-.655 1.221-1.38 1.949-1.86 1.032-.68 2.06-1.557 3.392-1.277.284.06.525.366.785.558-.246.164-.475.386-.742.481-.716.255-1.449.456-2.236.746z"/><path d="m290.977 312.769c1.315.688 2.521 1.353 3.694 2.081.333.207.593.58.833.923.068.096-.017.38-.106.522-.036.059-.281.005-.408-.056-1.262-.615-2.529-1.219-3.77-1.882-.342-.182-.696-.495-.872-.851-.216-.438-.252-.985.629-.737z"/><path d="m295.111 301.007c.081 1.29.174 2.446.233 3.604.011.22-.111.449-.171.673-.241-.108-.607-.145-.697-.338-.217-.468-.432-1.011-.421-1.517.029-1.284.149-2.57.313-3.842.034-.261.417-.467.639-.698.116.301.315.598.325.903.012.357-.14.721-.221 1.215z"/><path d="m343.794 274.878c.146-.339.193-.637.328-.874.114-.199.331-.327.502-.486.108.216.316.437.31.649-.054 1.827-.138 3.654-.243 5.478-.01.175-.223.336-.342.504-.124-.16-.337-.307-.358-.482-.112-.949-.195-1.904-.251-2.86-.036-.618-.006-1.242.054-1.929z"/><path d="m291.221 304.483c.121.67.09 1.012-.52.632-.551-.343-1.136-.635-1.643-1.043-.22-.177-.282-.591-.415-.898.323-.098.751-.39.95-.259.591.389 1.092.944 1.628 1.568z"/><path d="m310.913 269.999c.515 1.591 1.03 3.049 1.548 4.506.014.038.084.069.08.095-.091.603-.189 1.206-.286 1.809-.366-.356-.996-.669-1.051-1.077-.199-1.456-1.176-2.086-2.058-2.925-.753-.716-1.316-1.687-1.894-2.598-.142-.223-.012-.655-.006-.99.253.084.596.084.741.27.421.542.742 1.176 1.146 1.737.127.176.389.235.59.348.002-.246.06-.512-.003-.737-.563-2.013-1.259-3.99-1.697-6.034-.596-2.779-1.114-5.591-1.46-8.419-.568-4.635-1.188-9.279-.978-13.982.021-.477.322-.938.494-1.407.152.445.397.878.443 1.336.351 3.501.796 7 .952 10.513.177 3.972.848 7.827 1.755 11.644.464 1.954 1.117 3.853 1.684 5.911z"/><path d="m313.344 264.118c.325-1.184.647-2.235.974-3.285.096-.311.13-.698.322-.907.257-.279.639-.419.967-.619-.006.38.052.776-.027 1.137-.732 3.347-1.475 6.692-2.252 10.026-.093.397-.414.729-.63 1.091-.19-.402-.592-.846-.534-1.199.333-2.048.775-4.076 1.18-6.244z"/><path d="m305.139 258.171c.46.772.893 1.459 1.238 2.195.108.231-.02.596-.04.899-.253-.068-.601-.044-.739-.22-.5-.638-1.027-1.289-1.368-2.033-.99-2.162-1.895-4.371-2.837-6.56-.049-.113-.206-.217-.193-.305.078-.535.191-1.063.292-1.594.228.384.49.748.678 1.155.98 2.126 1.941 4.263 2.969 6.463z"/><path d="m311.641 256.367c-.162 1.35-.288 2.574-.507 3.778-.068.373-.388.69-.592 1.033-.12-.294-.284-.577-.352-.886-.461-2.089.388-4.031.603-6.044.096-.898.334-1.797.632-2.643.146-.416.576-.711.878-1.06.093.482.329.993.253 1.44-.243 1.429-.601 2.834-.915 4.382z"/><path d="m308.3 245.741c.403-.889.698-1.741 1.113-2.515.141-.264.582-.334.886-.493.028.328.145.683.07.979-.442 1.749-.918 3.489-1.416 5.22-.057.198-.321.324-.49.484-.155-.218-.449-.44-.443-.653.027-.987.138-1.971.28-3.022z"/><path d="m303.923 370.842c2.943-.156 5.825-.245 8.707-.333.202-.006.431-.068.602.013.376.18.722.434 1.081.658-.362.222-.721.627-1.086.635-2.55.056-5.102.03-7.653.03-.526 0-1.056.041-1.578-.017-.286-.031-.556-.229-.834-.352.234-.189.467-.378.761-.634z"/><path d="m302.1 364.962c-.129.289-.303.685-.511.707-1.367.143-2.74.252-4.113.264-.363.003-.73-.374-1.095-.577.307-.154.611-.431.922-.44 1.578-.046 3.158-.021 4.797.046z"/></g><path d="m97.1836 218.346 21.1494 36.24h51.912l2.472-6.342h-17.029l-18.952-29.898z" fill="#fff"/><path d="m172.886 272.466c-5.306 0-10.489.035-15.671-.01-4.807-.042-9.613-.161-14.419-.264-3.494-.074-6.988-.175-10.481-.268-3.33-.088-6.661-.145-9.989-.279-3.42-.138-6.838-.343-10.257-.535-3.009-.168-6.019-.326-9.025-.547-3.1409-.231-6.2773-.538-9.4165-.801-2.2695-.191-4.5421-.339-6.8092-.558-.7231-.069-.8497.204-.8418.948.0388 3.698.0428 7.397.0125 11.095-.0652 7.961-.178 15.922-.227 23.884-.0118 1.901.2277 3.804.2153 5.706-.0228 3.481-.1887 6.961-.2124 10.442-.0127 1.856.2273 3.714.2151 5.57-.047 7.134-.1434 14.268-.234 21.402-.0719 5.661-.167 11.322-.2412 16.983-.0233 1.772-.9314 2.764-2.5831 2.771-1.3754.005-2.318-1.13-2.3469-2.761-.0696-3.932-.173-7.863-.2366-11.795-.0316-1.955-.0367-3.911.0045-5.865.0322-1.528.228-3.054.2186-4.581-.0137-2.218-.1793-4.435-.2195-6.653-.0411-2.27-.0322-4.542-.0046-6.812.0682-5.6.1871-11.201.2265-16.801.0134-1.917-.2012-3.835-.22-5.753-.0373-3.819-.011-7.639-.011-11.458 0-2.226-.032-4.452.0091-6.677.0402-2.173.2047-4.344.2262-6.518.0386-3.894.003-7.788.0238-11.682.002-.362.1861-.722.2856-1.082.087.044.2272.065.2522.135.1285.364.2747.732.3256 1.114.0754.564.1165 1.142.1012 1.712-.0655 2.429-.231 4.859-.2216 7.287.0138 3.542.187 7.082.212 10.624.0129 1.827-.2168 3.655-.2116 5.482.0062 2.188.2004 4.376.2105 6.564.0077 1.647-.2082 3.294-.2104 4.941-.002 1.541.2239 3.083.2113 4.623-.0234 2.865-.2024 5.73-.2115 8.594-.007 2.218.2124 4.436.2104 6.654-.0022 2.368-.2003 4.736-.2105 7.105-.0076 1.782.2169 3.565.2106 5.347-.0079 2.233-.2109 4.466-.2103 6.699.0007 2.279.2097 4.557.2101 6.835.0005 2.249-.2354 4.499-.2004 6.746.029 1.867.232 3.743.5175 5.585.0635.41.7809.934 1.2226.965.3764.026.8994-.503 1.1537-.932.2341-.395.2675-.985.2681-1.489.0135-11.501.0104-23.002.0104-34.503 0-7.818-.032-15.637.009-23.455.041-7.81.187-15.62.2214-23.431.0137-3.119-.1717-6.239-.2158-9.36-.0129-.908.1747-1.817.226-2.729.0918-1.63-.1603-1.882-1.609-2.012-2.6897-.24-5.3852-.448-8.0607-.822-4.3579-.61-8.7842-.865-12.9823-2.443-1.7157-.645-3.3923-1.474-4.9932-2.412-1.4222-.833-1.7295-2.43-1.6282-4.075.096-1.559.9613-2.64 2.2396-3.099 2.8611-1.026 5.7451-1.999 8.6649-2.793 1.3014-.354 2.7203-.147 4.0701-.333 2.1278-.294 4.2384-.736 6.3638-1.054 1.5662-.235 3.1412-.423 4.718-.539 1.9727-.145 3.9572-.117 5.9259-.301 3.1507-.296 6.292-.713 9.4388-1.061 1.071-.118 2.1454-.215 3.2204-.269 2.221-.111 4.444-.186 6.666-.277 2.222-.09 4.445-.171 6.666-.282.253-.013.499-.189.749-.29-.111-.281-.187-.587-.337-.841-2.23-3.767-4.482-7.518-6.703-11.292-1.986-3.375-3.946-6.77-5.907-10.163-1.4022-2.426-2.8178-4.844-4.1644-7.307-.6015-1.1-.3822-1.637.7382-1.891.6875-.156 1.4241-.069 2.138-.054.2642.006.5252.171.7892.176 5.298.101 10.597.177 15.895.283 3.412.068 6.848-.067 10.229.337 3.139.376 6.14-.276 9.201-.561.507-.047 1.264.438 1.569.929 3.012 4.837 5.931 9.744 8.919 14.6 2.843 4.621 5.719 9.218 8.625 13.793.472.743 1.077 1.251 2.116 1.253 8.416.014 16.832.142 25.249.225 2.051.02 4.102-.029 6.153.01 3.371.064 6.741.163 10.112.267 2.304.071 4.608.182 6.912.266 2.633.096 5.266.158 7.897.278 3.461.156 6.92.346 10.38.538 3.05.168 6.099.364 9.148.536 1.812.103 3.63.115 5.435.288 3.232.308 6.455.721 9.685 1.062 1.98.209 3.972.303 5.947.562 2.956.387 5.906.842 8.85 1.33 2.46.408 4.932.787 7.353 1.396 2.223.559 4.46 1.216 6.553 2.188 1.881.873 1.694 1.607 1.196 3.365-.235.831-.798 1.586-.897 2.421-.323 2.723-2.218 3.201-4.11 3.611-3.614.784-7.241 1.505-10.875 2.164-1.638.296-3.305.413-4.962.554-3.466.293-6.934.546-10.4.82-2.23.176-4.457.391-6.688.533-3.294.209-6.591.38-9.887.545-3.869.194-7.74.351-11.61.549-3.132.16-6.263.363-9.395.534-1.893.104-3.787.243-5.682.264-10.223.111-20.446.19-30.793.28zm100.061-15.697c-.694-.222-1.377-.504-2.084-.655-2.473-.528-4.946-1.075-7.436-1.489-1.762-.293-3.557-.343-5.33-.571-3.28-.422-6.549-.944-9.831-1.328-2.303-.269-4.623-.358-6.933-.563-2.812-.25-5.619-.579-8.433-.797-3.998-.311-8-.571-12.001-.816-3.418-.21-6.838-.385-10.258-.542-2.59-.119-5.183-.196-7.774-.274-3.371-.1-6.742-.191-10.114-.271-4.191-.099-8.383-.236-12.575-.261-7.384-.042-14.768-.017-22.153.007-.298.001-.595.282-.893.432.284.121.567.344.852.346 3.199.025 6.4-.001 9.599.037.374.005.746.31 1.118.476-.294.113-.586.237-.885.336-.293.097-.593.235-.891.238-2.256.02-4.513.019-6.769.006-.68-.004-1.359-.068-2.039-.105.411.805.82 1.612 1.238 2.412.06.114.16.212.26.286.19.141.396.377.591.371 2.264-.062 4.526-.197 6.79-.22.401-.004.804.423 1.207.651-.402.133-.802.378-1.204.381-3.378.031-6.756-.014-10.134.026-5.259.061-10.517.208-15.775.253-5.374.045-10.749.01-16.123.01-1.341 0-2.684.052-4.021-.031-.418-.026-.817-.418-1.225-.642.404-.227.796-.491 1.218-.665.216-.089.487-.016.733-.016 11.282 0 22.564.002 33.846-.008.292 0 .584-.124.876-.19-.13-.302-.224-.631-.395-.902-2.406-3.823-4.816-7.643-7.238-11.454-1.957-3.081-3.939-6.144-5.895-9.225-2.309-3.637-4.612-7.279-6.884-10.943-.165-.267-.063-.734-.085-1.109.268.191.622.316.792.582 2.317 3.629 4.611 7.277 6.907 10.924 3.685 5.854 7.366 11.712 11.054 17.563.974 1.545 1.965 3.078 2.967 4.6.1.152.338.192.512.284.011-.25.115-.562.017-.739-.697-1.267-1.399-2.535-2.166-3.751-3.872-6.135-7.779-12.242-11.642-18.383-2.355-3.744-4.644-7.539-6.985-11.294-.371-.596-.869-.994-1.638-.885-1.107.157-2.228.285-3.342.27-2.469-.033-4.937-.175-7.406-.25-3.37-.102-6.742-.2-10.113-.27-5.012-.105-10.024-.184-15.0361-.274-.0821-.002-.1648.007-.2461-.002-.5713-.06-1.1423-.124-1.7135-.187.3119.61.5997 1.236.9397 1.827 2.491 4.325 4.97 8.659 7.497 12.959 3.954 6.73 7.946 13.432 11.906 20.158.178.302.251.718.264 1.086.007.215-.202.438-.314.658-.134-.139-.303-.254-.397-.421-.586-1.039-1.071-2.163-1.763-3.106-.37-.504-1.102-1.014-1.645-.983-2.653.153-5.293.539-7.944.743-2.176.168-4.362.184-6.543.289-3.5427.171-7.0859.332-10.6263.549-2.0272.124-4.0515.324-6.0729.537-3.1891.338-6.3774.69-9.5605 1.089-1.3916.174-2.7745.451-4.1526.733-2.2045.451-4.4105.901-6.5991 1.435-1.5282.372-3.0437.832-4.5315 1.366-.4329.155-.751.697-1.1217 1.061.3445.332.6514.738 1.0424.978.5927.364 1.2204.728 1.8746.888 1.7379.427 3.5025.719 5.248 1.111 2.7199.61 5.4129 1.405 8.1537 1.852 3.6665.598 7.3632.994 11.0557 1.373 3.3786.348 6.7689.558 10.1541.829 2.2704.181 4.5404.368 6.8111.539 3.672.277 7.342.62 11.018.793 3.901.183 7.808.186 11.712.299 1.69.048 3.379.169 5.068.264 3.132.177 6.262.442 9.396.523 5.872.151 11.747.214 17.621.282 3.117.036 6.235.029 9.353.002 8.828-.078 17.656-.133 26.482-.285 4.528-.077 9.054-.359 13.581-.514 1.627-.055 3.257.022 4.884-.016 2.797-.065 5.594-.161 8.39-.268 1.772-.067 3.544-.15 5.314-.272 3.673-.252 7.345-.532 11.017-.807 2.312-.174 4.622-.379 6.935-.536 2.966-.2 5.936-.343 8.902-.554 1.945-.138 3.896-.265 5.825-.553 3.128-.467 6.246-1.027 9.359-1.613 3.402-.641 6.777-1.347 9.995-2.869 1.174-.555.65-.949.152-1.24-1.066-.623-2.224-1.055-3.591-1.565zm-172.061 12.179c2.517.18 5.032.381 7.549.536 3.254.201 6.509.386 9.764.541 4.198.201 8.397.365 12.595.547 2.017.088 4.034.206 6.052.265 3.739.109 7.48.274 11.22.26 13.38-.05 26.76-.15 40.14-.263 4.069-.035 8.137-.162 12.205-.266 2.879-.073 5.757-.175 8.636-.267 5.552-.179 11.104-.359 16.656-.542 2.55-.085 5.101-.18 7.651-.269.164-.006.329.014.492-.003 3.474-.358 6.947-.739 10.423-1.074 2.267-.217 4.548-.287 6.808-.566 3.864-.476 7.705-1.281 11.578-1.541 3.464-.233 6.79-1.038 10.103-1.998 1.003-.291 2.246-.172 2.924-1.357.156-.274.221-.611.329-.919-.305-.017-.644-.141-.907-.035-4.339 1.754-8.933 2.074-13.438 2.856-3.12.542-6.286.764-9.432 1.116-3.309.369-6.616.786-9.931 1.066-3.126.265-6.262.39-9.394.556-2.099.11-4.2.159-6.297.28-2.682.155-5.36.391-8.042.527-4.156.212-8.313.454-12.472.532-8.129.151-16.259.199-24.388.287-.753.008-1.505.008-2.258 0-9.155-.088-18.31-.164-27.464-.276-3.782-.047-7.563-.164-11.344-.266-6.044-.164-12.094.317-18.138-.489-3.429-.458-6.914-.419-10.374-.589-2.14-.105-4.282-.157-6.421-.28-2.64-.152-5.28-.335-7.9181-.539-3.2221-.25-6.4442-.509-9.662-.817-2.3222-.222-4.6387-.519-6.9555-.805-3.5642-.44-7.1179-1.135-10.6917-1.291-4.4157-.193-8.5003-1.729-12.6603-3.034-.1413-.045-.3789-.124-.4211-.062-.0957.14-.183.41-.1206.533.1623.32.3538.721.6287.856 1.0371.509 2.0803 1.094 3.1789 1.344 2.8131.64 5.6577 1.112 8.4888 1.657 2.7913.538 5.5692 1.184 8.3757 1.595 2.7535.403 5.5352.575 8.3054.838 1.1135.106 2.2302.169 3.3435.276 3.6797.354 7.3584.719 11.2833 1.08z" fill="#00160a"/><path d="m91.4162 250.357c0 2.169-2.8571 4.228-6.0427 4.228s-6.0427-2.059-6.0427-4.228c0-2.168-1.0985-8.153 6.3174-6.341 6.592-.303 5.768 4.173 5.768 6.341z" fill="#fff"/><path d="m94.1746 248.997c-1.3454.677-1.748 1.881-2.378 3.198-.9176 1.917-2.7224 3.25-5.0238 3.166-2.1779-.079-4.3714.196-6.4056-1.064-1.1-.681-1.8769-1.787-1.9742-2.935-.1494-1.763.086-3.621.4496-5.365.3443-1.652 1.7674-2.324 3.1153-2.645 2.5506-.607 5.1178-.445 7.5954.521.5577.217 1.0031.762 1.5469 1.049.4577.242 1.0629.583 1.4626.431.8872-.335 1.7505-.982 2.5038.066.6361.884.2562 2.315-.7454 3.417-.0286.031-.0572.063-.1466.161zm-14.6479 1.938c.4153.668.6984 1.564 1.269 1.965 2.3347 1.644 4.964 1.414 7.4756.787 2.2769-.568 3.4478-3.443 2.4839-5.589-.2075-.462-.7991-.902-1.2692-.989-.6234-.114-1.3149.268-1.9532.192-2.1128-.251-4.2122-.636-6.3232-.908-.4522-.059-1.2808.022-1.3415.239-.3629 1.3-.9334 2.626-.3414 4.303zm8.1445-6.282c-1.8303 0-3.6607-.009-5.4907.016-.1565.002-.3105.228-.4657.35.174.145.3422.407.5229.418 1.9567.118 3.9149.226 5.874.269.6212.013 1.246-.175 1.8691-.27-.6485-.261-1.2967-.523-1.946-.781-.0357-.014-.0801-.002-.3636-.002zm6.321 1.604c-.551.339-1.32.539-1.5908 1.055-.2637.503-.0174 1.329.005 2.013.2813-.305.5634-.61.8439-.916.2549-.278.5943-.514.738-.85.1439-.337.0917-.775.0039-1.302z" fill="#000"/><path d="m82.6872 259.088c-1.35-.281-2.618-.441-3.7882-.902-.4951-.195-1.5952-.402-1.0858-1.623.4453-1.067 1.3887-1.512 2.2364-1.025.1877.109.3016.372.4496.563-.1712.105-.3478.2-.5124.316-.2389.169-.4692.352-.7032.528.218.108.4271.267.6555.315 2.2393.466 4.4687.733 6.7609.27 1.1341-.229 2.3384-.012 3.5091-.057.7367-.028 1.4756-.269 2.2027-.22.4936.033.9684.404 1.4517.624-.3956.226-.7815.622-1.1883.65-3.2866.226-6.5771.383-9.988.561z" fill="#000"/><g fill="#00160a"><path d="m185.932 375.313c-3.802-.361-7.479-.743-11.16-1.073-1.644-.147-3.294-.206-4.943-.276-2.467-.105-4.937-.166-7.404-.279-3.583-.164-7.164-.438-10.748-.516-4.156-.091-8.314-.052-12.471-.014-7.39.066-14.78.159-22.17.272-2.223.034-4.444.194-6.667.254-1.489.041-2.982.04-4.471.001-2.346-.063-4.69-.195-7.0359-.259-3.9854-.108-7.9712-.216-11.9574-.266-3.5411-.044-7.1053.259-10.6178-.093-2.888-.289-5.6984-1.419-8.5757-1.971-1.5739-.302-2.744-1.121-3.6061-2.458-1.2107-1.877-.1739-4.895 2.0017-6.074 1.6604-.899 3.3165-1.593 5.1857-1.605.4588-.003.9157-.239 1.375-.246 1.9415-.029 3.8849-.051 5.8241.029.295.012.7053.52.8285.892.2568.775-.3149.743-.7583.684-1.2058-.161-2.4042-.448-3.6127-.506-1.0269-.049-2.0925.017-3.0898.273-1.6665.427-3.332.936-4.9217 1.623-1.141.493-1.9066 1.464-1.888 3.019.0166 1.397.6786 2.233 1.7475 2.611 2.5027.886 5.0415 1.649 7.5674 2.455.1135.036.2449.002.368.005 4.3549.09 8.7098.244 13.0648.251 3.6986.005 7.4314-.553 11.0887-.168 7.035.741 14.063.301 21.092.436 2.48.047 4.964-.172 7.446-.243 1.203-.034 2.408.005 3.611-.008 8.047-.086 16.093-.238 24.14-.239 3.213 0 6.428.315 9.64.517 2.435.154 4.869.352 7.303.537 3.507.267 7.017.508 10.522.822 2.363.212 4.726.471 7.076.817 2.587.381 5.156.908 7.738 1.329 1.402.228 2.816.374 4.225.549 2.94.364 5.875.807 8.823 1.053 1.917.16 3.856-.04 5.781.044 5.314.231 10.623.645 15.939.754 3.127.063 6.262-.305 9.393-.501 2.599-.162 5.205-.265 7.792-.561 3.04-.349 6.077-.782 9.086-1.359 2.534-.487 5.096-1.013 7.513-1.939 1.736-.665 3.477-1.753 4.824-3.12 2.628-2.668 1.74-5.237-.659-7.028-2.75-2.053-5.789-3.603-9.238-3.871-2.12-.165-4.229-.508-6.337-.817-.182-.027-.471-.427-.444-.607.038-.263.33-.701.49-.689 1.938.149 3.88.299 5.803.59 1.526.232 3.116.422 4.521 1.051 2.827 1.266 5.795 2.352 7.708 5.31 1.668 2.579.915 4.733-.589 6.625-2.196 2.76-5.239 4.011-8.396 4.761-3.3.784-6.647 1.35-9.988 1.907-1.802.301-3.632.438-5.454.551-3.54.221-7.082.388-10.624.549-4.321.197-8.677.819-12.953.419-4.377-.409-8.736-.601-13.116-.722-2.774-.076-5.549-.427-8.307-.798-2.549-.344-5.072-.917-7.616-1.317-1.604-.253-3.23-.338-4.838-.565-1.584-.224-3.159-.531-4.861-.802z"/><path d="m253.379 363.405c0 .992.002 1.849 0 2.706-.004 1.297-.941 2.199-2.248 2.165-1.131-.029-1.946-.854-1.925-2.102.046-2.775.21-5.549.217-8.323.005-2.308-.184-4.615-.219-6.924-.041-2.782-.009-5.564-.009-8.347 0-.315 0-.631 0-.947 0-3.292.027-6.585-.011-9.877-.022-1.813-.219-3.624-.224-5.436-.025-8.63-.012-17.26-.012-25.89 0-9.457 0-18.914 0-28.372 0-.315-.092-.684.026-.932.119-.248.448-.374.685-.554.091.197.261.393.262.59.017 2.947-.018 5.895.022 8.841.03 2.114.198 4.226.226 6.341.04 3.081.033 6.165-.001 9.247-.013 1.196-.207 2.391-.217 3.587-.008.909.217 1.82.218 2.73.014 15.74.01 31.481.01 47.222 0 5.427-.001 10.855.002 16.283 0 .558-.145 1.164.685 1.26.782.091 1.085-.385 1.269-1.043.08-.289.013-.627.013-.943 0-1.759-.008-3.518.002-5.277.079-13.899.171-27.798.233-41.698.006-1.45-.226-2.902-.217-4.352.012-2.038.207-4.075.211-6.113.003-1.811-.227-3.624-.213-5.435.036-4.834.135-9.668.237-14.501.043-2.024.233-4.047.222-6.069-.016-3.121-.155-6.24-.22-9.36-.012-.529-.208-1.348.614-1.272.617.056 1.07.493.627 1.351-.123.239-.009.62-.02.935-.079 2.128-.219 4.255-.227 6.383-.006 1.692.198 3.383.211 5.076.009 1.195-.193 2.391-.212 3.588-.011.727.215 1.458.218 2.188.021 4.916.033 9.832 0 14.748-.012 1.812-.217 3.624-.217 5.436 0 1.811.226 3.624.215 5.435-.052 8.487-.174 16.974-.218 25.461-.013 2.503.228 5.008.215 7.511-.025 4.85-.148 9.698-.23 14.683z"/><path d="m153.442 360.427c-3.165.09-6.208.146-9.248.28-3.092.137-6.18.367-9.27.528-3.787.197-7.574.375-11.361.541-2.508.11-5.026.072-7.524.301-3.857.352-7.7.878-11.55 1.323-.284.033-.574.004-.861.004-3.7727 0-7.5477.082-11.3176-.037-1.7082-.053-3.411-.473-5.1034-.806-.2741-.054-.4808-.522-.7187-.798.2823-.175.583-.526.8438-.494 1.1959.15 2.3802.411 3.5697.626.348.062.6989.147 1.0488.149 2.5016.013 5.0092.128 7.5036-.02 4.5028-.267 8.9978-.695 13.4958-1.054.204-.016.41.005.615-.003 2.509-.088 5.018-.158 7.526-.275 3.419-.159 6.857-.157 10.25-.579 6.205-.771 12.421-.75 18.645-.781 8.086-.04 16.18-.425 24.255-.139 3.491.124 6.995.703 10.524.711 3.821.009 7.643.259 11.463.222 3.05-.029 6.096-.368 9.147-.502 4.852-.213 9.708-.318 14.559-.568 3.51-.181 7.013-.54 10.522-.788 1.809-.127 3.624-.162 5.433-.282 3.836-.254 7.673-.507 11.504-.827.952-.079.874.344.556.975-.095.19-.367.372-.565.383-2.221.115-4.443.196-6.664.286-4.443.181-8.924.035-13.317.654-3.028.426-6.022.676-9.057.712-1.156.013-2.31.215-3.466.249-3.862.113-7.725.155-11.586.289-3.911.137-7.82.346-11.73.535-1.484.072-2.968.263-4.45.249-2.879-.027-5.8.158-8.625-.312-8.294-1.382-16.62-.449-25.047-.752z"/></g><g fill="#fff"><path d="m84.2725 185.859c2.0648.812 4.0806 1.505 5.535 3.259 2.1999 2.654 2.6663 5.787 2.1758 9.265-.7351 5.213-3.0494 9.706-5.168 14.291-.6578 1.424-1.4883 2.752-2.248 4.119-.9521 1.712-1.8571 3.347-1.834 5.552.0257 2.455-.4952 4.911-.6582 7.376-.1701 2.572.3583 5.017 1.4458 7.316.1403.296.102.695.1464 1.046-.2906-.205-.6534-.346-.8601-.627-1.4298-1.939-1.7885-4.326-1.9399-6.672-.2311-3.581.135-7.16.9798-10.631.3182-1.307.9222-2.585 1.6081-3.721 3.1861-5.277 5.9045-10.803 7.1674-17.024.4063-2.001.7611-4.114.1966-6.233-.8599-3.229-3.0231-4.882-5.7683-5.651-2.0307-.569-4.1383-.949-6.2292-1.083-3.6905-.236-7.4059-.055-11.0893-.361-3.3257-.276-6.7234-.054-9.9535-1.299-2.1169-.816-3.3362-2.479-3.7439-4.845-.0542-.315.4232-.74.6544-1.114.2611.386.7069.749.7511 1.163.1845 1.729 1.1453 2.775 2.4984 3.257 1.6028.572 3.2793 1.132 4.9431 1.212 4.923.236 9.8591.137 14.7825.366 2.1711.101 4.3238.678 6.608 1.039z"/><path d="m49.2574 196.482c-1.3159-.589-2.191-1.5-2.4535-2.987-.0459-.26.0959-.56.151-.842.2801.109.6462.133.8211.346.3011.367.4394.89.7224 1.281 1.4808 2.045 3.6011 1.684 5.5444 1.545 2.0505-.147 4.0792-.669 6.1163-1.036 3.495-.628 6.9887-1.264 10.4837-1.892 3.0663-.551 5.9587-.088 8.5614 1.878 2.0775 1.569 2.9142 3.914 3.0837 6.545.384 5.959-1.1631 11.535-3.0734 16.992-.9622 2.749-1.3428 5.561-1.0635 8.426.4108 4.213 1.0112 8.41 3.3646 11.987.1311.199.2784.45.2764.676-.0028.326-.1349.651-.2119.977-.232-.154-.5423-.247-.6842-.47-1.8736-2.945-2.9624-6.241-3.508-9.761-.2107-1.36-.3664-2.732-.4941-4.105-.3584-3.851.871-7.308 2.1405-10.791.7621-2.091 1.3626-4.289 1.7471-6.5.3717-2.136.5304-4.354.4941-6.53-.0379-2.274-.3363-4.652-2.167-6.136-1.0171-.825-2.2607-1.484-3.49-1.787-3.0305-.749-6.0497-.118-9.0591.479-3.4847.69-6.9712 1.435-10.4868 1.85-2.223.263-4.5006-.032-6.8152-.145z"/><path d="m122.672 238.364c-1.026-.125-1.313-.883-.886-1.532 1.268-1.933 2.676-3.756 4.068-5.586.188-.248.601-.29.91-.427-.025.366.034.771-.089 1.092-.515 1.342-1.078 2.664-1.639 3.985-.289.68-.043.725.491.586.272-.071.582-.064.855.003.252.061.477.25.714.383-.111.218-.202.452-.336.65-1.502 2.202-3.007 4.401-4.523 6.591-.135.195-.352.322-.531.48-.088-.245-.296-.526-.245-.729.321-1.29.717-2.557 1.052-3.843.139-.536.191-1.101.159-1.653z"/></g><path d="m127.657 223.005c.348.002.635.071.923.14-.073.236-.09.524-.226.7-1.601 2.057-3.212 4.104-4.842 6.133-.185.23-.5.334-.754.497.028-.365-.053-.807.105-1.08.46-.791.989-1.539 1.54-2.26 1.046-1.37 2.126-2.71 3.254-4.13z" fill="#00160a"/><path d="m116.334 246.282c-.713.212-1.041.045-.591-.694.733-1.204 1.472-2.409 2.281-3.551.162-.228.651-.176.989-.253-.09.345-.104.75-.282 1.025-.752 1.156-1.553 2.274-2.397 3.473z" fill="#00160a"/><path d="m182.055 291.43 4.669 13.59 7.142-5.134-2.198-9.966 6.867-5.134 2.472-14.798h20.6l-4.944 32.918-1.923 16.912-.824 16.006 3.022 3.624 3.845 2.114h5.219l3.57-.906 6.592-15.402 5.494-16.006 7.416-30.804 4.12-2.718s3.845-12.986 3.845-19.63 2.485-26.377-1.099-40.468c-2.984-11.734-12.909-27.784-12.909-27.784l-6.867-7.852 1.099-25.972-21.699-3.02-3.57 10.872s1.922 9.362 4.944 12.986c1.913 2.295 6.042 1.812 6.042 1.812l2.473 13.288-2.473 5.436-6.317 18.12-1.099 15.402-19.226 5.738 7.965 5.134-29.939 4.832s-6.591 3.624-4.394 17.818 7.416 27.482 7.416 27.482z" fill="#fff"/><path d="m246.603 279.35c2.571-1.597 4.889-2.191 6.575-4.42 4.684-6.498 4.518-58.975 2.489-57.792-2.047 1.194-1.754 11.194-1.373 13.288 1.923 10.57-3.258 35.492-3.708 36.542-.412 5.436-6.953 7.551-11.399 9.664-2.308 1.097-5.449 1.414-5.493 2.718-.039 1.135 1.853 2.249 3.185 2.084 3.169-.394 7.15-.485 9.724-2.084z" fill="#e7eaee"/><path d="m224.708 334.89c-.654 1.86-.733 3.693-.808 5.684 1.005.576 2.237.918 3.345.576.296-.091.603-.138.902-.213.372-.093.475-.28.755-.547.555-.53 1.097-1.119 1.51-1.788 1.562-2.527 3.017-5.272 4.006-8.139.412-1.196 1.021-2.374 1.6-3.493l.036-.07c.28-.542.409-1.218.681-1.787.284-.593.429-1.223.588-1.868.32-1.304.936-2.506 1.206-3.839.24-1.192.791-2.31 1.09-3.482.314-1.233.683-2.443.912-3.701.114-.626.384-1.477.21-2.105-.174-.63-.955.022-1.263.26-1.28.985-2.088 1.954-2.669 3.574-.763 2.128-2.01 4.101-3.471 5.707-1.479 1.626-2.732 3.503-3.964 5.35-1.234 1.85-2.48 3.754-3.345 5.846-.282.681-.554 1.368-.807 2.063-.233.639-.291 1.336-.514 1.972z" fill="#e7eaee"/><path d="m184.254 311.06c-4.888 5.076-12.976 12.624-9.613 19.026 2.855 5.436 12.058-4.12 17.579-9.362 5.191-4.93 10.872-13.311 8.514-16.61-3.021-4.228-11.536 1.812-16.48 6.946z" fill="#fff"/><g fill="#00160a"><path clip-rule="evenodd" d="m212.892 148.743c.949-.648 1.875-1.336 2.87-2.078.646.078.909.276.221.754-1.785 1.24-3.571 2.503-4.576 4.666-.128.277-.116.634-.104.991.005.165.011.33.002.487.139-.046.282-.085.424-.123.317-.086.633-.172.911-.337.396-.236.773-.51 1.151-.784.297-.216.594-.431.901-.629.12-.077.312-.03.484.012.033.009.066.017.097.024.026.005.059.272.008.363-.527.946-.871 1.997-1.216 3.049-.586 1.788-1.173 3.579-2.655 4.862-.991.858-.816 2.648.096 3.317.548.402 2.779.175 3.302-.347.095-.096.176-.21.256-.323v-.001c.037-.052.074-.104.112-.155-.062-.038-.124-.088-.187-.137-.138-.109-.276-.218-.409-.212-.209.01-.417.062-.625.113-.249.062-.498.123-.745.112-.277-.012-.551-.129-.825-.247-.121-.051-.242-.103-.363-.146.046-.133.084-.272.123-.411.087-.31.173-.62.333-.872.154-.243.352-.458.548-.672.27-.295.538-.588.687-.945.885-2.131 1.709-4.298 2.455-6.494.313-.92.729-1.458 1.627-1.346.334.041.67.072 1.008.103.92.085 1.843.17 2.703.469 4.309 1.494 7.189 4.232 7.42 10.263.02.529-.042 1.061-.105 1.594-.046.384-.091.769-.106 1.153-.006.179.091.363.187.548h.001c.044.085.088.169.123.253.069-.041.143-.076.217-.112.166-.081.332-.161.451-.294.154-.171.277-.376.4-.582v-.001c.071-.118.142-.238.219-.35.158-.231.308-.475.458-.719.366-.595.733-1.19 1.223-1.605.514-.435 1.41-.67 2.026-.5.612.168.856.984.845 1.875-.018 1.449-.533 2.529-1.29 3.658l-.063.094c-.694 1.036-1.638 2.444-1.43 3.404.435 2.011 1.102 3.959 1.769 5.909l.001.001c.355 1.037.711 2.076 1.032 3.125.145.475.08 1.292-.201 1.626-2.019 2.403-4.084 4.758-6.15 7.113l-.006.008c-.483.55-.965 1.101-1.447 1.651-.105.12-.227.223-.349.325-.056.048-.113.095-.168.145-.034-.071-.074-.141-.114-.211-.087-.151-.173-.301-.194-.462-.548-4.175-1.452-8.229-3.174-12.025-.085-.188.136-.793.288-.83 2.074-.506 3.983-1.411 5.714-2.768.151-.119.256-.311.361-.503.049-.089.097-.178.151-.259-.098-.016-.2-.046-.302-.075-.221-.065-.443-.129-.614-.053-.544.243-1.078.517-1.612.79-.772.396-1.543.792-2.344 1.091-4.013 1.501-7.22.535-9.216-3.365-.656-1.281-.965-2.78-1.274-4.281-.155-.755-.311-1.511-.511-2.24-.063-.231-.231-.427-.399-.623-.077-.09-.155-.181-.222-.275-.062.114-.146.233-.229.352-.181.258-.362.516-.324.724.331 1.783.725 3.555 1.185 5.303.764 2.899 2.498 4.812 5.024 5.893.331.142.796.492.826.792.088.882.115 1.818-.059 2.677-.698 3.442-2.665 6.07-4.63 8.695l-.465.622-.004.004-.004.005c-1.29 1.723-2.581 3.447-3.782 5.245-.59.885-1.018 1.96-.498 3.139.837 1.895 2.649 1.939 4.572 1.529 2.702-.576 4.836-2.343 6.851-4.309.097-.094.222-.154.346-.214.058-.028.116-.056.171-.087.023.087.055.176.087.265.07.193.139.386.119.566-.12 1.068-.256 2.138-.472 3.186-.133.647-.357 1.296-.653 1.872-.21.408-.461.797-.711 1.185-.406.631-.81 1.259-1.034 1.961-1.04 3.25-2.002 6.541-2.813 9.87-1.128 4.633-2.196 9.3-1.651 14.187.031.278-.041.785-.176.838-.314.123-.631.269-.95.415l-.004.002c-.903.415-1.817.835-2.695.766-1.533-.121-2.879-.01-4.291.658-.939.445-1.956.698-2.967.949-.221.055-.441.11-.661.167-.56.145-1.125.266-1.691.387-.833.178-1.665.357-2.479.611-.472.148-1.217.84-1.163 1.124.13.677-.088.653-.466.611l-.027-.003c-.648-.071-1.295-.14-1.943-.209-1.786-.19-3.572-.38-5.353-.616-1.225-.162-2.446-.357-3.668-.552-1.135-.18-2.27-.361-3.407-.516-.985-.134-1.974-.23-2.962-.327l-.007-.001h-.003c-.74-.072-1.48-.144-2.218-.232-.695-.083-1.388-.18-2.082-.276-1.411-.197-2.822-.393-4.238-.473-.534-.031-1.409.588-1.59 1.13-.315.945.566 1.394 1.243 1.501 2.218.35 4.449.604 6.681.839 2.879.303 5.76.594 8.645.814 2.154.164 4.31.303 6.466.442h.002c1.952.126 3.904.251 5.855.396.885.065 1.768.176 2.65.287h.006c.681.086 1.363.172 2.046.236.663.063 1.346.087 1.998-.024.204-.034.383-.244.562-.454.081-.096.163-.191.246-.27-.105-.063-.21-.141-.314-.219-.225-.168-.451-.335-.689-.361-1.384-.147-2.771-.264-4.157-.38l-.008-.001c-.75-.063-1.5-.126-2.25-.194-.14-.013-.277-.075-.413-.137-.064-.029-.127-.058-.191-.082.059-.056.116-.122.173-.188.123-.144.247-.287.394-.33l.288-.085c1.014-.3 2.031-.6 3.063-.789.387-.071.777-.132 1.167-.192 1.627-.25 3.25-.501 4.687-1.546.123-.09.28-.175.421-.176.312-.003.623-.006.934-.009h.007c1.253-.014 2.508-.028 3.76.022.613.025 1.617 1.599 1.528 2.282-.134 1.019-.28 2.04-.504 3.037-.077.344-.362.827-.622.891-.444.108-.888.222-1.333.335l-.01.003-.005.001h-.002c-1.659.425-3.324.851-5.005.996-1.344.116-2.702.024-4.06-.068-.778-.052-1.557-.105-2.333-.119-.244-.004-.49.154-.736.312-.114.073-.227.146-.341.203.115.086.227.191.34.296.245.228.49.457.755.491.725.093 1.456.131 2.186.17.668.036 1.336.071 1.999.148 1.575.182 3.128-.071 4.68-.324 1.728-.282 3.457-.564 5.216-.245.607.11 1.223.169 1.838.227.837.08 1.674.159 2.484.368l.355.091c4.064 1.046 8.117 2.09 12.329 2.061 1.338-.009 1.889.62 1.896 2.109.005.964.013 1.928.021 2.892v.007c.026 3.316.053 6.634-.043 9.946-.058 2.007-.221 4.009-.384 6.012-.116 1.423-.232 2.847-.31 4.272-.215 3.916-.359 7.836-.477 11.757-.016.507.179 1.176.497 1.514 1.449 1.537 3.286 2.232 5.196 1.736l.494-.128c3.007-.777 6.034-1.56 8.785-3.246.228-.139.505-.178.781-.217.129-.018.257-.036.381-.065-.046.099-.093.196-.139.294l-.001.002c-.109.231-.218.461-.324.693-.024.051-.049.101-.074.151-.069.136-.138.272-.167.418-.265 1.306-.515 2.617-.766 3.928-.529 2.772-1.059 5.545-1.723 8.277-1.316 5.411-2.795 10.776-4.322 16.119-.372 1.301-.836 2.57-1.301 3.839-.518 1.417-1.037 2.835-1.426 4.295-1.94 7.283-5.114 13.918-8.356 20.535-1.219 2.487-3.204 3.197-5.512 3.135-1.143-.031-2.285-.215-3.424-.399-.262-.042-.525-.085-.787-.125-2.842-.439-5.846-2.671-5.743-6.556.057-2.123.101-4.247.145-6.37l.001-.006c.035-1.695.07-3.39.112-5.085.004-.159.051-.316.099-.473.038-.128.077-.256.093-.387.086-.714.174-1.427.262-2.14v-.001c.268-2.169.536-4.338.748-6.513.073-.742.087-1.493.101-2.243.018-.992.036-1.982.19-2.947.568-3.572 1.202-7.132 1.837-10.691l.001-.008c.278-1.559.556-3.118.829-4.678.193-1.109.39-2.218.586-3.327.555-3.134 1.11-6.268 1.604-9.414.3-1.913.515-3.843.729-5.773.088-.784.175-1.568.268-2.351.04-.335.067-.674.095-1.013l.001-.004c.05-.618.101-1.235.224-1.834.23-1.122.496-2.234.761-3.346.174-.729.348-1.459.513-2.191.03-.134-.014-.288-.057-.442-.02-.071-.04-.143-.053-.212-.053.029-.112.054-.17.078-.128.055-.257.11-.341.211l-.014.017c-.23.279-.48.581-.588.925-.399 1.272-.795 2.55-1.087 3.855-.201.902-.577 1.455-1.429 1.576-.367.052-.732.108-1.098.163h-.001-.002c-1.853.28-3.696.558-5.607.437-1.874-.118-3.76-.004-5.645.109-.699.043-1.399.085-2.097.115-.239.011-.477.067-.715.123-.259.061-.518.122-.778.124-.169.001-.34.005-.512.01-.766.019-1.546.039-2.222-.235-.234-.095-.311-.664-.388-1.238-.036-.269-.073-.54-.126-.762-.013-.055-.047-.103-.081-.151-.015-.021-.029-.042-.043-.064-.155-.258-.311-.515-.467-.773l-.189-.312c-.047.13-.103.26-.16.39-.125.283-.249.567-.262.857-.057 1.238-.09 2.487-.007 3.721.152 2.242-.33 4.358-.812 6.476-.157.689-.314 1.378-.449 2.072-.217 1.117-.844 1.355-1.729 1.189-2.258-.425-4.508-.815-6.809-.284-.698.161-1.408.272-2.118.384-1.177.184-2.353.369-3.463.778-2.139.789-4.241 1.847-6.168 3.142-.964.647-1.229.593-1.587-.419-.36-1.02-.73-2.037-1.1-3.053-.862-2.368-1.724-4.736-2.468-7.149-.371-1.203-.564-2.473-.758-3.744-.109-.719-.218-1.438-.36-2.146-.094-.467-.188-.934-.283-1.4v-.001c-.987-4.858-1.97-9.694-1.381-14.79.395-3.412 2.139-5.905 4.918-6.997 4.131-1.623 8.434-2.351 12.733-3.078l.014-.003c.332-.056.664-.112.996-.169 1.896-.323 3.8-.594 5.704-.865l.007-.001.001-.001c1.195-.17 2.391-.34 3.584-.524.131-.02.249-.143.367-.266.055-.057.11-.114.166-.161-.051-.068-.103-.154-.154-.24-.11-.186-.221-.372-.339-.378-.13-.006-.261-.013-.392-.021-.973-.053-1.955-.106-2.914.018-1.763.228-3.518.542-5.273.856-.396.071-.793.141-1.189.211-.445.079-.89.156-1.335.233-1.777.308-3.555.616-5.318 1.004-1.111.245-2.211.554-3.311.863h-.001c-.753.212-1.506.424-2.263.615-2.939.741-5.155 2.512-6.606 5.478-.75 1.533-.837 3.18-.81 4.844.032 1.915.101 3.833.25 5.741.121 1.549.344 3.093.595 4.625.211 1.282.452 2.557.694 3.833.139.73.277 1.46.409 2.192.09.497.161 1.001.232 1.504.144 1.028.289 2.056.596 3.02.591 1.856 1.267 3.678 1.942 5.501.389 1.048.777 2.096 1.15 3.15.162.459.351.909.541 1.359.576 1.366 1.152 2.734.966 4.366-.031.271.164.588.346.883.049.081.098.16.14.235.851 1.509 2.241 1.594 3.572 1.675.146.009.291.018.435.028.832.062 1.259.44 1.509 1.176.37 1.086.724 2.177 1.079 3.269.325 1.001.649 2.002.986 2.998.291.861.595 1.716.899 2.571.348.978.696 1.957 1.024 2.944.326.982.757 1.104 1.547.545.957-.678 1.924-1.336 2.892-1.994l.002-.002c1.151-.783 2.302-1.566 3.434-2.38.288-.207.543-.878.463-1.239-.331-1.488-.717-2.96-1.103-4.433l-.001-.002v-.001c-.156-.593-.311-1.187-.463-1.781-.086-.338-.192-.676-.297-1.014-.249-.802-.499-1.605-.499-2.407 0-.939.632-1.181 1.282-1.431.437-.168.883-.339 1.153-.726.119-.172.336-.257.556-.344.121-.047.241-.094.348-.156 1.948-1.136 3.647-2.472 3.956-5.193.159-1.402.494-2.769.829-4.136.51-2.08 1.02-4.161.913-6.37-.008-.173.262-.507.421-.522 1.393-.13 2.791-.258 4.188-.283 1.021-.018 2.042-.01 3.063-.001h.002c1.39.012 2.78.023 4.168-.033.695-.028 1.394.004 2.093.035 1.619.073 3.241.147 4.828-.522.363-.152 1.238-.447 1.082.737-.136 1.026-.265 2.053-.395 3.081v.001c-.264 2.1-.529 4.201-.847 6.291-.333 2.181-.723 4.352-1.114 6.522v.001l-.003.016c-.16.888-.32 1.776-.476 2.665-.129.737-.261 1.473-.393 2.21-.236 1.319-.472 2.638-.693 3.961l-.067.399c-.324 1.937-.648 3.875-.909 5.822-.442 3.301-.843 6.61-1.226 9.92-.055.476-.07.96-.085 1.443-.022.717-.044 1.431-.197 2.112-.731 3.262-1.037 6.552-.962 9.905.028 1.298.022 2.596.015 3.895-.004.88-.008 1.761-.002 2.641.003.402-.014.812-.031 1.223-.042 1.028-.085 2.061.184 2.978.87 2.961 3.094 4.484 5.674 5.178 2.177.585 4.409.898 6.699.624 1.807-.216 3.353-.976 4.287-2.586 1.457-2.512 2.793-5.142 3.909-7.86 1.831-4.463 3.517-9.004 5.123-13.572.703-1.999 1.297-4.044 1.891-6.089l.004-.015c.312-1.072.623-2.144.95-3.21.325-1.06.662-2.117.999-3.174l.001-.001c.559-1.755 1.119-3.509 1.626-5.282.669-2.333 1.238-4.705 1.774-7.081.752-3.338 1.451-6.691 2.134-10.048.053-.261.115-.525.176-.792.226-.974.457-1.971.308-2.876-.157-.956.163-1.153.672-1.399.177-.086.355-.169.534-.253 1.487-.695 2.97-1.389 3.618-3.288.083-.243.167-.485.251-.727l.001-.002c.311-.894.621-1.789.866-2.705.113-.425.231-.85.348-1.276.443-1.601.887-3.208 1.116-4.848.405-2.901.622-5.844.754-8.779.173-3.876.22-7.761.251-11.643.009-1.063-.057-2.126-.123-3.19-.04-.639-.079-1.279-.103-1.918-.056-1.539-.103-3.078-.149-4.618v-.004c-.095-3.151-.19-6.302-.372-9.447-.181-3.128-.494-6.263-.985-9.349-.703-4.413-1.737-8.756-3.654-12.742-.171-.357-.343-.715-.515-1.072-1.724-3.593-3.452-7.194-5.419-10.62-1.288-2.242-2.947-4.315-4.749-6.071-.547-.533-1.125-1.029-1.703-1.526-1.145-.983-2.291-1.968-3.206-3.247-.177-.246-.286-.61-.29-.922-.001-.126.356-.359.559-.373 2.327-.164 4.115-1.573 5.619-3.313 2.68-3.098 4.458-6.759 5.343-11.015.048-.23.097-.459.145-.688v-.002c.553-2.614 1.097-5.188.537-7.879-.931-4.469-2.876-8.405-5.748-11.633-4.425-4.973-9.857-6.456-15.979-4.949-.249.062-.532.027-.787-.033-.239-.056-.477-.136-.714-.216-.431-.145-.86-.289-1.291-.29-1.56-.004-3.141.008-4.674.283-1.291.232-2.551.705-3.8 1.173h-.001c-.157.059-.314.118-.47.176-.234.087-.417.339-.601.592-.084.116-.168.233-.258.333.125.042.252.1.378.158.278.127.555.254.816.22.61-.078 1.214-.219 1.818-.36.377-.088.753-.176 1.132-.249.166-.032.342.002.519.035.081.016.162.031.242.04-.06.088-.114.186-.168.285-.118.213-.235.427-.407.533-.416.259-.849.49-1.281.721-.7.374-1.398.747-2.024 1.236-.223.174-.452.341-.683.509-1.023.746-2.064 1.504-2.549 2.878-.054.152-.05.329-.046.506.002.082.003.164-.001.244.072-.011.147-.015.223-.018.164-.008.327-.016.449-.099zm26.488 37.925c-1.986 2.763-3.799 5.667-4.797 9.086-2.452 5.021-3.282 10.258-2.918 15.718.121 1.816.364 3.622.606 5.428v.003c.121.898.242 1.797.347 2.697.069.586.13 1.172.192 1.758v.001c.097.927.194 1.855.32 2.777.03.218.172.417.313.616.066.092.131.184.185.277.075-.116.168-.232.262-.348.205-.253.41-.506.411-.761.005-1.228-.106-2.463-.245-3.685-.081-.708-.186-1.414-.291-2.119-.156-1.044-.311-2.088-.387-3.14-.169-2.36-.236-4.733-.255-7.101-.03-3.748.859-7.284 2.2-10.691.123-.312.245-.626.367-.94v-.001c.552-1.422 1.106-2.846 1.778-4.194.745-1.492 1.652-2.897 2.591-4.252.859-1.237 1.396-1.253 2.264-.028.131.184.262.368.393.553 1.539 2.165 3.071 4.32 4.177 6.864.851 1.96 1.82 3.856 2.79 5.752l.001.002c.888 1.738 1.777 3.476 2.575 5.264.612 1.369.922 2.917 1.229 4.447.067.339.135.677.206 1.012.492 2.327.898 4.679 1.29 7.031.077.456.157.912.238 1.368v.002c.287 1.62.575 3.243.659 4.877.125 2.404.16 4.814.196 7.224v.006c.023 1.545.046 3.09.093 4.635.045 1.513.122 3.027.198 4.54v.001c.14 2.769.28 5.537.23 8.302-.038 2.101-.244 4.198-.451 6.296-.184 1.88-.369 3.76-.433 5.645-.097 2.847-.823 5.51-1.547 8.168-.275 1.011-.551 2.022-.791 3.041-.344 1.457-1.287 2.868-2.966 3.513-1.098.422-2.138 1.028-3.178 1.635l-.001.001c-1.01.589-2.021 1.178-3.085 1.599-1.417.559-2.936.812-4.449 1.063-.442.074-.883.147-1.32.228-.69.127-1.466.205-2.114-.015-1.955-.663-2.223-1.089-2.16-3.343.127-4.6.292-9.199.489-13.796.063-1.462.164-2.921.264-4.38.076-1.097.151-2.194.211-3.292.019-.342.038-.683.058-1.025v-.002c.098-1.707.195-3.417.166-5.122-.031-1.743-.249-3.489-.478-5.218-.221-1.667.38-2.162 1.921-1.876 3.392.629 6.727.279 9.734-1.702 1.9-1.252 2.638-3.523 3.026-5.772.196-1.132.249-2.293.302-3.455.05-1.09.099-2.18.267-3.246.727-4.635.737-9.294.693-13.963-.012-1.279-.12-2.561-.255-3.833-.026-.244-.171-.473-.317-.703-.066-.105-.133-.21-.188-.316-.073.102-.16.201-.248.301-.193.22-.387.44-.421.687-.084.611-.063 1.242-.042 1.87v.001.003c.005.145.01.29.014.435.023.957.062 1.915.102 2.872.085 2.093.171 4.185.092 6.27-.055 1.463-.286 2.915-.517 4.37-.148.934-.297 1.869-.399 2.808-.084.775-.11 1.559-.135 2.342-.027.817-.053 1.634-.146 2.441-.276 2.387-1.014 4.688-2.967 5.903-1.253.781-2.844 1.189-4.293 1.22-1.825.04-3.653-.123-5.481-.285-.775-.069-1.55-.138-2.325-.192-.434-.03-.869-.05-1.304-.07h-.002c-.923-.043-1.846-.085-2.758-.222-1.73-.26-3.454-.573-5.178-.887-.843-.153-1.686-.306-2.53-.454-.436-.076-.872-.159-1.308-.242l-.007-.001c-1.174-.224-2.349-.448-3.531-.535-1.048-.076-1.001-.749-.89-1.439.07-.435.195-.862.32-1.287.148-.503.295-1.005.351-1.521.134-1.241-.151-2.391-1.19-3.15-.72-.526-.741-.676.089-1.06.836-.387 1.745-.783 2.629-.805 3.594-.09 7.196-.172 10.785.008 1.95.098 3.89.437 5.829.775.577.101 1.154.202 1.731.296.19.031.356.217.525.406.099.111.2.224.308.307.174.136.447.34.573.273.167-.088.336-.415.327-.631-.062-1.638-.134-3.278-.273-4.91-.04-.462-.124-.92-.209-1.378-.095-.513-.19-1.026-.221-1.544-.087-1.47-.135-2.942-.183-4.414v-.005c-.025-.758-.05-1.517-.08-2.275-.024-.602-.066-1.205-.108-1.808-.088-1.269-.176-2.538-.096-3.794.115-1.793.377-3.576.639-5.357.096-.655.192-1.31.281-1.966.035-.259.066-.52.098-.781v-.001c.102-.852.205-1.707.44-2.511.443-1.518 1.171-2.929 2.797-3.098.483-.05.978.071 1.476.193.286.07.574.14.86.178.325.043.654.04.984.037.148-.001.296-.002.444.001-.101-.149-.194-.323-.286-.498-.2-.379-.4-.757-.685-.87-2.439-.964-4.868-.788-6.077 2.409-.657 1.739-1.22 3.587-1.456 5.443-.067.524-.137 1.048-.207 1.572-.397 2.967-.795 5.944-.581 8.975.137 1.941.256 3.883.374 5.826.121 1.984.242 3.968.383 5.95.043.614.151 1.221.259 1.829.072.405.144.81.197 1.218.01.078-.297.32-.41.288-.473-.136-.943-.309-1.413-.483-.92-.339-1.839-.678-2.772-.732-4.208-.244-8.431-.352-12.643-.258-1.291.029-1.401-.285-1.407-1.526-.029-5.252 1.187-10.2 2.778-15.072.017-.052.058-.103.097-.152.049-.06.094-.116.085-.165-.062-.337-.144-.67-.226-1.002-.029-.117-.058-.233-.086-.349-.073.099-.157.195-.24.29-.181.207-.361.414-.437.66-.191.624-.39 1.246-.59 1.868-.592 1.841-1.184 3.684-1.548 5.58-.378 1.976-.571 3.996-.763 6.016v.002c-.084.881-.168 1.763-.268 2.64-.015.133-.008.284-.002.436.02.49.04.99-.65.905-.236-.028-.597-.971-.54-1.439.08-.65.157-1.302.233-1.953.337-2.861.674-5.725 1.251-8.527.637-3.093 1.497-6.132 2.355-9.167l.003-.013c.188-.665.376-1.33.562-1.995.158-.565.465-1.081.77-1.595h.001v-.001c.12-.202.24-.403.351-.608.497-.916 1.002-1.826 1.508-2.736l.29-.521c.17-.306.343-.609.517-.913.08-.139.159-.277.238-.417.075.143.16.283.245.424.187.309.375.617.448.957.105.484.169.981.232 1.478.079.615.158 1.229.315 1.819.157.588.612 1.425 1.024 1.496.542.094 1.398-.27 1.73-.761 2.062-3.052 4.066-6.152 6.07-9.252.53-.82 1.06-1.64 1.591-2.459.132-.205.275-.426.326-.663.028-.134-.006-.284-.04-.435-.015-.066-.031-.133-.04-.198-.054.024-.113.042-.172.061-.128.04-.256.081-.325.174l-.187.256c-.979 1.335-1.958 2.671-2.894 4.043-1.068 1.562-2.12 3.138-3.172 4.714-.548.821-1.096 1.642-1.646 2.461-.045.066-.101.124-.157.182-.065.066-.129.132-.176.211-.115.195-.216.399-.317.604-.042.085-.084.17-.127.255-.057-.131-.129-.262-.201-.393-.157-.286-.314-.571-.313-.856.005-1.634-.254-3.179-1.019-4.579-.051-.093-.097-.198-.145-.304-.215-.484-.447-1.007-1.18-.657-.033.016-.332-.431-.367-.686-.217-1.556.327-2.435 1.553-3.364 1.771-1.341 3.542-2.727 5.118-4.33 1.299-1.321 2.502-2.759 3.705-4.197.558-.668 1.116-1.336 1.685-1.992.055-.063.105-.131.152-.195.236-.322.407-.554.865.24.465.807 1.17 1.445 1.875 2.082.303.274.606.548.89.836l.009.009c.464.471.796.807.212 1.619zm-51.836 95.737.202-.049c.408.124.858.325.955.654.86 2.911 1.675 5.838 2.491 8.764l.273.979c.098.351.197.701.296 1.052.377 1.336.755 2.672 1.069 4.027.219.944.151 1.742-.795 2.442-.989.733-1.896 1.601-2.804 2.47-.495.473-.99.947-1.499 1.399-.602.535-.789-.096-.905-.486-.013-.046-.026-.088-.038-.125-.545-1.655-1.022-3.34-1.489-5.025-.077-.275-.185-.585-.295-.901-.294-.843-.601-1.725-.346-2.062.54-.713 1.366-1.16 2.191-1.606.329-.178.658-.355.968-.55.072-.045.152-.078.231-.11.1-.04.199-.081.283-.146.208-.163.403-.343.599-.523.081-.075.162-.15.244-.223-.14-.063-.292-.154-.444-.246-.331-.2-.662-.4-.876-.297-1.04.498-2.074 1.113-2.951 1.902-.716.646-1.032.582-1.326-.308l-.118-.356c-.845-2.556-1.689-5.113-2.511-7.678-.032-.102.163-.348.299-.454 1.894-1.473 4.095-2.009 6.296-2.544zm3.898 5.174c-.036-.262-.073-.527-.263-.594-.192-.765-.395-1.425-.587-2.05-.123-.402-.242-.789-.35-1.18-.375-1.349-.049-1.87 1.211-1.793 1.265.078 2.529.196 3.793.314.784.074 1.568.147 2.353.211.738.06.513.456.282.864l-.002.004c-1.2 2.116-3.099 3.193-4.99 4.267-.233.132-.465.264-.696.398-.64.371-.695-.032-.751-.441zm-13.64 2.024c-.568-.825-.848-1.515-.11-2.345.825-.645 1.518-1.173 2.239-1.647.114-.075.275-.063.435-.052.074.006.148.011.217.008-.016.059-.039.119-.062.179-.049.129-.099.259-.082.377.037.258.069.519.101.78.096.79.193 1.583.435 2.315.293.887.05 1.157-.652 1.16-.143.001-.287.008-.431.015-.751.037-1.496.073-2.09-.79z" fill-rule="evenodd"/><path d="m215.124 373.141c.252-.01.506-.02.761-.03.984-.113 1.906-.184 2.829-.198 1.095-.016 1.992-.456 2.367-1.623 1.104-3.442 2.158-6.903 3.185-10.374.045-.153.129-.308.214-.466.242-.448.497-.919-.087-1.432-.114.174-.238.342-.363.511-.273.369-.546.737-.707 1.159-.71 1.85-1.399 3.718-1.954 5.63-.297 1.026-.936 1.319-1.7 1.395-1.554.156-3.119.31-4.676.272-5.202-.129-10.405-.289-15.603-.552-2.031-.103-3.445-2.081-3.011-4.291.124-.633.78-1.28 1.34-1.598.175-.099.558.238.921.557.134.118.265.233.383.323.128.099.244.216.36.333.119.12.239.24.37.34.412.313.715.257.742-.379.039-.921-1.411-2.576-2.257-2.614-2.324-.102-3.089 1.637-3.365 3.707-.277 2.079 1.851 4.805 4.352 5.005 1.516.122 3.035.226 4.555.271 3.846.113 7.692.226 11.539.262.996.009 1.992-.058 2.989-.126h.003l.014-.001c.639-.043 1.278-.087 1.917-.109.132-.005.267.109.402.223.063.052.125.105.188.146-.166.214-.323.466-.479.719-.346.559-.693 1.118-1.145 1.259-1.024.319-2.136.328-3.234.337-.229.002-.459.004-.686.009-2.124.044-4.251.082-6.372-.008-.304-.013-.609-.024-.914-.036-1.964-.076-3.94-.152-5.86-.538-2.646-.532-5.266-1.229-7.886-1.925l-.004-.001-.003-.001-.004-.001c-.952-.253-1.904-.506-2.857-.752-.045-.011-.09-.022-.135-.034-.951-.242-2.019-.514-2.233-1.705-.168-.937.436-1.498 1.029-2.049.197-.183.394-.366.56-.561.01-.012.033-.008.056-.004s.047.008.063-.001c.273-.146.547-.29.821-.435h.001l.001-.001c.886-.468 1.773-.936 2.644-1.436.177-.102.312-.293.448-.484.062-.087.125-.175.191-.255-.088-.04-.182-.098-.276-.157-.202-.126-.404-.251-.553-.198l-.172.062c-1.922.689-3.876 1.39-5.218 3.197-1.421 1.914-.976 4.186.943 4.862 1.376.485 2.771.904 4.165 1.324l.003.001h.001.001c.953.287 1.905.573 2.852.881 3.48 1.13 7.051 1.282 10.62 1.435 1.12.048 2.239.095 3.355.173 1.504.105 3.018.045 4.569-.018z"/><path d="m183.516 309.113c-.611.649-1.225 1.282-1.836 1.911-1.383 1.423-2.745 2.825-3.982 4.351-1.444 1.783-2.665 3.816-3.804 5.863-.338.608-.421 1.397-.503 2.176-.028.271-.056.54-.095.8-.021.14.07.3.16.46.042.073.084.147.115.219.046-.061.098-.12.151-.179.114-.127.228-.255.281-.408.102-.298.182-.61.262-.921.141-.55.282-1.097.545-1.561.146-.257.291-.518.436-.78.778-1.396 1.567-2.814 2.605-3.927 2.811-3.013 5.718-5.915 8.625-8.818l.007-.007.004-.004.002-.002.008-.008c.817-.815 1.634-1.631 2.448-2.449.159-.159.383-.236.608-.313.104-.036.208-.072.306-.116-.026.137-.039.288-.051.439-.028.328-.056.656-.217.835-1.28 1.423-2.583 2.832-3.968 4.127-2.905 2.718-5.705 5.516-7.963 8.964-1.214 1.854-2.089 3.819-2.748 5.961-.438 1.424-.008 2.7.412 3.946l.001.004.001.003c.02.057.039.115.058.172.287.855 2.075 1.146 3.284.711 3.1-1.112 5.745-3.135 8.096-5.521 3.097-3.144 6.093-6.439 8.897-9.903 1.327-1.64 2.409-3.53 3.487-5.414.316-.551.631-1.102.952-1.646.177-.3.227-.688.277-1.08.033-.261.067-.524.138-.765.049-.163.194-.289.339-.416.066-.058.132-.116.189-.177.046.075.101.148.156.221.12.158.24.317.263.491.207 1.541-.224 2.911-1.043 4.137-2.278 3.408-4.618 6.749-7.433 9.66-.932.963-1.797 2.006-2.661 3.05-.638.769-1.276 1.539-1.942 2.278-2.863 3.177-6.35 5.232-10.173 6.548-1.789.616-3.506-.673-4.211-2.725-.167-.484-.392-.943-.616-1.403-.211-.43-.422-.86-.585-1.311-1.145-3.171-.313-5.863 1.408-8.567 2.743-4.311 6.32-7.621 9.91-10.943l.142-.132c.222-.205.543-.318.833-.376.181-.035.478.053.563.2.076.133 0 .51-.124.624-.404.371-.824.722-1.262 1.087l-.001.001h-.001c-.244.204-.494.413-.75.633z"/><path clip-rule="evenodd" d="m222.808 359.336c.666-2.599 1.312-5.205 1.966-7.943.801-2.169 1.12-4.31 1.259-6.511.008-.115.031-.236.054-.352.07-.359.133-.683-.305-.698-.327-.011-.842.569-.97.995-.105.349-.126.73-.147 1.111-.023.414-.045.827-.177 1.195-.211.592-.685 1.233-1.193 1.5-1.804.946-3.589.565-5.245-.531-.309-.204-.645-.806-.593-1.154.087-.579.234-1.146.38-1.714.148-.571.296-1.143.382-1.725.043-.287-.115-.612-.273-.936-.072-.148-.144-.295-.197-.44-.086.103-.185.201-.285.298-.219.215-.438.43-.509.694-.143.53-.231 1.077-.318 1.625-.075.464-.149.928-.257 1.382-.17.715-.352 1.426-.534 2.138v.001c-.66 2.575-1.319 5.149-1.386 7.871-.025 1.015-1.377 2.165-2.328 2.022-.176-.027-.469-.722-.407-.797.233-.276.5-.516.768-.755.188-.168.376-.337.552-.518.192-.197.355-.476.416-.75.019-.082-.335-.354-.542-.398-1.277-.267-3.171 2.049-2.818 3.432.201.787.423 1.568.644 2.349l.053.189c.07.247.15.491.231.734.036.112.073.223.109.334.067-.106.139-.209.212-.312.157-.224.315-.449.417-.701.541-1.333 2.555-2.189 3.403-1.265 1.557 1.693 3.463 1.661 5.333 1.422.88-.112 1.98-.522 2.305-1.792zm-7.279-2.084c.021-.139.041-.279.049-.413.45-2.159.796-4.179 1.095-6.207.153-1.032.522-1.201 1.422-.844 1.562.619 3.162 1.238 4.875.539.166-.068.382.012.597.092.1.037.199.074.294.096-.017.09-.034.18-.05.27-.036.193-.071.387-.116.578-.148.62-.299 1.239-.45 1.858-.318 1.296-.635 2.592-.912 3.898-.346 1.628-1.326 2.739-2.8 2.988-1.203.204-3.616-.945-4.004-1.999-.09-.245-.045-.55 0-.856z" fill-rule="evenodd"/><path d="m235.911 306.156v-.001l.001-.003c.476-1.242.946-2.471 1.438-3.688.14-.347.451-.618.747-.876.061-.054.121-.106.179-.159.097-.088.413-.068.474.026.106.163.183.469.114.634-1.25 3.003-2.504 6.003-3.802 8.981-.428.983-1.189 1.489-2.212 1.378-.418-.045-.837-.088-1.255-.131l-.002-.001h-.006c-1.224-.126-2.449-.252-3.667-.437-.503-.076-1.02-.368-1.435-.706-.21-.171-.344-.456-.479-.74-.06-.127-.12-.254-.187-.371.141 0 .291-.018.441-.036.324-.04.649-.079.884.063 1.942 1.173 4.045 1.114 6.106.911.356-.036.673-.559 1.008-1.112.163-.269.33-.545.508-.775.394-.996.771-1.981 1.145-2.957z"/><path d="m173.396 259.338c.286 1.863.575 3.726.924 5.657.136.612.246 1.22.355 1.819.17.937.336 1.855.59 2.742.549 1.914 1.253 3.775 1.965 5.624.082.211.341.338.601.465.12.059.24.117.343.184.001-.131.012-.267.023-.403.024-.3.049-.601-.037-.855-.109-.319-.268-.622-.427-.923-.211-.399-.42-.796-.507-1.226-.502-2.461-.978-4.928-1.455-7.396-.424-2.197-.849-4.395-1.291-6.588-.064-.318-.282-.599-.499-.879-.101-.13-.202-.26-.288-.394-.041.126-.086.252-.132.378-.106.296-.213.592-.267.9-.035.203.01.426.055.646.017.083.034.167.047.249z"/><path d="m227.962 299.377c-.488-.224-.852-.447-1.217-.67.11-.045.222-.104.333-.164.242-.128.484-.257.71-.23.724.086 1.446.206 2.167.325h.001c1.09.181 2.179.361 3.275.427 1.243.075 2.491.046 3.74.017h.005c.818-.02 1.636-.039 2.453-.029.29.004.579.137.868.27.133.061.266.122.399.171-.096.074-.191.167-.286.261-.205.201-.411.403-.62.408l-.505.011h-.002c-2.287.053-4.578.105-6.86-.016-.955-.051-1.903-.254-2.886-.465l-.001-.001c-.513-.11-1.036-.222-1.574-.315z"/><path d="m205.806 247.146c-.211-.018-.427-.036-.65-.058-.113 0-.212.001-.302.002-.166.001-.299.002-.432-.002-.662-.023-1.325-.046-1.987-.069h-.003c-1.994-.069-3.987-.137-5.982-.19-.249-.006-.53.12-.746.273-.162.114-.294.278-.426.442-.058.072-.116.144-.176.211.086.045.172.101.258.157.184.122.369.243.556.248 3.88.117 7.76.205 11.641.277.178.003.357-.083.537-.168.083-.04.167-.08.25-.111-.063-.083-.122-.185-.182-.286-.129-.221-.259-.443-.422-.478-.617-.136-1.248-.189-1.934-.248z"/><path d="m217.323 327.466.001-.008c.269-2.363.53-4.647.863-6.917.045-.306.299-.574.553-.841.118-.124.235-.248.332-.375.033.143.081.29.128.437.104.316.207.632.155.913-.797 4.351-1.288 8.73-1.224 13.18.003.208-.138.42-.28.631-.065.098-.131.196-.182.294-.078-.126-.177-.253-.275-.379-.214-.276-.429-.551-.43-.828-.007-1.084.058-2.168.125-3.299.029-.485.058-.979.083-1.485.051-.444.101-.885.151-1.323z"/><path d="m243.917 286.394c-.058.347-.118.702-.2 1.068-.032.224-.035.431-.038.628-.003.182-.006.355-.031.525-.104.704-.217 1.407-.33 2.11v.002c-.227 1.406-.453 2.812-.606 4.229-.012.116-.038.246-.065.382-.116.59-.253 1.291.561 1.499.1.025.549-1.167.675-1.831.366-1.925.663-3.865.96-5.805.201-1.317.389-2.639.499-3.968.015-.176-.152-.371-.318-.567-.077-.09-.154-.18-.213-.268-.069.076-.15.147-.232.218-.178.157-.357.314-.409.512-.108.409-.179.83-.253 1.266z"/><path d="m192.834 303.394c2.062-1.313 4.193-1.297 6.325-.709.392.108.733.445 1.074.781.157.155.313.31.475.442-.181.011-.364.035-.548.06-.398.054-.797.107-1.165.014-2.498-.636-4.746-.073-6.837 1.508-.187.141-.411.223-.634.304-.104.037-.207.075-.307.119-.034-.097-.083-.213-.133-.329-.106-.251-.213-.503-.16-.554.4-.395.833-.749 1.29-1.123l.001-.001.001-.001c.202-.165.408-.334.618-.511z"/><path d="m221.319 167.296h-.001c-.053.022-.107.044-.161.067-.555.217-1.099.413-1.634.606-.638.23-1.265.456-1.882.708-.247.101-.457.316-.667.531-.097.098-.193.197-.293.284.115.056.237.135.359.215.264.171.528.343.719.272 1.819-.674 3.609-1.447 5.397-2.218l.12-.052c.134-.058.284-.494.255-.519-.019-.018-.04-.036-.061-.055v-.001c-.193-.175-.428-.388-.615-.356-.503.089-.99.291-1.527.514z"/><path d="m208.16 360.584c-.083-.137-.167-.268-.248-.395-.256-.405-.492-.776-.655-1.184-.143-.355-.258-1.042-.115-1.154.315-.248.897-.438 1.201-.272.887.486 1.689 4.304 1.123 5.173-.086.132-.79.03-.839-.116-.125-.374-.201-.767-.281-1.179-.054-.283-.111-.574-.186-.873z"/><path d="m204.159 360.646c.167.342.341.698.507 1.095.019.121.035.236.051.345.048.349.09.643.21.889.122.247.305.457.488.667.08.092.16.183.234.278.077-.099.168-.193.259-.288.199-.208.397-.415.447-.66.219-1.077-.684-3.62-1.702-4.328-.168-.116-.435-.056-.702.004-.123.027-.246.055-.36.065.014.107.02.216.027.326.014.242.029.484.114.689.129.308.275.608.427.918z"/><path d="m202.949 362.286c-.153.726-.306 1.316-.459 1.906-.085-.161-.167-.325-.249-.488-.184-.364-.367-.729-.582-1.068-.052-.082-.104-.164-.156-.246-.437-.692-.878-1.389-1.402-1.991l-.014-.016c-.392-.449-.448-.513.062-.847.968-.635 1.568.02 2.047.789.272.437.436.958.618 1.537.044.138.088.28.135.424z"/><path d="m226.707 303.408.028-.219c-.038-.813-.077-1.491-.115-2.169v-.001c-.741.16-.813.73-.894 1.464-.08.732-.224 1.455-.367 2.178-.113.569-.226 1.138-.308 1.712-.025.17.357.504.602.597.146.055.538-.176.568-.337.197-1.029.334-2.072.486-3.225z"/><path d="m218.459 155.244c-.078-.075-.154-.138-.223-.195-.118-.097-.219-.18-.286-.288-.135-.218-.246-.454-.357-.691-.046-.098-.093-.197-.141-.295.103-.01.219-.037.335-.064.251-.059.502-.118.621-.005.911.866 1.784 1.79 2.584 2.781.102.126.018.438-.066.75-.038.144-.077.288-.098.414-.071-.056-.145-.11-.219-.164-.163-.118-.326-.236-.464-.382-.393-.415-.775-.843-1.179-1.295-.165-.185-.333-.373-.507-.566z"/><path d="m216.086 157.069c-.145.218-.295.442-.447.626-.026.138-.064.281-.101.425-.168.649-.34 1.309.44 1.508 1.021.259 1.249-.741 1.438-1.608.004-.02.002-.042 0-.064-.002-.025-.004-.049.003-.07.248-.732.268-1.582-.507-1.665-.243-.026-.525.396-.826.848z"/><path d="m223.798 164.434-.023.026c-.442.525-.843 1.002-1.478.475-.275-.228-.721-.664-.666-.837.173-.533.481-1.082.876-1.429.194-.171.859-.051 1.021.183.22.321.262.794.304 1.276.007.08.014.16.022.239-.019.022-.038.045-.056.067z"/><path d="m231.64 168.475c-.205-.303-.409-.605-.736-.908-.408.4-.695.8-.981 1.2.071.045.145.107.22.168.166.136.331.272.445.232.269-.095.512-.282.754-.47.099-.076.197-.152.298-.222z"/></g></svg>