<svg fill="none" height="294" viewBox="0 0 334 294" width="334" xmlns="http://www.w3.org/2000/svg"><path clip-rule="evenodd" d="m192.064 293.558c39.788 0 74.704-32.542 55.095-76.742-19.609-44.199 53.251-42.772 74.653-73.32 26.101-37.254 18.542-195.3935-149.016-98.984-26.84 15.4437-95.7736-15.8879-118.639-.3418-26.9149 18.2994-64.7825 55.7707-26.9149 94.1548 18.6529 18.907-48.222 67.981-18.93211 111.939 28.57961 42.892 48.61341 2.004 92.12501 10.752 43.512 8.749 62.08 32.542 91.629 32.542z" fill="#38957f" fill-rule="evenodd"/><path d="m145.883 216.663s9.161-4.739 12.581-8.035c3.42-3.297 7.672-11.487 7.672-11.487s46.706 37.088 77.16 31.797c7.017-1.218 20.689-6.347 21.561-15.382 2.381-24.673-30.559-30.978-23.364-43.49 4.392-7.637 18.036 3.73 18.036 3.73l56.591 30.605s-19.55 52.989-66.995 55.113c-58.364 2.612-103.242-42.851-103.242-42.851z" fill="#fff"/><path clip-rule="evenodd" d="m101.016 9.14723c-.532-.22928-3.384-4.06959-7.0053-4.76854-1.6457-.31762-.1521 1.9863-1.9632 2.00703-5.3939.06175-14.1595-1.05247-15.7834 0-1.2068.77972 1.4511 3.50367 0 3.62868-13.6902 1.1799-34.5757 16.2095-39.107 23.501-1.4421 2.3205 10.221-1.6165 8.3628-.4693-2.0857 1.2876-4.3989 9.7185-5.7819 16.23-.9575 4.484-1.5604 10.2548-1.7731 16.5324-.1774 5.4197-.1064 6.3165.6028 9.2799.8157 3.3142 1.454 4.289 2.5533 3.8211.3901-.1559.5674-.7408.5674-1.8326 0-.8578.4255-3.4312.9575-5.7317l.922-4.1331.3901 1.7157c.4965 1.9885 3.4044 8.1491 6.0286 12.6331.1415.238.7504-.0647 1.2995-1.524.5004-1.3298.2973-3.4543 1.1474-5.7311 1.9362-5.1865 5.7381-11.9297 10.1404-17.3275 6.5061-7.9774 8.6647-17.2097 14.7636-24.6207 11.3816-13.8305 25.6665-22.3521 23.6785-23.21037z" fill="#fff" fill-rule="evenodd"/><path clip-rule="evenodd" d="m45.6817 34.9274c-1.8258 1.6142-4.5359 14.7079-4.5824 14.9268-.9575 4.484-1.8805 20.0553-.937 23.0034.9434 2.948 3.5851-7.6791 3.5851-7.6791s3.993 11.4001 7.5211 14.5258c.1507.1335-4.1937-14.1044-5.5868-22.4162-1.839-10.972 1.0391-23.2794 0-22.3607z" fill="#e7eaee" fill-rule="evenodd"/><path clip-rule="evenodd" d="m113.733 264.244c3.404-.819 9.148-3.67 11.348-4.645 2.199-.975 8.901-11.381 11.312-23.117 1.738-8.656 2.624-20.977 1.632-23.044-.147-.293-.684-5.896.744-4.066 3.174 4.066 6.942 10.45 18.83-.989 3.238-3.116 7.53-7.137 6.4-10.693-3.162-9.946-16.867-29.975-18.956-31.492-2.499-1.814-15.125-.273-33.916-6.371-21.3109-6.916-30.1845-27.281-38.524-24.63-6.7442 2.144-22.9027 15.319-26.958 23.662-19.145 39.388 4.0553 66.987 9.3389 74.914l5.13 2.436.1773 5.03.2482 3.158c.461 6.044.6383 6.59 3.1207 8.617 6.2059 5.186 18.4404 10.021 29.5046 11.737 5.1421.78 16.3123.507 20.5683-.507z" fill="#fff" fill-rule="evenodd"/><path clip-rule="evenodd" d="m62.1311 239.398.2482 3.158c.4611 6.044.6384 6.589 3.1207 8.617 3.6611 3.059 9.4202 5.996 15.7994 8.243 4.4343 1.562 9.1682 2.79 13.7053 3.493 5.1423.78 16.3123.507 20.5683-.507 2.103-.501-15.199-15.446-25.3913-11.229-7.8275 3.239-26.2766-21.465-18.7755-27.918 8.4147-7.24-7.0047-35.795-7.5011-41.994-.4965-6.2-2.4517-7.681-2.5087-7.464-.0571.218-.0571.96.0964 2.747.6616 7.703.6383 62.854.6383 62.854z" fill="#e7eaee" fill-rule="evenodd"/><path clip-rule="evenodd" d="m60.285 179.491c.7445-.159 1.4655.375 1.6105 1.194 2.6764 15.118 13.9974 25.354 34.2412 30.706 20.3643 5.384 34.2353 5.094 41.5433-.653.617-.486.157 3.669-.294 3.988-4.767 3.361-20.974 8.376-40.3153 3.843-24.7291-5.796-36.3403-28.659-37.8713-37.307-.1449-.819.3411-1.612 1.0856-1.771z" fill="#1bae8a" fill-rule="evenodd"/><path clip-rule="evenodd" d="m49.9728 152.213c.6583-.414 25.22 30.537 58.9272 37.543 33.707 7.006 41.868 2.55 43.179-7.006.114-.825.813-1.392 1.563-1.268.75.125 1.267.894 1.153 1.719-1.662 12.111-17.259 14.991-46.357 9.532-28.7331-5.391-48.4324-18.2-58.9752-38.459-.3767-.724-.1483-1.647.51-2.061z" fill="#1bae8a" fill-rule="evenodd"/><path clip-rule="evenodd" d="m191.446 150.497c-.922-.351-1.915-1.131-2.553-2.027l-1.064-1.443 3.759-4.094c5.78-6.239 10.213-12.633 14.043-20.237 1.276-2.534 4.503-10.995 4.503-11.814 0-.273.391-1.365.852-2.495.709-1.638 1.241-2.262 2.766-3.198 1.808-1.169 3.865-1.559 4.752-.896 1.702 1.247 1.702 5.185 0 11.97-1.88 7.447-4.398 12.789-9.611 20.47-.815 1.17-2.34 3.471-3.44 5.069-2.943 4.289-4.858 6.356-7.447 7.954-2.553 1.56-4.042 1.755-6.56.741zm25.462-3.509 2.553 1.248c.53.268 6.37 3.354 13.386 7.06 11.311 5.976 25.677 13.566 25.765 13.566.141 0 .807-1.692.957-3.665.355-4.25 1.667-10.021 3.192-14.037.709-1.794 1.276-4.035 1.276-4.23 0-.089-.576-.345-1.52-.763-1.124-.499-2.768-1.228-4.579-2.181-8.937-4.718-26.42-14.349-28.583-15.792-2.127-1.365-2.553-1.482-2.553-.585 0 1.17-2.163 6.59-3.83 9.514-.887 1.599-2.624 4.484-3.865 6.395zm41.101 14.856c1.017.648-.745 1.598-1.17 1.754-2.506.234-5.456-.284-7.873-1.832-1.264-.986-11.214-7.064-17.815-11.096-3.018-1.844-5.335-3.259-5.803-3.565-1.489-.975-2.908-2.028-3.156-2.34-.745-1.052-.035-1.52 2.057-1.325 1.258.117 31.564 17.004 33.76 18.404zm-144.155 102.079c2.736-.658 6.982-2.629 9.686-3.883.661-.307 1.23-.571 1.662-.763 2.2-.975 8.901-11.38 11.313-23.116 1.737-8.656 2.624-20.977 1.631-23.044-.599-1.197 2.958 2.818 5.607 5.808.803.907 1.522 1.719 2.017 2.263 15.462 16.884 38.477 30.453 62.378 36.808 11.916 3.197 20.391 4.328 31.775 4.328 19.114 0 34.185-4.133 47.874-13.218.648-.43 1.256-.826 1.836-1.203l.003-.003h.001c4.772-3.106 7.614-4.957 15.394-14.585 8.727-10.801 16.49-35.872 19.079-44.528 1.135-3.9 3.901-19.408 3.901-23.278 0-4.582-1.454-6.746-3.44-8.968-3.511-3.782-8.263-5.147-12.199-3.509l-1.844.779-.567-2.066c-.816-3.119-2.518-5.615-5.142-7.487-3.901-2.846-4.469-3.041-7.979-3.041-2.731 0-3.476.156-5.213 1.053l-2.022 1.014-.425-1.404c-.816-2.885-3.552-6.908-5.674-8.071-1.883-1.032-5.141-1.127-7.412-.663-4.965 1.014-8.511 3.548-9.965 7.096-.425 1.092-.957 1.95-1.17 1.95-.177 0-7.163-2.145-15.497-6.2-1.393-.68-2.702-1.318-3.932-1.918l-.034-.017c-14.965-7.293-18.209-8.873-17.914-10.854.248-1.676.177-2.612-.248-4.055-.745-2.417-1.596-3.08-4.008-3.08-1.915 0-1.915 0-1.702-1.053 1.135-5.966 1.099-9.397-.106-11.58-.816-1.443-1.773-2.028-3.972-2.379-1.277-.195-1.88-.078-3.298.78-.958.546-1.773.936-1.844.858s.177-2.223.567-4.7572c2.908-18.7548.662-34.9139-6.75-52.0701-.071-.1641-.153-.3583-.247-.5804-2.253-5.3188-11.313-26.7058-37.224-37.49732-1.173-.48836-2.282-.96057-3.349-1.4144v-.00029c-8.826-3.75634-14.694-6.25352-28.851-6.227606-15.868.029046-21.242 2.495446-31.703 7.759266-1.454.74083-2.731 1.16974-2.837 1.01377-.107-.19495-.78-.66285-1.454-1.05276-.6739-.38991-2.1278-1.3647-3.1917-2.14452-3.0498-2.2615-4.9293-3.19729-5.8867-2.96334-1.0994.31193-1.0994 1.3257 0 1.7936.461.19496.9929.85781 1.2057 1.52066.461 1.40369.9929 1.55965 1.3121.38991.1418-.4289.3546-.74083.461-.66285.0403.02218.1754.09168.3814.19774.5184.26679 1.4861.76491 2.5265 1.32292 1.454.77983 3.0497 1.59864 3.4757 1.7936.78.31193.532.54588-2.8374 2.72942-13.1565 8.5001-23.8661 21.7181-29.8592 36.7688-.922 2.2615-1.7377 3.6651-2.5888 4.445-2.1632 1.9885-6.4186 7.6423-7.4116 9.8648-.5319 1.2087-1.6667 3.0803-2.5533 4.172-.8511 1.0918-1.7731 2.4955-2.0922 3.0803-.2837.6239-.5674 1.0528-.6738.9748-.0709-.1169.0354-2.0275.2837-4.25.5319-5.1859.5319-6.5506.1064-6.6675-.6384-.195-1.5604 2.5344-1.9505 5.9266-.2837 2.0666-.3546 5.1859-.1773 8.3832l.2128 5.0688-2.5178-4.484c-.8668-1.501-1.7204-3.0021-2.326-4.0672l-.0003-.0005-.0009-.0015c-.3849-.6769-.6695-1.1774-.7935-1.3895-.922-1.4817-1.454-3.7042-1.0639-4.4451.2128-.4289.1773-.6238-.1773-.6238-.7447 0-2.1986 2.6124-3.1561 5.6147-.461 1.4037-.922 2.5735-1.0639 2.5735-.5319 0-.2837-13.9589.2837-18.4429 1.1703-8.851 4.2555-19.7686 5.6385-19.7686.2837 0 .5319-.156.5319-.3899 0-.7019-.922-.4289-1.6667.4679-1.6667 1.9885-3.8654 8.1102-5.2484 14.6217-.9575 4.484-1.5603 10.2547-1.7731 16.5323-.1773 5.4198-.1064 6.3166.6028 9.2799.8157 3.3143 1.454 4.2891 2.5533 3.8212.3901-.156.5674-.7408.5674-1.8326 0-.8578.4256-3.4312.9575-5.7317l.922-4.1331.3901 1.7156c.4965 1.9886 3.4044 8.1492 6.0286 12.6332 1.8086 3.0413 1.844 3.2363 2.4469 7.9932.3192 2.6904 1.3121 9.2344 3.6172 19.3003 2.0366 8.895 13.4862 17.718 16.345 19.921.3767.29.6042.465.6414.511.3546.429.8511.663 1.1348.546.3191-.117.4964.039.4964.468 0 .39.2483.896.532 1.13.3546.273.6028 1.326.6738 3.159.1773 3.665 2.6596 10.683 4.5746 12.984 1.2412 1.481 3.8299 2.105 6.7024 1.559 1.8795-.312 2.4114-.545 2.2341-1.013-.1064-.312.5674.078 1.4894.857 10.7803 9.046 21.7033 14.466 33.9733 16.806 4.752.896 12.624 1.403 16.915 1.052 3.795-.272 3.795-.272 3.617.546-.248 1.092.071 1.755 5.284 11.464 4.149 7.681 4.504 8.188 9.114 13.374 9.788 11.112 20.462 19.729 32.554 26.397 11.384 6.239 29.558 11.424 46.172 13.062s28.547-15.129 28.512-19.418c-.071-5.887-.816-9.748-2.624-13.491-1.773-3.626-2.944-4.874-8.263-8.773-5.922-4.328-9.575-7.876-11.986-11.658-1.525-2.379-2.093-5.069-2.093-6.512 0-.935 1.1-3.041 2.731-3.47 1.489-.429 1.773-.39 3.44.507.993.507 3.582 1.833 5.709 2.963 2.163 1.092 4.256 2.184 4.681 2.418 1.255.383 1.785 3.083 2.073 4.546v.001c.064.327.116.592.161.756.497 2.027 2.846 4.645 4.362 5.536 2.662 1.566 9.221 1.775 11.03-.37.461-.546 1.989-1.217 2.304-1.013.315.203 1.454 1.89 1.454 3.255.036 2.339 1.135 4.484 3.475 6.628 4.433 4.056 7.873 5.03 11.348 3.237 1.809-.936 3.291-1.302 3.291-1.302s1.478 2.074 1.568 2.783c.696 5.54 8.156 7.863 10.142 8.097.455.05 1.341-.164 2.24-.382 1.203-.291 2.431-.587 2.689-.267.507.628-8.475 16.961-9.717 19.028-11.809 19.495-34.788 31.426-62.91 32.674-18.263.819-40.71-4.796-60.179-15.011-12.447-6.59-23.476-14.661-35.285-25.969-2.057-1.949-4.433-4.172-5.284-4.952-.851-.74-2.872-3.275-4.433-5.614-2.624-3.899-4.113-5.303-4.113-3.977 0 .584 1.702 4.172 3.652 7.72.78 1.404 1.277 2.378 1.1 2.222-.178-.156-.745 2.652-1.277 6.239-1.738 11.502-4.61 22.849-7.518 29.906-1.596 3.821-4.656 6.675-5.578 7.455-3.404 2.846-8.501 4.126-15.558 4.906-8.9361.974-22.0926-1.209-32.1285-5.342-2.6596-1.092-9.5039-4.25-9.9649-4.601-.0276-.031-.1847-1.152-.404-2.717l-.0001-.001-.0004-.003c-.0617-.441-.1283-.916-.1983-1.412-1.2767-9.631-3.0498-46.712-3.0498-63.868 0-7.096-.0709-8.656-.4964-8.656-.8866 0-1.2412.936-1.6313 4.289-.8866 7.642-.7093 47.53.2482 55.913l.2128 1.911-1.2057-.741c-1.8441-1.17-8.8656-9.007-11.3125-12.633-2.0715-3.1-3.3027-7.07-4.2238-10.041-.2142-.691-.4117-1.327-.5991-1.887-5.142-15.674-3.3334-33.263 3.759-49.093 6.0286-13.491 13.4402-20.978 24.2917-24.604 1.7731-.585 3.3335-1.209 3.5108-1.365.6738-.701-3.6526-.35-6.0286.468-7.7308 2.613-15.8162 9.748-21.3128 18.872-7.7308 12.789-11.2061 31.661-8.7592 47.764.5674 3.822 2.8724 12.088 3.5107 12.673.0566.062.3482.735.7893 1.752 1.2197 2.813 3.582 8.262 5.2748 10.725 2.0568 3.08 8.2627 9.787 10.8514 11.853l1.6313 1.287.2482 3.158c.4611 6.044.6384 6.59 3.1207 8.617 6.2059 5.186 18.4404 10.021 29.5046 11.737 5.1421.779 16.3129.507 20.5679-.507zm119.863-36.613c-20.604-1.989-45.498-12.79-63.513-29.478-7.589-7.058-17.447-20.782-21.348-28.385-.816-1.56-1.419-2.301-2.128-2.496-.745-.234-.106-.468 2.943-1.013 12.873-2.418 25.391-8.306 35.498-16.689l1.49-1.209.425 1.131c.958 2.535 4.646 5.108 7.376 5.108 1.1 0 4.788-1.832 7.022-3.509l1.525-1.131 1.241 1.365c1.135 1.248 1.347 1.326 3.475 1.326 2.447 0 5.39-1.209 7.022-2.925l.886-.897 2.518 1.833c1.348 1.053 5.107 3.353 8.334 5.186 4.823 2.729 9.929 5.888 14.788 9.163l.78.546-.745 1.091c-.78 1.17-2.233 3.393-2.233 6.785 0 3.821 3.613 10.686 10.531 15.401 5.435 3.705 14.788 10.991 14.433 21.641-.043 1.286-1.347 4.484-3.085 7.369-1.135 1.833-4.291 4.562-7.163 6.161-4.894 2.69-13.511 4.25-20.072 3.626zm-189.085-175.0319c.9575.2339 1.5958.5848 1.454.7408-.461.5069-2.9079.2729-3.4753-.3509-.8866-.9358-.6738-1.5987.5674-1.8716.6383-.117 1.5958-.7018 2.1277-1.2867s.9929-.8578.9929-.6629c0 .5069-1.7731 2.3005-2.6596 2.6904-.5674.273-.3901.3899.9929.7409zm14.1141.6236c1.0285-.6238.8157-1.0527-.39-.8578-1.2058.195-1.2767.039-.4965-1.2867.3191-.5069.4965-1.2477.4255-1.6376-.1064-.5069-.3546-.273-.922.9748-.4255.8968-1.0284 1.6376-1.3121 1.6376-.8865 0-.9575.7798-.1064 1.1307 1.0994.5069 1.9505.5069 2.8015.039zm-12.2701-21.289c-.851.156-3.5107 1.3257-5.8512 2.6124-2.376 1.2477-4.3973 2.3005-4.5392 2.2615-3.6171-.4289 1.4185-7.0574 10.5678-13.8419 8.7591-6.5115 14.6813-9.9428 20.178-11.6974 3.4398-1.09173 7.3052-1.2477 8.4046-.3509.6028.5069.39.5459-2.2342.5849-5.6739 0-12.2345 3.1973-22.9086 11.0345-5.5321 4.0551-11.9508 9.8648-11.9508 10.8006 0 .195 1.0284-.195 2.3051-.8188 2.7306-1.3647 5.5321-2.0666 6.7733-1.7546 1.3121.3899 1.0284.8968-.7448 1.1697zm13.7238 3.3533c3.3334-.7409 3.4753-.7799 3.4753-1.1698 0-.1949-1.2767-.3899-2.8725-.4679l-2.8724-.1169 2.6596-3.3143c1.454-1.8326 3.1562-3.6652 3.759-4.0941 1.3121-.9358 1.3831-1.5986.3192-1.9885l-.8156-.273.8865-.3509c.4965-.195 1.4185-.2729 2.0568-.156.9575.156 1.1703.078 1.0639-.4679-.1064-.5458-.4965-.6628-2.2341-.6238-5.0711.078-7.2343 1.5596-3.2625 2.2615 1.0993.1949 2.0213.5069 2.0213.7018 0 .156-.1773.3119-.3901.3119-.6738 0-6.3832 6.3556-7.0924 7.9153-1.0994 2.3005-.4965 2.6514 3.298 1.8326zm23.4054-15.1286c-1.0284.078-1.2766.2729-1.2057.8188l.0109.0794c.0407.295.0638.4615-.0002.5077-.0829.0598-.3124-.0833-.8397-.4121l-.093-.058c-.6738-.3899-.7447-.5849-.3546-.8968.2482-.234.922-.5849 1.4539-.7019l.993-.2729-.7447-.8578c-.3901-.5069-.6029-.9748-.4965-1.1308.2837-.3119 3.759.117 4.2555.5459.2127.195.5319.156.7447-.078.4964-.5459 1.1702-.117 1.1702.7409 0 .4678-.1064.5068-.4255.1559-.2837-.3119-.532-.3119-.8511-.039-.2837.273-.4965.273-.6738-.039-.1064-.1949-.7802-.3899-1.4894-.3899-.6428 0-.9527 0-1.0233.13-.0657.121.0759.3546.3494.8058h.0001c.5656.9718.5321.9748-.7681 1.0907zm-5.3905-10.37162c0-.50688-.4255-1.40368-.9574-1.98855l-.993-1.09176 5.3194.23395c2.9433.15597 6.2768.50689 7.447.85781 1.1703.31193 2.5179.54588 3.0143.54588.7447 0 .6029-.15597-.7801-.97479-2.4115-1.36469-5.4967-2.02754-11.4189-2.49544-7.0924-.54588-10.6741.19496-10.0004 2.14452.1064.38992.6738.58487 1.5249.58487 1.7377 0 4.5747 1.13075 5.5321 2.18351 1.0284 1.13072 1.3121 1.13072 1.3121 0zm-17.3054 103.24822c2.8724 4.055 6.6669 8.656 8.44 10.216 1.0639.936 1.9859 1.716 2.0568 1.716.0355 0-.7447-1.794-1.7377-3.977-4.0072-8.773-6.3477-17.507-7.447-27.5672-.2483-2.2225-.6384-4.0941-1.0639-4.874-.8511-1.5596-.8511-3.5872.0355-5.4977.461-1.0138.7092-2.3005.7092-3.7042v-2.1445l-1.7022 1.9495c-1.6667 1.9106-3.2625 2.6904-3.2625 1.5207 0-.8578 2.6242-4.9909 4.0072-6.2776 1.0994-1.0138 1.2412-1.3647 1.5958-4.406.2483-1.8326.8157-5.0689 1.2767-7.2134.4964-2.1445.7801-3.9771.7092-4.0551-.2482-.2729-8.5819 10.2507-9.7167 13.608-.2491.7371-.922 2.0275-1.4539 2.8073l-.922 1.3017s.2864 1.8227.6028 4.1133c.3198 2.3143.4698 3.9052.6034 5.3222.1787 1.8956.3281 3.4799.8151 6.0681.5674 3.1973 1.1348 5.9657 1.2767 6.1606.1064.234.5674 2.0276 1.0284 4.0163.9929 4.406 2.6596 8.773 4.1491 10.917zm143.9057 36.886-.745-.819s12.36-17.266 14.575-23.628c1.69-4.856 2.685-6.232 4.027-6.232.751 0 1.363.188 1.647.656.497.819.975 1.832.337 5.303-1.064 5.614-2.695 9.319-7.589 17.312-1.135 1.832-2.589 3.86-3.227 4.562-1.49 1.521-4.841 3.08-6.791 3.431-1.241.195-1.596.117-2.234-.585z" fill="#00160a" fill-rule="evenodd"/><path d="m303.01 187.744c4.412-13.217 3.744-16.033 2.979-16.309 0 0-1.685 1.053-2.43 3.276-1.383 4.172-6.117 15.089-7.89 17.039-2.092 2.3-2.092 2.3-4.22 2.3s-8.264-3.523-9.1-6.996c-1.336-5.556 4.419-24.86 4.561-25.951l-.957-.741c-.639.663-8.942 28.346-19.859 21.133-1.25-.826-3.901-4.718-4.114-6.784-1.181-6.005 4.24-27.002 5.162-31.315.826-3.86 5.122-7.443 10.406-7.443 8.121 0 7.03 7.805 10.668 10.556 1.612 1.218 4.261-.991 5.077-1.159 4.575-.936 6.328.154 9.681 3.08 2.589 2.259 4.505 6.73 6.613 8.306 1.171.875 2.413-.322 2.82-.546 1.669-.921 5.249-.234 6.242.546 1.455.697 5.023 4.467 5.586 6.66 2.554 9.938-5.511 31.971-8.555 36.104-5.04 6.842-17.082 1.46-12.67-11.756z" fill="#fff"/><path clip-rule="evenodd" d="m99.137 151.529c9.717 6.745 19.736 11.151 31.155 12.36 9.007.936 21.152-.351 29.876-3.47 7.34-2.612 17.27-9.849 23.901-15.971 12.873-11.853 20.994-30.368 24.54-50.02.497-2.7684 1.254-9.7272 1.218-16.6287 0-8.0322-3.215-29.9819-12.956-42.638-20.091-26.10328-53.117-37.86205-80.872-27.81495-10.013 3.62435-20.6732 10.19085-28.7231 18.76895-10.1422 10.8785-17.6248 25.6952-20.6036 40.8239-3.1207 15.9864.9387 35.0918 7.9957 50.7668 5.6385 12.477 14.9297 27.155 24.469 33.823zm94.684-47.119c-6.667 22.03-24.043 38.484-45.888 43.475-3.333.741-5.638 1.014-10.319 1.092-3.298.117-6.596.078-7.27 0-15.284-2.028-26.916-8.227-37.6257-20.003-4.681-5.186-6.6669-7.993-9.5748-13.53-4.5746-8.773-7.0215-17.7408-7.7662-28.5414-2.5533-37.0027 21.5256-67.8448 55.4277-71.0421 13.298-1.2477 28.051 3.2363 39.257 11.9703 4.149 3.2363 11.667 11.4245 14.007 15.2456.958 1.5207 10.249 16.4543 11.88 25.0324 2.092 11.1515 1.277 25.1104-2.128 36.3012z" fill="#fff" fill-rule="evenodd"/><path clip-rule="evenodd" d="m209.841 77.7988c0 26.1712-11.259 54.7832-25.79 67.0032-6.933 5.83-15.992 12.889-23.882 15.616-11.562 3.997-29.876 3.471-29.876 3.471s18.684-2.746 25.608-5.81c19.854-8.786 30.693-22.272 37.385-35.212 13.211-25.5425 16.555-45.704 16.555-45.0682z" fill="#e7eaee" fill-rule="evenodd"/><g fill="#fff"><path clip-rule="evenodd" d="m130.699 144.297c-9.468-1.326-18.866-5.03-26.455-10.528-4.5034-3.236-11.3121-10.839-14.6101-16.259-4.7165-7.798-7.8372-16.142-9.3621-25.1105-1.0993-6.5115-1.0638-16.5323.0355-22.342 1.1348-5.9267 2.5887-10.4497 5.1775-16.1814 3.0143-6.6285 6.2059-11.5024 10.9933-16.7663 8.1559-8.9679 17.6249-14.6607 28.9019-17.3901 3.652-.8578 16.88-1.5596 17.341-.8968.106.195.816.7019 1.56 1.1308.745.4679 2.731 2.1055 4.362 3.7042 2.447 2.3394 3.546 3.8211 5.674 7.4863 1.454 2.4954 2.624 4.7569 2.624 4.9519 0 .4289 1.135 1.2087 1.773 1.2087.887 0 1.49-2.9243 1.667-8.0712.106-2.8464.319-5.1858.461-5.1858.497 0 5.958 3.3142 8.511 5.1858 5 3.6652 10 8.812 13.688 14.1928 1.667 2.4175 1.915 3.0414 1.915 4.523 0 1.3647.355 2.4175 1.454 4.523 2.766 5.3028 4.93 11.9703 6.242 19.3397.851 4.9519.851 14.3098-.036 19.4956-2.411 14.2713-9.575 28.4633-18.901 37.4703-7.908 7.604-16.313 12.283-26.242 14.583-3.405.819-13.618 1.365-16.774.936zm-25.355-26.67c.319-.39.532-.975.425-1.248-.032-.082-.476-.311-1.126-.647-1.515-.783-4.149-2.145-5.2904-3.564-4.5391-5.693-6.2059-9.943-7.2343-18.7157-.9929-8.5391-.1587-14.3118 1.6313-23.5897.8732-4.526 3.1941-8.2644 4.6381-10.5903.9818-1.5814 1.5582-2.5099.9984-2.5888-1.383-.2339-1.5958-.1169-3.0498 1.4037-3.1206 3.2753-4.5391 5.8877-6.0286 10.9176-2.305 7.8762-2.7504 29.1616 1.8106 38.7572 4.5611 9.596 12.4097 10.879 13.2257 9.865zm50.427-32.7526c-.602 6.0571-3.156 14.8167-6.135 18.6376-1.383 1.794-6.46 4.874-10.745 4.25-4.139-.602-7.376-2.729-10.143-7.291-2.375-3.9382-3.603-8.7184-4.432-14.7388-1.433-10.3961 4.823-22.498 7.518-25.5003 2.73-3.0803 4.681-4.1721 7.163-4.2111 2.412 0 3.972.5849 6.419 2.4955 4.468 3.4312 11.525 14.5879 10.355 26.3581zm-47.803-32.2458c.709-.8968.815-1.3257.603-3.0024-.142-1.5596-.426-2.1835-1.171-2.8463-1.312-1.1698-2.943-1.1698-4.149.078-.851.8968-.957 1.2087-.851 3.3532.107 2.3005.178 2.4565 1.348 3.1583 1.56.9358 3.085.6629 4.22-.7408zm22.128-24.0577c-6.383 5.0299-9.149 7.0964-12.021 9.046-2.27 1.5596-2.979 1.5986-2.979.1949 0-.7408.496-1.5596 1.773-2.8463l1.773-1.7936-3.44-.5069c-3.865-.5459-7.624-1.7156-8.44-2.6124-1.347-1.5207-.177-1.8716 3.653-1.0918 1.702.3119 5 .7018 7.34.7798l4.256.195 3.085-2.4565c6.773-5.3808 13.795-8.4221 17.164-7.4863 2.092.5459 1.844 1.1697-.532 1.4817-2.731.3509-4.397 1.3647-11.632 7.0964z" fill-rule="evenodd"/><path d="m139.211 102.421c0-.195.213-.39.496-.39.284 0 .639.195.745.39.106.234-.106.39-.496.39-.426 0-.745-.156-.745-.39z"/><path d="m141.338 102.07c0-.429.886-.819 1.879-.819.781.039.781.039.107.585-.78.663-1.986.78-1.986.234z"/><path d="m135.842 101.056c-.107-.312-.249-.857-.355-1.1694-.106-.3899.071-.5848.532-.5848.39 0 .709.2339.709.5458 0 .3124.107.8184.213 1.1694.142.429.035.624-.355.624-.319 0-.673-.273-.744-.585z"/><path d="m137.72 100.081c-.177-1.1696.213-1.5595 1.49-1.5595.39 0 .709.3899.851 1.0527.283 1.1308-.178 1.6768-1.419 1.6768-.567 0-.816-.273-.922-1.17z"/><path d="m134.102 100.276c-.674-.5846-.674-.5846.071-.5846.461 0 .78.234.78.5846 0 .702 0 .702-.851 0z"/><path d="m141.232 100.237c-.461-.5069-.249-2.0275.319-2.2615 1.028-.4289 1.489-.2339 1.702.7799.142.5848.213 1.0917.142 1.1307-.284.3509-1.951.5849-2.163.3509z"/><path d="m144.389 99.4186c-.107-.1169-.213-.6238-.213-1.0917 0-.6629.283-.9358 1.135-1.1308.744-.1559 1.205-.0779 1.418.234.355.6239.355 1.4037.036 1.5986-.639.3899-2.128.6239-2.376.3899z"/><path d="m132.473 98.2097c0-.4679.319-.8578.78-.9747.922-.273.886-.312 1.064.7018.071.5849-.107.8188-.851.8968-.781.117-.993-.039-.993-.6239z"/><path d="m135.167 98.2489c-.496-.5849-.177-1.6766.497-1.6766.461 0 .709.2729.709.7408 0 .7408-.815 1.3647-1.206.9358z"/><path d="m137.294 97.0787c-.284-.7408.319-1.2867 1.489-1.2867.532 0 .781.2339.781.7408 0 .4289-.32.8188-.781.9748-1.17.3119-1.241.3119-1.489-.4289z"/><path d="m147.543 96.9622c.106-.195.284-.3899.39-.3899.107 0 .071.1949-.035.3899-.107.2339-.284.3899-.39.3899-.107 0-.071-.156.035-.3899z"/><path d="m140.488 96.2995c-.284-.7798.071-1.1697 1.205-1.3647.639-.0779.922.078.993.6239.248 1.2867-1.773 1.9886-2.198.7408z"/><path d="m131.975 95.6361c-.319-1.2867-.248-1.4037.674-1.4037.496 0 .886.156.886.3509 0 .195.107.6239.213.9358.106.3899-.106.6239-.709.7409-.674.1559-.922 0-1.064-.6239z"/><path d="m143.82 95.2072c0-.7018.249-1.0138.922-1.2087.993-.273 1.561.2729 1.561 1.5206 0 .5069-.284.6629-1.242.6629-1.099 0-1.241-.117-1.241-.9748z"/><path d="m130.911 95.2079c-.106-.3119-.035-.5849.142-.5849.213 0 .355.273.355.5849s-.071.5849-.142.5849-.213-.273-.355-.5849z"/><path d="m134.493 95.5195c-.496-.5069-.213-1.5986.426-1.7936.39-.117.78-.078.886.039.426.4289.178 1.5597-.354 1.7936-.674.2729-.674.2729-.958-.039z"/><path d="m147.153 95.2459c-.39-1.1308.036-1.9886 1.029-2.1055.744-.117.957.039.957.6628 0 1.2867-.39 1.9886-1.099 1.9886-.39 0-.78-.234-.887-.5459z"/><path d="m136.976 94.7395c-.426-.4289-.284-1.2087.319-1.4427.674-.2729 2.092.5069 1.702.9358-.496.4679-1.773.8189-2.021.5069z"/><path d="m140.061 93.7649c-.319-.5459.815-1.4817 1.738-1.4817.425 0 .602.234.531.6629-.141.7798-1.95 1.4036-2.269.8188z"/><path d="m130.343 93.4922c0-.195-.106-.6239-.213-.9748-.106-.3509-.071-.6238.142-.6238.461 0 .816 1.4816.39 1.7935-.177.117-.319.039-.319-.1949z"/><path d="m131.302 92.595c-.212-.8579.213-1.4817 1.029-1.4817.461 0 .922 1.5206.638 2.0275-.39.6629-1.489.273-1.667-.5458z"/><path d="m133.783 92.7906c-.532-.5849-.213-1.9886.497-2.1836.532-.1559.815.039 1.099.7409.213.5069.319 1.0138.248 1.0917-.354.351-1.631.6239-1.844.351z"/><path d="m143.359 92.7901c-.461-.5069-.248-.8188.815-1.2477.887-.3119 1.135-.2729 1.313.1949.319.9358-1.454 1.8326-2.128 1.0528z"/><path d="m146.48 91.8934c-.354-.6239.142-1.1698 1.064-1.1698 1.099 0 1.419 1.0138.426 1.3257-1.064.312-1.242.273-1.49-.1559z"/><path d="m149.494 90.9576c0-.5849.638-1.2088.922-.8968.248.2729-.248 1.4426-.603 1.4426-.177 0-.319-.2339-.319-.5458z"/><path d="m129.884 90.45c-.142-.1169-.249-.6238-.213-1.0527 0-.7409.035-.7409.355.117.354.9357.283 1.4036-.142.9357z"/><path d="m130.557 89.8655c-.319-1.3647-.284-1.4817.638-1.4817 1.029 0 1.667 1.4427.887 1.9885-.816.5459-1.277.3899-1.525-.5068z"/><path d="m142.756 90.6457c0-.117.177-.7408.39-1.4427.496-1.5596 1.596-1.6376 1.844-.1169.106.5848.142 1.0917.106 1.1307-.177.234-2.34.5849-2.34.4289z"/><path d="m133.074 89.6703c-.141-.1169-.248-.5848-.248-1.0137 0-.6239.107-.6629.532-.273.284.273.532.7409.532 1.0138 0 .5849-.426.7408-.816.2729z"/><path d="m145.842 88.8903c-.213-1.2087.248-1.7546 1.347-1.5986.532.078.709.4289.709 1.2867 0 .9748-.141 1.2087-.922 1.2867-.78.117-.957-.078-1.134-.9748z"/><path d="m149.316 89.0466c-.461-1.5597-.319-2.0276.638-2.1445.852-.117.958 0 .958 1.0137 0 .8578-.213 1.2088-.745 1.3647-.39.117-.78 0-.851-.2339z"/><path d="m129.352 86.8239c0-.7408.07-1.0528.177-.6629.071.351.071.9748 0 1.3647-.107.3509-.177.039-.177-.7018z"/><path d="m130.238 87.3313c-.461-.4679-.249-1.9886.319-2.2225.815-.3509 1.205.078 1.205 1.3647 0 .8188-.177 1.1307-.638 1.1307-.355 0-.78-.117-.886-.2729z"/><path d="m132.365 86.279c-.142-.5849-.213-1.2087-.071-1.3257.355-.3899.568.2339.461 1.3647l-.106 1.0917z"/><path d="m143.82 86.0056c0-.4289.178-.6629.355-.5459.213.117.355.5069.355.8188s-.142.5459-.355.5459c-.177 0-.355-.3509-.355-.8188z"/><path d="m145.415 86.512c-.496-.5848-.106-1.6376.71-1.8716 1.028-.2729 1.063-.2729 1.383.8579.212.7018.07.8578-.852 1.0137-.567.117-1.134.078-1.241 0z"/><path d="m148.679 85.7717c-.39-.3899-.283-1.6766.107-1.6766.212 0 .354-.156.354-.39 0-.1949-.212-.3899-.496-.3899-.603 0-1.1-1.9105-.603-2.4564.638-.7019 1.348.039 1.773 1.9495.248 1.0138.497 2.1836.603 2.5735.142.5069 0 .6628-.674.6628-.461 0-.957-.117-1.064-.2729z"/><path d="m150.592 83.7053c-.248-1.1697-.886-3.5092-1.347-5.2248-.709-2.4955-.78-3.1193-.39-3.3923.248-.1949.567-.3509.673-.3509.391 0 1.809 7.9932 1.667 9.5529l-.106 1.5596z"/><path d="m128.996 83.5101c0-.6239.071-.8578.177-.4679.071.3509.071.8968 0 1.1697-.106.234-.177-.039-.177-.7018z"/><path d="m129.705 83.4324c.142-1.3647 1.171-1.6766 1.454-.4289.248 1.0138.319.8968-.744 1.2867-.745.2339-.816.156-.71-.8578z"/><path d="m144.671 83.0811c-.284-1.1307.319-1.7936 1.454-1.6376.851.117 1.17 1.7936.461 2.3005-.886.6238-1.702.3509-1.915-.6629z"/><path d="m131.764 82.7696c0-.6628.177-1.0137.567-1.0137.355 0 .497.2729.426.8578-.178 1.2477-.993 1.3646-.993.1559z"/><path d="m128.607 81.1319c0-.4289.106-.5459.212-.234.107.2729.071.6239-.035.7408-.107.156-.213-.0779-.177-.5068z"/><path d="m129.281 81.0141c0-.5848.213-.8188.745-.8188.496 0 .674.195.603.6629-.178 1.0138-1.348 1.1307-1.348.1559z"/><path d="m131.231 80.6639c-.248-.7019-.248-.7019.816-1.0138.638-.234.78-.117.78.4679 0 .9358-1.277 1.4037-1.596.5459z"/><path d="m144.069 80.1174c-.249-.9748.212-1.4817 1.454-1.4817.603 0 .78.234.78.9748 0 .5849-.213.9748-.497.9748-.283 0-.744.117-1.028.234-.319.1169-.567-.117-.709-.7019z"/><path d="m147.154 79.2211c-.283-.7798.142-1.3647.958-1.3647.496 0 .674.273.674.9748 0 .7019-.178.9748-.71.9748-.39 0-.815-.2729-.922-.5849z"/><path d="m128.926 78.6756c0-.8188.815-1.7546 1.17-1.3257.142.117.248.6629.248 1.1698 0 .6238-.213.8968-.709.8968-.461 0-.709-.273-.709-.7409z"/><path d="m130.876 78.2073c-.284-.9748.035-1.4037 1.241-1.5986 1.1-.156 1.454 1.1307.497 1.9105-.922.7409-1.49.6239-1.738-.3119z"/><path d="m143.713 77.973c-.248-.2339-.355-1.6766-.142-1.6766.036 0 .568-.1559 1.206-.3509 1.064-.3509 1.135-.3119 1.099.7408-.035.7798-.248 1.1698-.78 1.3257-.957.273-1.099.273-1.383-.039z"/><path d="m142.4 77.0769c0-.2729.107-.3899.249-.2729.106.1559.106.3899 0 .5459-.142.1169-.249 0-.249-.273z"/><path d="m146.373 76.452c.106-.6628 1.205-1.6376 1.454-1.3257.106.117.283.5849.39 1.0918.248.7798.142.8578-.851.8578-.851 0-1.1-.156-.993-.6239z"/><path d="m129.281 76.4137c0-.195.178-.5849.355-.8968.284-.4679.354-.4289.354.3119 0 .4679-.141.8578-.354.8578-.177 0-.355-.1169-.355-.2729z"/><path d="m130.344 75.5556c0-1.0917.744-1.4427 1.312-.6238.354.5848.354.7798 0 1.0527-.745.5069-1.312.3509-1.312-.4289z"/><path d="m141.126 75.0494c-.638-.7799-.638-.8188-.036-.5849.355.156.816.2729.993.2729.178 0 .319.273.319.5849 0 .8188-.496.7408-1.276-.2729z"/><path d="m133.501 75.01c-1.525-1.2867-1.738-4.1721-.319-4.1721.957 0 1.844 1.6376 1.702 3.1583-.107 1.4037-.532 1.7156-1.383 1.0138z"/><path d="m143.217 75.244c.142-.117.354-.117.496 0 .107.1559 0 .2729-.248.2729s-.355-.117-.248-.2729z"/><path d="m148.572 73.7229c.106-.3509.212-.7018.212-.7798s.178-.156.355-.156c.213 0 .355.3509.355.7798 0 .4679-.248.7799-.568.7799-.39 0-.496-.195-.354-.6239z"/><path d="m129.99 73.606c0-.8968.745-2.3785 1.17-2.3785.745 0 .213 2.4955-.567 2.6515-.319.078-.603-.039-.603-.273z"/><path d="m137.968 73.1775-1.064-.2729.958-.2729c.993-.312 1.702-.078 1.702.5848 0 .3899-.035.3899-1.596-.039z"/><path d="m136.727 71.3062c0-1.5987.815-1.8326 1.56-.429.496.9358.532 1.1308.071 1.1308-.284 0-.745.117-1.064.2339-.426.195-.567-.0389-.567-.9357z"/><path d="m142.898 71.8516c-1.596-.7798-2.625-2.8463-2.625-5.3028 0-1.7546.142-2.1835 1.1-3.1583.603-.6238 1.205-1.1307 1.383-1.1307.78 0 3.652 3.0023 4.61 4.8739l1.099 2.1445-1.17 1.3647c-1.348 1.5596-2.837 1.9885-4.397 1.2087z"/><path d="m135.486 70.8382c-.107-.195-.036-.39.141-.39.213 0 .39.195.39.39 0 .2339-.07.3899-.141.3899-.107 0-.284-.156-.39-.3899z"/><path d="m130.84 70.2141c.106-.3509.213-.7018.213-.7798s.319-.156.709-.156c.887 0 .922.6239.035 1.1698-.957.5459-1.205.5069-.957-.234z"/><path d="m133.643 69.7462c-.816-.117-1.064-.6239-.532-.9748.142-.117.78-.3119 1.419-.4679.957-.234 1.134-.156 1.134.5069 0 .8188-.744 1.1697-2.021.9358z"/><path d="m136.373 68.4202c0-.4679.036-.7408.106-.6628.036.0779.32.4679.568.8578.425.5459.39.6628-.107.6628-.354 0-.567-.3119-.567-.8578z"/><path d="m131.408 68.1471c0-.234.178-.5069.355-.6239.213-.117.354.039.354.3509 0 .351-.141.6239-.354.6239-.177 0-.355-.156-.355-.3509z"/><path d="m132.719 67.5631c-.283-.7799 2.235-1.6377 2.66-.8968.319.6238 0 .8968-1.347 1.2087-.816.1949-1.171.117-1.313-.3119z"/><path d="m136.054 66.3145c0-.4289.106-.5459.213-.234.106.273.071.6239-.036.7409-.106.1559-.213-.078-.177-.5069z"/><path d="m133.04 65.6912c.426-.8578 1.667-2.2615 1.986-2.2615.355 0 .39 1.8326.036 2.0665-.178.078-.745.2729-1.277.4289-.78.195-.958.156-.745-.2339z"/><path d="m135.877 64.7945c-.39-1.1697-.213-1.6766.638-1.8326.887-.1949.887-.1949.319 1.0138-.709 1.5596-.674 1.5596-.957.8188z"/><path d="m135.664 62.4547c0-.078.709-.6238 1.596-1.1697 1.064-.7018 1.808-.9358 2.34-.7798.639.2339.461.3899-1.099 1.2087-1.738.8578-2.837 1.1697-2.837.7408z"/><path d="m155.345 27.908c-.958-1.5207-2.979-3.9771-4.433-5.4588s-2.412-2.6904-2.128-2.6904c.78 0 6.738 1.7936 8.227 2.4954 1.242.5849 1.277.6629.958 1.8716-.177.7019-.319 2.4565-.319 3.8991 0 1.4817-.107 2.6515-.249 2.6515-.177 0-1.063-1.2478-2.056-2.7684z"/><path d="m83.1802 146.013c-1.4539-.819-1.7731-1.287-3.6171-5.303-2.6597-5.693-2.7306-7.018-.2128-3.782.9929 1.287 3.298 3.938 5.1066 5.888 3.0852 3.275 3.227 3.509 2.1986 3.353-.7447-.117-1.0284-.039-.8511.273.4256.702-.922.507-2.6242-.429z"/></g><path clip-rule="evenodd" d="m142.61 217.052c-.295-.768.033-1.654.732-1.977l.764-.357c7.429-3.495 11.692-5.594 14.59-8.927 2.897-3.334 3.243-8.23 3.788-11.209.149-.818 1.833.618 2.576.782.744.165 1.226.961 1.076 1.778-.654 3.582-2.416 6.997-5.253 10.239-2.828 3.231-8.302 6.694-16.475 10.477-.699.323-1.504-.037-1.798-.806z" fill="#00160a" fill-rule="evenodd"/><path clip-rule="evenodd" d="m176.203 61.4764c.652-.4266 1.495-.1915 1.883.5251 3.884 7.1751 5.965 15.377 5.965 23.9104 0 25.8521-19.061 46.8101-42.573 46.8101-6.248 0-12.308-1.482-17.857-4.305-.688-.35-3.289-3.138-.67-2.004s12.752 3.679 18.6 3.679c21.995 0 37.556-19.996 37.556-44.1801 0-7.9858-2.904-15.0742-3.382-22.3656-.055-.8452-.174-1.6433.478-2.0699z" fill="#00160a" fill-rule="evenodd"/><path clip-rule="evenodd" d="m40.1912 175.76c.4854-.641 1.3514-1.935 1.9342-1.402 2.3907 2.19 4.942 4.727 7.671 5.216 2.8399.51 6.2089.51 10.1027-.008.753-.101 1.4373.489 1.5285 1.317.0911.828-.4454 1.581-1.1984 1.681-4.135.55-7.7586.55-10.8751-.009-3.2273-.579-6.2286-2.142-8.9866-4.668-.5828-.534-.6617-1.486-.1763-2.127z" fill="#00160a" fill-rule="evenodd"/><path d="m69.3491 122.93c-1.7731-1.559-5.5676-6.16-8.44-10.215-1.4894-2.145-3.1562-6.512-4.1491-10.918-.461-1.9885-.922-3.7821-1.0284-4.0161-.1419-.1949-.7093-2.9633-1.2767-6.1606-.8511-4.523-.671-5.9801-1.4184-11.3903-.3165-2.2906-.6029-4.1133-.6029-4.1133l.922-1.3016c.5319-.7799 1.2048-2.0703 1.454-2.8074 1.1348-3.3573 9.4684-13.8809 9.7166-13.608.071.078-.2127 1.9106-.7092 4.0551-.461 2.1446-1.0284 5.3808-1.2766 7.2134-.3547 3.0413-.4965 3.3923-1.5959 4.406-1.383 1.2868-4.0072 5.4198-4.0072 6.2776 0 1.1698 1.5958.3899 3.2625-1.5206l1.7022-1.9496v2.1445c0 1.4037-.2482 2.6904-.7092 3.7042-.8866 1.9106-.8866 3.9381-.0355 5.4978.4256.7798.8157 2.6514 1.0639 4.8739 1.0993 10.06 3.4398 18.794 7.4471 27.567.9929 2.183 1.7731 3.977 1.7376 3.977-.0709 0-.9929-.78-2.0568-1.716z" fill="#fff"/><path clip-rule="evenodd" d="m216.908 146.988 2.553 1.248c.53.268 6.371 3.354 13.386 7.061 11.311 5.975 25.677 13.565 25.765 13.565.142 0 .807-1.692.957-3.665.355-4.25 1.667-10.021 3.192-14.037.709-1.793 1.277-4.035 1.277-4.23 0-.089-.577-.345-1.521-.763-1.123-.499-2.767-1.228-4.579-2.181-8.936-4.718-26.419-14.349-28.583-15.792-2.127-1.364-2.553-1.481-2.553-.585 0 1.17-2.163 6.59-3.83 9.514-.886 1.599-2.624 4.484-3.865 6.395zm41.101 14.856c1.017.648-.745 1.598-1.17 1.754-2.506.234-5.456-.284-7.873-1.832-1.264-.986-11.214-7.064-17.815-11.096-3.018-1.844-5.335-3.259-5.803-3.565-1.489-.975-2.907-2.028-3.156-2.34-.744-1.052-.035-1.52 2.057-1.325 1.258.117 31.564 17.004 33.76 18.404z" fill="#fff" fill-rule="evenodd"/><path d="m191.445 150.497c-.922-.35-1.915-1.13-2.553-2.027l-1.064-1.443 3.759-4.094c5.78-6.238 10.036-13.056 13.866-20.66 1.276-2.534 5.071-12.755 5.532-13.886.709-1.638 1.241-2.262 2.766-3.197 1.809-1.17 3.865-1.56 4.752-.897 1.702 1.248 1.702 5.186 0 11.97-1.88 7.447-4.397 12.789-9.61 20.471-.816 1.169-2.341 3.47-3.44 5.068-2.944 4.289-4.858 6.356-7.447 7.955-2.553 1.559-4.043 1.754-6.561.74z" fill="#fff"/><path d="m204.815 149.6-.745-.818s12.361-17.267 14.575-23.629c1.69-4.855 2.685-6.232 4.027-6.232.751 0 1.364.188 1.647.656.497.819.975 1.833.337 5.303-1.064 5.615-2.695 9.319-7.589 17.312-1.135 1.833-2.589 3.86-3.227 4.562-1.49 1.521-4.84 3.08-6.791 3.431-1.241.195-1.596.117-2.234-.585z" fill="#fff"/><path clip-rule="evenodd" d="m225.577 131.545c.715-1.799 1.225-3.368 1.225-3.936 0-.896.426-.779 2.553.585 2.164 1.443 19.646 11.074 28.583 15.792 3.333 1.754 6.099 2.749 6.099 2.944s-39.218-13.477-38.46-15.385z" fill="#e7eaee" fill-rule="evenodd"/><path clip-rule="evenodd" d="m104.244 133.77c-4.5034-3.236-11.3121-10.839-14.6101-16.259-4.7165-7.799-7.8372-16.143-9.3621-25.1107-1.0993-6.5115-1.0638-16.5323.0355-22.342 1.1348-5.9266 2.5887-10.4496 5.1775-16.1814 3.0143-6.6285 6.2059-11.5024 10.9933-16.7662 4.6949-5.1619-16.1708 16.1846-10.9933 54.3782 4.1491 32.0061 21.9802 44.6141 18.7592 42.2811z" fill="#e7eaee" fill-rule="evenodd"/></svg>