<svg fill="none" height="453" viewBox="0 0 375 453" width="375" xmlns="http://www.w3.org/2000/svg"><path d="m-19 0h412v453h-412z" fill="#fff"/><path clip-rule="evenodd" d="m309.05 125.324c-53.242-33.5929-94.755 65.015-124.907 77.428-60.767 25.018-173.636 46.777-152.1107 95.415 29.5558 66.784 132.3937 73.447 205.9347 66.784 95.654-8.668 175.761-173.58 71.083-239.627z" fill="#38957f" fill-rule="evenodd"/><g fill="#fff"><g clip-rule="evenodd" fill-rule="evenodd"><path d="m301.328 232.963c.549.532.735 1.365.873 2.162l.834 5.004c.116.696.647 1.025.851.629.217-.419.795-.245 1.182-.018l4.835 2.828c-1.645 1.298-3.586 2.14-5.594 2.425-.99.14-1.15 1.631-1.045 2.723l.287 2.969c.089.925-1.235 1.239-1.896.659s-.912-1.552-1.433-2.285c-.842-1.185-2.33-1.626-3.691-1.489s-2.636.765-3.882 1.383c-.803.399-1.686-.657-1.623-1.624.055-.853.551-1.567 1.057-2.233l.202-.264c.568-.741 1.135-1.619 1.039-2.582-.079-.803-.6-1.448-1.123-2.025l-.306-.337c-.484-.545-.944-1.15-1.029-1.894-.097-.851.61-1.83 1.352-1.566 2.857 1.015 6.298-.965 7.167-4.125.226-.822 1.358-.908 1.943-.34z"/><path d="m301.328 232.963c.549.532.735 1.365.873 2.162l.834 5.004c.116.696-.139 1.773-.743 1.53-.86-2.006-1.318-4.219-1.331-6.436-.328-.347-.817.169-1.021.616l-2.04 4.469c-.359.787-1.432.613-2.14.202l-.379-.221c-.615-.35-1.283-.66-1.866-.315-.297.979 1.024 1.467 1.71 2.171.783.805.737 2.249.189 3.262-.547 1.013-1.472 1.695-2.367 2.344 1.286.233 2.656-.18 3.654-1.101.451-.416.864-.95 1.44-1.082.891-.205 1.691.644 2.154 1.506.462.863.829 1.872 1.619 2.37.395-.686.184-1.546-.065-2.339l-.119-.369c-.286-.886-.414-2.059.287-2.597.264-.202.591-.261.913-.3l3.449-.379-1.987-1.592c-.335-.268-.71-.714-.506-1.11.217-.419.795-.245 1.182-.018l4.835 2.828c-1.645 1.298-3.586 2.14-5.594 2.425-.99.14-1.15 1.631-1.045 2.723l.287 2.969c.089.925-1.235 1.239-1.896.659s-.912-1.552-1.433-2.285c-.842-1.185-2.33-1.626-3.691-1.489s-2.636.765-3.882 1.383c-.803.399-1.686-.657-1.623-1.624.055-.853.551-1.567 1.057-2.233l.202-.264c.568-.741 1.135-1.619 1.039-2.582-.079-.803-.6-1.448-1.123-2.025l-.306-.337c-.484-.545-.944-1.15-1.029-1.894-.097-.851.61-1.83 1.352-1.566 2.857 1.015 6.298-.965 7.167-4.125.226-.822 1.358-.908 1.943-.34z"/><path d="m111.096 143.225c-2.069-10.11 3.567-26.892 13.639-33.639 10.071-6.748 22.954-7.21 34.171-3.203-.358-11.9141 10.631-22.1376 21.435-21.1533 10.805.9843 19.77 11.6501 21.221 23.4633 1.131 9.204-3.166 20.168-11.476 21.835 2.937 11.541 4.571 23.682 2.958 35.534-1.612 11.852-6.742 23.429-15.399 30.71-2.39 3.535-.585 8.867 2.562 11.593 3.146 2.726 7.219 3.685 10.984 5.189 15.776 6.304 26.883 23.418 29.472 41.653s-2.582 37.146-11.928 52.477c-6.401 10.501-15.109 19.826-26.004 23.865-15.292 5.668-32.058.149-46.907-6.799-5.661-2.648-11.425-5.658-15.421-10.801-4.283-5.513-12.379-2.535-18.217.837 3.882 1.771 7.764 3.541 11.646 5.312.834.381 1.739.833 2.126 1.73.814 1.889-1.192 3.707-2.89 4.647-1.824 1.01-3.649 2.02-5.473 3.03-11.1996 6.201-22.8632 12.536-35.3973 12.919-13.7036.419-26.6481-6.316-38.9811-12.897-1.3708-.732-2.8239-1.546-3.5693-3.008-.7454-1.461-.3287-3.74 1.1444-4.168 13.8355-4.023 26.9344-11.084 38.3004-20.645-.8694-5.952-.6645-12.092.5994-17.958.1828-.849.4457-1.779 1.1334-2.213 1.6906-1.068 3.1591 1.745 3.4578 3.864.754 5.347 1.508 10.695 2.2621 16.042 9.054-1.101 17.8412-4.758 25.2892-10.524-5.8091-5.144-11.6183-10.288-17.4274-15.432-3.3519-2.968-6.5873-4.743-8.3975-10.555-1.2069-3.875-.2328-7.855 2.922-11.94-3.5218-19.298-5.0628-33.845-4.623-43.642.1175-2.614.3836-5.437 1.9844-7.375 2.8256-3.422 8.3739-1.946 10.953 1.703s3.0108 8.545 3.3443 13.152c9.8202-1.319 19.6402-2.638 29.4612-3.957 3.593-.483 7.313-.955 10.771.221 4.339 1.475 7.823 5.653 8.785 10.533 4.144-1.231 8.658-2.748 10.998-6.705 2.34-3.956.358-10.838-3.931-10.634-13.415.638-26.534-10.307-29.588-24.684-.776-3.657-1.078-7.72-3.413-10.46-3.699-4.343-6.518-9.941-6.5-15.892.018-5.95 2.285-6.66 3.923-12.025zm-80.0775 183.112c.302.496.8292.756 1.3285.991 5.1227 2.411 10.2455 4.821 15.3683 7.232 2.331 1.097 4.6695 2.196 7.1071 2.963 6.7982 2.139 14.1237 1.617 20.8829 3.9.8199.277 1.6999-.009 2.5163-.298 5.8952-2.088 11.7211-4.412 17.4622-6.967 6.0062-2.673 11.9582-5.622 17.2912-9.669.485-.368.989-.777 1.21-1.378.221-.6.017-1.436-.55-1.613-3.599-1.124-7.145-2.449-10.622-3.97-1.117-.489-2.375-1.186-2.613-2.482-3.062.135-5.7401 2.259-7.999 4.536-2.2589 2.278-4.3809 4.85-7.1644 6.261-2.7834 1.411-6.5192 1.289-8.4474-1.33-.2059-.28-.4127-.602-.7294-.693s-.7235.256-.5759.577c.3823.832-.4388 1.885-1.2851 1.827-.8462-.058-1.5079-.906-1.7162-1.809-.2083-.904-1.339.71-2.9777.979-1.6388.269-3.3773-.888-3.9216-2.608-.4486-1.418-2.2075-1.443-3.5515-1.709-3.0558-.603-5.3764-4.124-4.9466-7.505-8.7824 3.221-17.4056 6.966-25.8188 11.214-.4935.249-.55 1.055-.2479 1.551z"/></g><path d="m154.314 187.24c2.579 0 4.669-2.299 4.669-5.134 0-2.836-2.09-5.134-4.669-5.134s-4.669 2.298-4.669 5.134c0 2.835 2.09 5.134 4.669 5.134z"/><path d="m121.904 183.012c1.365 0 2.472-1.217 2.472-2.718s-1.107-2.718-2.472-2.718c-1.366 0-2.472 1.217-2.472 2.718s1.106 2.718 2.472 2.718z"/></g><g clip-rule="evenodd" fill-rule="evenodd"><path d="m176.612 202.711c.428 2.44 1.699 4.804 3.391 6.271 3.147 2.726 10.219 5.533 13.984 7.037.343.137-1.589 1.337-4.083 3.989-6.751 7.182-21.513 20.041-35.935 13.579-1.686-.755-3.095-1.625-4.243-2.547-1.058-.849 8.652.374 17.729-1.518 9.126-1.902 17.618-6.929 15.345-10.913-2.137-3.746-8.145-10.09-8.614-13.822-.624-4.971 2.058-4.173 2.426-2.076z" fill="#e7eaee"/><path d="m30.832 324.925c0-1.992 5.7114-3.603 15.4751-7.641 6.7153-2.778 19.8046-10.814 26.2446-11.189 4.2853-.249 21.4107 6.645 32.5873 11.596 5.619 2.489 9.954 4.048 9.954 4.847 0 1.604-11.932 9.348-24.1271 14.438-5.9525 2.485-11.5372 4.71-16.6589 4.56-15.6148-.458-43.475-11.569-43.475-16.611z" fill="#fff"/><path d="m251.427 159.512c-22.391 10.516-41.097 28.483-58.92 46.755l-1.09 1.119c-1.039 1.068-2.618 2.185-3.739 1.223l3.463-3.467c18.12-18.101 36.855-36.051 59.275-46.715 17.238-8.199 17.054-6.449 1.011 1.085zm-96.449 175.151 10.504 12.579c.514.617 1.051 1.278 1.195 2.1s-.29 1.825-1.047 1.912l-21.626 2.487c-3.592.413-7.256-2.325-8.29-6.13s.621-8.262 3.75-10.246c3.128-1.984 7.42-1.359 10.017 1.401.643.684 1.773.103 2.229-.743.457-.846.556-1.883 1.028-2.719.472-.835 1.635-1.366 2.24-.641zm-17.44 7.261c-1.341 2.798-.493 6.589 1.802 8.496 1.125.934 2.506 1.435 3.898 1.682 1.966.348 4.246.084 5.51-1.607.461-.618.744-1.375.937-2.146.642-2.565.316-5.405-.887-7.714-.327-.628-.831-1.284-1.489-1.253-.312.015-.603.189-.914.224-.518.059-.998-.266-1.47-.508-2.608-1.335-6.046.027-7.387 2.826zm16.507-4.738c-.413 1.893-1.268 3.668-2.46 5.108-.335.405-.253 1.032-.185 1.575.331 2.645-.216 5.413-1.518 7.668 2.133-.556 4.313-.887 6.502-.99 3.001-.14 6.132.125 8.882-1.203-1.469-.703-2.716-1.954-3.488-3.498-.454-.908-1.082-1.694-1.704-2.472l-4.783-5.975c-.345-.432-1.124-.772-1.246-.213zm-54.3134-.113c.6854 2.354 3.2654 3.161 5.5004 3.585l14.913 2.738c3.448.633 6.987 1.266 10.417.518.647-.141.989.989.562 1.542-.427.552-1.17.618-1.829.621-2.988.01-5.958-.426-8.915-.915l-3.15-.528c-5.574-.942-11.146-1.945-16.602-3.506-.9338-.267-1.9012-.572-2.6162-1.285-.7149-.713-1.0867-1.958-.5836-2.863.5031-.906 2.009-.918 2.3034.093zm80.6094-251.8433c10.805.9843 19.77 11.6501 21.221 23.4633 1.131 9.204-3.166 20.168-11.476 21.835 2.937 11.541 4.571 23.682 2.958 35.534-1.612 11.852-6.742 23.429-15.399 30.71-2.39 3.535-.585 8.867 2.562 11.593 3.146 2.726 7.219 3.685 10.984 5.189 15.776 6.304 26.883 23.418 29.472 41.653s-2.582 37.146-11.928 52.477c-6.401 10.501-15.109 19.826-26.004 23.865-15.139 5.612-31.723.258-46.461-6.591l-.446-.208c-5.543-2.593-11.185-5.533-15.169-10.482l-.252-.319c-4.283-5.513-12.379-2.535-18.217.837l11.646 5.312c.834.381 1.739.833 2.126 1.73.814 1.889-1.192 3.707-2.89 4.647l-6.838 3.785c-10.7818 5.95-22.0064 11.797-34.0323 12.164-13.5443.414-26.347-6.16-38.5506-12.668l-.7745-.414c-1.2641-.687-2.542-1.483-3.2253-2.822-.7454-1.462-.3287-3.741 1.1444-4.169 13.8355-4.023 26.9344-11.084 38.3004-20.645-.8694-5.952-.6645-12.092.5994-17.958l.0644-.285c.1821-.764.4577-1.542 1.069-1.928 1.6906-1.068 3.1591 1.745 3.4578 3.864l2.2621 16.042c9.054-1.101 17.8412-4.758 25.2892-10.524l-17.8959-15.847c-3.2041-2.851-6.4481-5.932-7.929-10.14-1.5532-4.413-.3037-10.395 3.7099-12.103.3167-16.717-.4847-33.459-2.3956-50.046-2.6423 16.567-.5187 33.552 1.6077 50.209-3.6461-13.877-5.225-28.409-4.6567-42.84l.0337-.802c.1174-2.614.3836-5.437 1.9844-7.375 2.8256-3.422 8.3739-1.946 10.953 1.703s3.0108 8.545 3.3443 13.152l30.1362-4.047c3.382-.445 6.854-.791 10.096.311 4.339 1.475 7.823 5.653 8.785 10.533l.707-.212c3.941-1.199 8.083-2.76 10.291-6.493 2.315-3.914.399-10.692-3.795-10.638l-.136.004c-13.415.638-26.535-10.307-29.588-24.684-.776-3.657-1.078-7.72-3.413-10.46-3.699-4.343-6.518-9.941-6.5-15.892.018-5.95 3.469-12.086 8.723-13.508 5.255-1.422 11.474 3.398 11.02 9.327 2.55-.285 5.158.08 7.561 1.058-1.371-4.063 2.181-8.547 6.086-9.137 3.904-.589 7.708 1.555 10.955 4.011 3.246 2.456 6.349 5.347 10.123 6.592l.174-.443c.78-2.003 1.499-4.142 1.106-6.259-.423-2.274-2.753-4.24-4.639-3.199-1.324-4.172-3.431-8.041-6.151-11.294l-7.558 3.918c-.974-1.604-1.57-3.482-1.716-5.403-4.99 3.135-10.406 5.45-16.013 6.841l.574-4.706-16.754 9.568c-2.474-12.679 3.999-26.283 14.071-33.03 10.071-6.748 22.954-7.21 34.171-3.203-.358-11.9141 10.631-22.1376 21.435-21.1533zm82.424 206.6533c-9.652 2.561-19.022 6.406-27.84 11.425l-.637.366c-4.886 2.831-9.682 6.222-12.745 11.254 2.068-.394 4.276.199 5.947 1.597 1.055.882 1.936 2.206 1.873 3.662-.032.755-.317 1.475-.702 2.102-1.502 2.447-4.683 3.441-7.132 2.228-2.448-1.214-3.878-4.492-3.206-7.351-10.387 3.9-19.316 12.289-24.45 22.954l-.172.361c-.252.536-.561 1.137-1.098 1.271-.737.183-1.394-.722-1.36-1.553.034-.83.518-1.546.985-2.199 6.053-8.451 13.127-16.495 22.18-20.574l.682-.301c2.135-.932 4.371-1.846 5.75-3.832 3.345-4.818 8.16-8.126 13.05-10.925 4.376-2.505 8.903-4.692 13.541-6.542 4.654-1.856 9.414-3.37 14.183-4.838l16.156-4.945c-4.37 3.376-9.813 4.463-15.005 5.84zm-205.6798 21.689c-8.7824 3.221-17.4056 6.966-25.8188 11.214-.4935.249-.55 1.055-.2479 1.551.302.496.8292.756 1.3285.991l15.3683 7.232c2.331 1.097 4.6695 2.196 7.1071 2.963 6.7982 2.139 14.1237 1.617 20.8829 3.9.8199.277 1.6999-.009 2.5162-.298 5.8953-2.088 11.7212-4.412 17.4623-6.967 6.0062-2.673 11.9582-5.622 17.2912-9.669.485-.368.989-.777 1.21-1.378.221-.6.017-1.436-.55-1.613-3.599-1.124-7.145-2.449-10.622-3.97l-.241-.108c-1.051-.484-2.151-1.17-2.372-2.374-3.062.135-5.7401 2.259-7.999 4.536-2.2589 2.278-4.381 4.85-7.1644 6.261s-6.5192 1.289-8.4474-1.33l-.1246-.171c-.1685-.229-.3515-.449-.6048-.522-.3167-.091-.7235.256-.5759.577.3823.832-.4388 1.885-1.2851 1.827-.8462-.058-1.5079-.906-1.7162-1.809-.1339-.581-.1221-1.182-.0581-1.781l.0161-.147c-.3763 1.465-1.5558 2.681-2.9357 2.907-1.6388.269-3.3773-.888-3.9216-2.608-.4486-1.418-2.2075-1.443-3.5515-1.709-3.0558-.603-5.3764-4.124-4.9466-7.505zm20.7548-56.431c-1.8104 3.541-.1289 8.022 2.1009 11.26 6.9924 10.155 18.7042 15.029 26.6951 24.25 2.008 2.317 3.758 4.885 5.486 7.462l5.431 8.109c.998 1.491 1.999 2.986 3.164 4.322 3.037 3.484 7.036 5.733 10.991 7.825 8.025 4.246 16.281 8.148 24.994 10.175 8.713 2.026 17.971 2.095 26.354-1.21 7.847-3.093 14.608-9.026 19.861-16.142 5.128-6.947 8.892-15 11.909-23.313l.219-.608c.434-1.213.861-2.481.771-3.78-.096-1.374-.762-2.623-1.539-3.704-2.962-4.122-7.914-6.453-12.656-5.808-4.667.634-8.942 4.195-10.651 9.007l-.08.23c-3.716 11.076-12.969 19.405-23.363 22.361-10.395 2.956-21.7.838-31.188-4.687-9.488-5.526-17.23-14.273-23.002-24.226l-.315-.55c-1.043-1.84-1.991-3.777-2.358-5.9-.404-2.335.006-4.962 1.54-6.637 1.014-1.107 2.456-1.756 3.193-3.101s-.129-3.721-1.489-3.241l-.907.316c-6.249 2.138-13.499 3.796-18.5266-.653l-.4831-.425c-2.3457-2.049-4.8524-4.005-7.7667-4.71-3.1153-.754-6.8215.321-8.3846 3.378zm24.911 35.892c-7.5801 5.266-16.1344 8.828-24.9852 10.405-1.1685.208-1.4826 1.874-1.5009 3.175-.0585 4.136.1237 8.276.545 12.387.9587-.496 1.3508-1.736 2.0045-2.653.6536-.917 2.1452-1.419 2.6504-.395.3529.715-.1181 1.611-.7195 2.085-.6015.475-1.3411.732-1.8775 1.292-1.3344 1.396-.6369 4.14.9888 5.091 1.6258.951 3.6822.455 5.2409-.624 1.5586-1.078 2.7628-2.659 4.0844-4.069 2.8266-3.015 6.2839-5.312 10.0267-6.66 4.7514-1.711 10.0424-1.965 14.2224-4.982.282-.203.573-.441.679-.793.146-.479-.1-.978-.36-1.405l-5.002-7.985c-.797-1.272-1.713-2.638-3.078-3.002-.624-.166-1.29-.102-1.902-.314-.613-.213-1.19-.873-1.017-1.553zm-34.9188 11.599c-1.95 1.001-3.104 3.355-3.3608 5.704-.2569 2.35.2475 4.715.8465 6.988.3677 1.395.7755 2.786 1.3836 4.075.3878.823.9012 1.643 1.6783 2 .7771.358 1.8555.036 2.1081-.847.104-.364.0574-.758-.0028-1.134-.2263-1.412-.6324-2.789-1.2022-4.078l-.2393-.523c-.3428-.754-.6656-1.644-.2248-2.302.4208-.629 1.4552-.888 1.3563-1.661l-.9657-7.548c-.0282-.221-.0614-.454-.1917-.624-.2743-.359-.7991-.248-1.1855-.05zm154.6018 11.643c-.644-.004-1.321.094-1.838.516-.303.247-.531.592-.692.967-.679 1.584-.053 3.621 1.235 4.652 1.287 1.031 3.071 1.128 4.562.51 1.14-.473 2.236-1.543 2.198-2.882-.03-1.056-.759-1.938-1.563-2.517-1.149-.826-2.529-1.24-3.902-1.246zm-150.943-33.032c-.1648.134-.2463.357-.3159.569-1.014 3.094-1.1382 6.447-1.1102 9.735.0701 8.244 1.0334 16.479 2.863 24.474l.091.389c.374 1.561.8852 3.163 2.0434 4.128.2155-12.67-.5322-25.36-2.2326-37.894-.1104-.813-.7383-1.892-1.3387-1.401zm-9.1316 27.234c-.2421.074-.3975.328-.5183.57-.9889 1.984-1.0556 4.491-.1741 6.535.3953.916 1.073 1.807 1.9898 1.92.3738-.512.2029-1.249-.0065-1.876l-.1808-.531c-.6729-2.005-1.2253-4.176-.6321-6.192.0774-.263-.2359-.501-.478-.426zm-3.2988 2.748c-.6934 1.695-.3845 3.828.7536 5.202.4698-.528.2631-1.393.1027-2.11-.2511-1.123-.3078-2.297-.1662-3.443-.1749-.282-.5627.039-.6901.351zm14.6163-60.416c1.0511.996 1.7194 3.144.4711 3.809-.7998.427-1.7061-.197-2.4614-.712-3.9244-2.677-8.9422-2.874-13.3913-1.512-4.4492 1.362-8.4269 4.136-12.16 7.126-3.7177 2.977-7.3023 6.244-10.0977 10.259-2.7954 4.016-4.7727 8.855-4.935 13.908-.1944 6.056 2.1851 11.846 4.9365 17.096 1.7537 3.346 3.7312 6.645 6.4534 9.075l.5597.486c.7722.682 1.5651 1.527 1.3682 2.552-2.6683-.132-4.605-2.757-6.0744-5.209-2.0895-3.488-3.9942-7.109-5.7012-10.839-1.4193-3.102-2.7167-6.334-3.1479-9.774-.811-6.47 1.5778-13.048 5.2909-18.145 3.713-5.097 8.6544-8.922 13.6524-12.451 3.7963-2.68 7.7034-5.251 11.965-6.879 4.3949-1.68 9.7463-2.128 13.2717 1.21zm112.7871-28.494c-6.32 6.486-14.721 10.47-23.348 11.074-3.813.267-7.751-.134-11.201-1.939s-6.356-5.17-7.158-9.278l-.287.097c-2.497.869-5.356 2.441-5.331 5.271.107 12.001-.147 24.006-.762 35.989-.117 2.299-.914 5.318-3.007 5.25-7.439-.24-14.926 1.648-21.525 5.429 7.428 12.808 17.992 24.007 31.132 28.698 13.14 4.692 28.989 1.76 38.197-9.565 2.951-3.63 5.124-7.922 7.216-12.221l.481-.992c.445-.917.898-2.007.503-2.951-.253-.602.291-1.229.791-1.601 7.348-5.468 18.289-3.984 24.208 3.283-.469-1.009-.042-2.399.886-2.889.739 1.304.895 2.987.412 4.428.319.498.906-.302.957-.909.789-9.447.727-18.98-.185-28.413-.328-3.401-.775-6.824-1.882-10.021-.971-2.803-2.429-5.373-4.028-7.804-3.677-5.593-8.148-10.554-13.201-14.648l-.367-.294c-.801-.631-1.644-1.212-2.591-1.495-3.747-1.122-7.071 2.588-9.91 5.501zm-51.053-5.434c-4.178 1.546-8.702 1.248-13.099 1.582-6.197.471-12.31 2.243-17.913 5.192-2.413 1.271-4.7476 2.764-7.2995 3.647-5.4198 1.877-11.6327.718-16.1864-3.019-.9817 8.24-.6921 16.662.8526 24.797.0992.523.4121 1.191.8763 1.035 3.0798-1.04 6.3923.431 9.1306 2.297 2.7384 1.867 5.3119 4.194 8.4224 5.117 3.649 1.084 7.515.083 11.127-1.176l.27-.095c1.852-.654 4.246-1.199 5.433.495 1.001 1.428.369 3.56-.691 4.936s-2.498 2.399-3.362 3.931c-1.062 1.881-1.068 4.422-.014 6.308 6.897-3.041 14.28-4.747 21.707-5.017 1.49-.054 2.012-2.173 2.104-3.809.802-14.331 1.048-28.7.738-43.055-.034-1.53-.777-3.654-2.096-3.166zm111.671 38.754.296.162c1.829 1.023 3.775 2.384 4.048 4.587.089.725-.024 1.462-.18 2.173-.217.985-.548 1.995-1.244 2.659-.738.704-1.776.904-2.752.862-1.923-.082-3.847-1.067-4.96-2.792-1.114-1.725-1.293-4.193-.254-5.973 1.039-1.781 3.322-2.618 5.046-1.678zm-2.851 2.463c-1.14.523-1.55 2.218-1.075 3.471.476 1.253 1.605 2.077 2.779 2.5 1.2.432 2.746.396 3.462-.748.238-.381.35-.84.416-1.297.143-.994.057-2.094-.526-2.871-.721-.961-1.952-1.155-3.103-1.226l-.285-.016c-.563-.027-1.148-.051-1.668.187zm-143.868-25.903c.144.601.033 1.236-.065 1.849-.6937 4.314-.7439 8.752-.149 13.084l.11.767c.072.543.102 1.115-.182 1.551-.3268.504-1.243.453-1.2888-.163-.3902-5.249-.6403-10.511-.7497-15.776-.0209-1.005.2178-2.343 1.13-2.42.564-.048 1.0505.506 1.1945 1.108zm-32.1015-10.519c.6747.224 1.3227.732 1.5182 1.476s-.2495 1.684-.9526 1.733c-.6552.046-1.1553-.611-1.7574-.899-1.0809-.517-2.2936.205-3.2874.902l-.5058.36c-.954.69-1.8782 1.465-2.4021 2.567-.5359 1.127-.5808 2.451-.5642 3.723.0115.884.0492 1.78.2977 2.621.5393 1.824 2.0779 3.19 3.7847 3.586 1.7067.395 3.5321-.117 4.9758-1.193l.2827-.212c.2549-.184.5221-.345.822-.361.4124-.022.8637.405.7236.832-.0421.128-.1284.232-.2147.329-2.3599 2.666-6.4349 3.237-9.3271 1.306-.5159-.344-.9968-.759-1.3867-1.266-1.172-1.522-1.3907-3.656-1.4229-5.65-.0175-1.079.0068-2.175.2858-3.21.6028-2.236 2.3062-3.897 4.0767-5.181 1.5033-1.091 3.3291-2.033 5.0537-1.463zm-13.6533-4.587 5.8833 7.682c-.3237.385-.8909.41-1.3282.201-.3887-.186-.6987-.518-.9908-.859l-3.4519-4.082c-.4707 4.143-1.6108 8.193-3.351 11.904-.1694.361.3105.666.6781.707.8979.102 1.8058-.011 2.6912-.204l.4562-.101c.715-.156 1.4482-.279 2.1147.011.8094.353 1.3088 1.648.6598 2.286-.4001.393-1.0061.344-1.5387.272l-5.7298-.779-.176-.028c-.5657-.102-1.1874-.346-1.2703-.945-.05-.361.1325-.706.3034-1.02 2.0394-3.742 3.3981-7.931 3.9749-12.247l.0869-.685c.1121-.84.3105-1.752.9882-2.113zm200.4448 12.069c.709.553 1.379 1.637.829 2.378-.344.463-1.007.475-1.502.225-.495-.249-.879-.696-1.306-1.067-1.751-1.522-4.38-1.682-6.273-.383-.27.185-.538.415-.647.743-.11.328.011.768.316.868 2.416-1.126 5.297-.969 7.6.415.333.2.682.466.764.873s-.316.896-.647.692c-1.502-.925-3.296-1.265-4.994-.948-.791.148-1.565.434-2.368.462-.802.028-1.68-.266-2.106-1.014-.393-.691-.3-1.623.084-2.32.383-.697 1.011-1.191 1.668-1.567 2.675-1.53 6.12-1.272 8.582.643zm-80.156-37.347c-5.737 5.302-12.478 9.284-19.665 11.619l-.48.153c-.933.293-2.107.942-1.911 1.987l.121.649c.358 1.949.662 3.934.407 5.896-.276 2.115-1.337 4.233-3.092 5.122l-.161.077c-3.126 1.415-3.565 6.548-1.516 9.503 2.05 2.955 5.604 4.1 8.962 4.527 9.854 1.252 20.137-2.38 27.483-9.709 2.665-2.659 5.049-5.841 8.348-7.42l-8.25-3.32c-2.225-.896-4.48-1.808-6.417-3.309s-3.552-3.687-3.948-6.256c-.485-3.146.887-6.441.119-9.519zm-95.1606 8.508c-.2071.101-.4185.236-.518.46-.0997.224-.0661.488-.0309.735l1.8901 13.1c.557 3.86 1.3395 8.138 4.2353 10.406 3.172 2.483 7.528 1.51 11.2217.092l.1973-.076c6.8761-2.685 13.4931-6.423 20.6991-7.681 5.174-.903 10.6-.516 15.492-2.576-1.789-2.969-5.666-2.954-8.909-2.564l-26.4958 3.311c-2.0526.256-4.2086.556-5.8755 1.897-.7294.587-1.42 1.394-2.3232 1.435-.8787.04-1.6425-1.367-.9538-1.885l.0608-.041c.7552-.457.7044-1.649.5498-2.581l-.8014-4.832c-.4051-2.396-.8999-4.835-2.2039-6.791-1.4083-2.113-4.0574-3.473-6.2346-2.409zm182.9156 19.58c.639.818.666 2.073.24 3.044-.425.971-1.232 1.686-2.104 2.178-1.053.593-2.212.903-3.373 1.168l-.581.129c-.227.05-.467.1-.687.019-.184-.067-.332-.217-.452-.383-.599-.826-.578-2.045-.173-3.003s1.131-1.703 1.877-2.37c.762-.681 1.591-1.323 2.546-1.572.956-.249 2.067-.029 2.707.79zm-3.133 1.438-.306.226c-.457.344-.897.72-1.205 1.222-.375.614-.506 1.471-.135 2.088l2.457-1.503c.401-.245.815-.504 1.075-.919s.312-1.034-.009-1.393c-.482-.539-1.304-.14-1.877.279zm-39.202-29.573c.171.076.287.247.387.421l3.601 6.466c.643 1.156 2.107 1.285 3.336 1.189 2.356-.182 4.689-.711 6.919-1.567.374-.144.729.379.648.806-.081.426-.414.73-.727.998l-5.407 4.634c-.664-.051-.476-1.247.063-1.677l.159-.122c.519-.385 1.149-.765 1.116-1.427l-3.125 1.074c-.597.205-1.26.406-1.828.118-.377-.191-.641-.567-.88-.945l-3.97-6.372-.069 5.58c-.005.457-.023.953-.287 1.307-.188.251-.469.386-.748.499l-5.479 2.162c1.463 1.608 4.202-.084 5.952 1.128 1.2.83 1.405 2.681 1.146 4.213s-.852 3.023-.775 4.579c1-.797 1.734-1.988 2.037-3.304.123-.531.183-1.096.451-1.556.74-1.271 2.508-1.013 3.733-.333 1.226.68 2.497 1.658 3.837 1.335l-1.945-3.419c-.177-.312-.361-.65-.345-1.017.016-.368.333-.739.653-.632.14.046.245.168.338.296l4.338 6.184c-1.523 1.104-3.534.408-5.293-.125l-.261-.075c-1.716-.467-3.811-.513-4.759 1.086-.668 1.127-1.452 2.171-2.332 3.106-.371.394-.794.786-1.306.85-.512.065-1.1-.362-1.055-.927l.504-6.252c.033-.405.058-.846-.147-1.184-.216-.356-.624-.495-.999-.608l-4.739-1.44c-1.031-.313-1.038-2.076-.265-2.888.772-.812 1.911-.982 2.941-1.297 1.03-.314 2.144-.98 2.33-2.138l1.203-7.491c.103-.641.5-1.479 1.049-1.235zm-127.5182-105.6163-.8753.782c-5.8321 5.2257-11.5791 10.7041-15.8564 17.4973-4.4912 7.132-7.2484 15.977-5.9113 24.527 1.9484 12.459 12.0841 22.381 12.5174 35.014.0576 1.678 1.6118 2.723 2.912 3.604 5.1314 3.477 8.934 8.995 11.4431 15.021 2.4308 5.838 3.7287 12.163 4.6727 18.503l.09.613c.14.967.243 2.067-.324 2.822-.567.754-2.0257.49-1.9691-.487.6651-11.486-3.1311-23.204-10.2516-31.64-1.8498-2.192-3.9985-4.224-6.6034-5.082-.1659 4.425-1.5206 8.933-4.3886 12.042-2.8679 3.108-7.3922 4.528-11.105 2.813s-5.9841-6.895-4.3132-10.924c1.3998-3.375 4.8761-5.08 8.1858-5.799 3.2476-.705 6.614-.741 9.8736-.107.4386.085.6297-.589.6209-1.079-.2357-13.131-11.275-23.411-12.7241-36.448-.792-7.125 1.4189-14.297 4.6274-20.547 4.2135-8.209 10.2076-15.3044 17.3428-20.5292l.1868-.1332c.5715-.3956 1.2378-.733 1.8495-.4629zm36.3482 66.8793c-1.598 1.13-1.557 3.637-1.689 5.721-.181 2.857-1.075 5.718-2.817 7.847-1.743 2.13-4.391 3.438-6.976 3.08-.669-.092-.872.972-.784 1.706 1.502 12.595 8.451 24.959 19.251 29.469 6.602 2.757 14.06 2.391 20.792.041 6.571-2.294 12.518-6.374 17.954-11.044l.397-.343c.788-.684 1.58-1.398 2.128-2.323.556-.939.829-2.049.962-3.16.713-5.949-2.902-12.173-8.111-13.964-.613-.21-.471-1.304.067-1.69s1.23-.36 1.845-.566c1.664-.559 2.429-2.643 2.809-4.51.522-2.565.668-5.49-.778-7.583-1.954-2.829-5.753-2.826-8.974-2.555l-5.227.44c-1.804.152-4.127.851-4.211 2.838-.183 4.28-1.897 8.544-4.927 11.239-3.029 2.695-7.392 3.627-10.989 1.977-3.539-1.624-6.04-5.86-5.631-10.043l.022-.202c.213-1.769.096-3.691-.847-5.143-.942-1.453-2.901-2.197-4.266-1.232zm43.173-66.882c-2.331.7285-4.57 1.9036-6.41 3.6372-2.571 2.4228-4.281 5.9238-4.697 9.6188-.147 1.31.09 2.998 1.246 3.35 2.825.859 5.353 2.852 7 5.518-2.671-1.748-5.599-3.019-8.635-3.75l12.833 7.984c.744.463 1.516.954 1.984 1.741.468.786.517 1.96-.126 2.579l-.897-.767c-2.248-1.913-4.547-3.768-7.063-5.216-1.913-1.101-3.933-1.955-5.963-2.769l-1.108-.441c-3.759-1.491-7.552-2.991-11.511-3.587-3.675-.553-7.448-.308-11.038.718l-.708.199c-4.849 1.35-9.905 2.453-13.914 5.713-2.385 1.939-4.253 4.535-6.026 7.149l-.418.624c-3.524 5.319-6.743 11.877-4.682 17.979 9.464-1.282 16.837-9.333 25.411-13.923.655-.35 1.736-.458 1.835.336l-9.593 6.233c.266 1.61.014 3.317-.701 4.752 7.01-2.178 13.563-6.11 19.022-11.41l.347-.34c.866-.858 2.535-1.567 2.904-.352l-.469.289c-1.722 1.064-3.435 2.229-4.621 3.953-1.295 1.881-1.81 4.616-.663 6.609l12.111-7.841c.492-.318 1.029-.648 1.596-.582.568.065 1.1.737.855 1.304l-.412.095c-1.307.305-2.633.688-3.65 1.624-1.125 1.035-1.708 2.975-.872 4.3 1.499 2.377 2.716 4.969 3.61 7.69.019-1.19 1.494-1.798 2.467-1.276.972.523 1.486 1.702 1.839 2.827 1.008 3.219 1.274 6.714.767 10.073 3.046 1.182 6.618-.215 9.547 1.281 2.719 1.388 4.049 4.989 3.86 8.279-.189 3.289-1.602 6.331-3.112 9.179 4.219 3.594 6.473 9.785 5.675 15.588.736-.132 1.357-.83 1.462-1.641l1.673 1.161c-2.617 1.626-4.479 4.645-4.886 7.92 11.5-11.832 15.317-30.584 13.658-47.805l-.064-.642c-.658-6.218-2.223-12.7-6.476-16.819 2.28-1.446 5.205-.877 7.645-1.963 2.306-1.025 3.89-3.403 4.96-5.871 3.578-8.252 2.346-18.751-3.02-25.7347-5.365-6.9833-14.574-10.0731-22.572-7.5733zm-37.593 103.491c.362.066.774.2.916.573.227.596-.409 1.14-.959 1.365-.799.327-1.637.537-2.486.621-.712.071-1.611-.08-1.831-.828-.145-.492.106-1.045.487-1.348.381-.304.863-.406 1.33-.462.846-.1 1.704-.074 2.543.079zm-13.009-8.534c2.503 3.234 6.418 4.946 10.279 4.98 3.862.033 7.651-1.502 10.857-3.869l.27-.199c.407-.298.829-.577 1.307-.668.584-.112 1.277.157 1.476.771-3.353 3.132-7.557 5.2-11.938 5.637-4.382.437-8.92-.799-12.495-3.618-.645-.509-1.312-1.178-1.339-2.05-.026-.873 1.069-1.648 1.583-.984zm-52.4565-13.697c-1.7402.61-3.4916 1.504-4.5895 3.11-1.6309 2.384-1.3457 6.002.4158 8.271 1.7614 2.27 4.74 3.176 7.3974 2.572 2.6574-.603 4.9646-2.574 6.4579-5.065s2.2244-5.465 2.4459-8.438c.0371-.499-.0452-1.159-.4924-1.25-3.8593-.79-7.8953-.512-11.6351.8zm61.6655-11.619c.072.686-.169 1.358-.391 2.004-1.253 3.65-2.016 7.503-2.256 11.396-.039.63-.061 1.284.149 1.872.199.556.66 1.039 1.194 1.072l.095.001c.487-.019.718.779.412 1.195s-.881.463-1.347.31c-.958-.313-1.645-1.294-1.923-2.35-.278-1.055-.207-2.183-.068-3.271.472-3.69 1.697-7.267 1.757-10.993.017-1.052.213-2.469 1.166-2.552.626-.055 1.139.63 1.212 1.316zm11.908-12.454c-1.99.451-3.509 2.246-4.541 4.17-2.115 3.943-2.717 8.831-1.633 13.25.486 1.984 1.318 3.902 2.624 5.373 1.305 1.47 3.119 2.458 4.988 2.424 1.304-.024 2.57-.533 3.703-1.244 3.784-2.374 6.188-7.184 5.981-11.969-.206-4.785-3.014-9.323-6.986-11.292-1.293-.641-2.746-1.026-4.136-.712zm-27.468-1.961c-3.556 1.448-5.851 5.509-6.34 9.643-.49 4.135.565 8.318 2.069 12.146.404 1.03.865 2.079 1.642 2.807.778.728 1.955 1.054 2.838.491.411-.263.795.351 1.107.745.622.786 1.716.853 2.645.649 3.06-.672 5.411-3.613 6.363-6.88.92-3.159.724-6.578.18-9.846l-.057-.338c-.574-3.296-1.869-7.001-4.788-7.982-1.53-.515-3.376-.214-4.56-1.399-.285-.287-.736-.184-1.099-.036zm56.511 13.976c1.203 1.466.71 3.741.109 5.622l-.049.151c-.241.737-.49 1.492-.951 2.09-.46.598-1.183 1.016-1.88.856-.698-.16-1.242-1.049-.949-1.763.364-.886 1.6-.932 2.046-1.771l-1.205-.125c-.812-.085-1.686-.198-2.287-.803-.602-.606-.677-1.887.054-2.284.507-.275 1.117-.005 1.586.341.47.347.918.786 1.477.88.559.095 1.238-.388 1.123-.996-.16-.847.235-1.785.926-2.198zm-27.512 5.721c.095.582.13 1.2-.068 1.751-.199.55-.682 1.01-1.22.986-.833-.038-1.279-1.093-1.425-1.996-.179-1.115.101-2.65 1.129-2.733.879-.071 1.428 1.038 1.584 1.992zm-25.667-2.368c.415.665.356 1.554.191 2.339-.211 1.006-.741 2.127-1.674 2.232-.843.095-1.563-.734-1.839-1.615-.336-1.075-.173-2.389.59-3.156.764-.767 2.147-.737 2.732.2zm.777-11.347c.373.189.635.705.447 1.105l-.361.104c-2.051.602-4.238 1.44-5.218 3.479-.235.489-.387 1.028-.68 1.478-.292.45-.785.807-1.277.693-.561-.13-.885-.839-.825-1.466.06-.626.406-1.172.778-1.652 1.51-1.951 3.638-3.312 5.927-3.791.403-.084.836-.138 1.209.05zm26.219 1.127c.614.543 1.08 1.268 1.7 1.802.523.452 1.185.809 1.423 1.493.238.683-.478 1.648-.997 1.191-1.356-1.195-2.862-2.185-4.461-2.933-.725-.34-.56-1.681.147-2.063.707-.381 1.575-.034 2.188.51zm-7.598-4.286c-1.337.484-2.286 2.031-2.196 3.575.512-.288.901-.825 1.042-1.437l-.02-.062c.593-.516 1.016-1.263 1.174-2.076z" fill="#00160a"/><g fill="#e7eaee"><path d="m62.7784 331.273c.5377.006 1.0324.28 1.5022.581l.2539.166c2.8798 1.895 5.9187 3.499 9.0653 4.783.4324.177.2981.975-.1234 1.181s-.9079.022-1.3378-.162l-9.2928-3.975c-.5947-.255-1.285-.642-1.3372-1.342-.0519-.696.6343-1.238 1.2698-1.232z"/><path d="m47.9639 320.141 28.7478 11.213.1806.074c.7598.327 1.5816.885 1.5004 1.748-.0662.703-.7736 1.156-1.416 1.133-.5435-.02-1.0456-.286-1.5259-.579l-.2599-.16c-4.0084-2.5-8.2138-4.562-12.527-6.344-4.8858-2.018-9.9097-3.676-14.9417-5.203-.7695-.234-1.7446-.99-1.3034-1.721.3095-.513 1.0175-.366 1.5451-.161z"/></g></g></svg>