<svg height="45.705" viewBox="0 0 64.561 45.705" width="64.561" xmlns="http://www.w3.org/2000/svg"><g fill="#1bae8a" transform="translate(-13.125 -23.771)"><path d="m25.6 31.7c2.1 2.1 4.2 4.2 6.2 6.5 3 3.4 8.4-2.1 5-5-3.2-2.7-6.1-5.7-9.2-8.5a3.233 3.233 0 0 0 -5 .6 49.345 49.345 0 0 1 -8.8 10c-1.7 1.4.1 4.6 2.2 3.8a24.864 24.864 0 0 0 9.6-7.4z"/><path d="m67.4 24.7a3.233 3.233 0 0 0 -5 .6 49.345 49.345 0 0 1 -8.8 10c-1.7 1.4.1 4.6 2.2 3.8 3.8-1.5 6.9-4.3 9.6-7.4 2.1 2.1 4.2 4.2 6.2 6.5 3 3.4 8.4-2.1 5-5-3.3-2.7-6.2-5.7-9.2-8.5z"/><path d="m67.5 57.2c-3.7 1.6-6.9 3.8-10.9 4.9a42.082 42.082 0 0 1 -12.2 1.5c-8 0-15-3.2-22.3-6-.8-.3-1.6.8-1.1 1.4a21.433 21.433 0 0 0 4.1 4.4 34.982 34.982 0 0 0 6.1 3.1 42.395 42.395 0 0 0 27 1.4c4.3-1.2 9.6-2.9 12.8-6.2 2.4-2.4-.6-5.7-3.5-4.5z"/></g></svg>