<svg height="32" viewBox="0 0 33 32" width="33" xmlns="http://www.w3.org/2000/svg"><ellipse cx="17" cy="16.5" fill="none" rx="15" ry="14.5" stroke="#3489b6" stroke-linecap="round" stroke-miterlimit="10" stroke-width="2"/><path d="m0 0h33v32h-33z" fill="none"/><path d="m22.635 25.514a26.1 26.1 0 0 1 -.059-2.712 5.267 5.267 0 0 0 1.485-3.148c.377-.03.972-.391 1.146-1.815a1.318 1.318 0 0 0 -.507-1.33c.614-1.809 1.889-7.406-2.358-7.985-.437-.752-1.556-1.133-3.011-1.133-5.819.1-6.521 4.306-5.245 9.118a1.32 1.32 0 0 0 -.507 1.33c.175 1.424.769 1.785 1.146 1.815a5.257 5.257 0 0 0 1.521 3.146 26.1 26.1 0 0 1 -.06 2.712c-.829 2.183-5.085 2.354-7.54 4.46a16.241 16.241 0 0 0 11.117 4.345c4.39 0 9.55-3.4 10.409-4.324-2.44-2.123-6.706-2.293-7.537-4.479z" fill="#3489b6" transform="translate(-2.588 -2.747)"/></svg>