<svg xmlns="http://www.w3.org/2000/svg" width="21.402" height="21.402" viewBox="0 0 21.402 21.402">
    <path fill="#1bae8a" d="M20.261 9.561h-1.005a8.09 8.09 0 0 0-.713-1.684l.713-.713a2.14 2.14 0 0 0 0-3.032 2.2 2.2 0 0 0-3.032 0l-.713.713a8.09 8.09 0 0 0-1.684-.713V3.14a2.14 2.14 0 1 0-4.28 0v1.006a8.09 8.09 0 0 0-1.684.713l-.713-.713a2.211 2.211 0 0 0-3.032 0 2.14 2.14 0 0 0 0 3.032l.713.713a8.09 8.09 0 0 0-.713 1.684H3.14a2.14 2.14 0 1 0 0 4.28h1.006a8.09 8.09 0 0 0 .713 1.684l-.713.713a2.14 2.14 0 0 0 0 3.032 2.2 2.2 0 0 0 3.032 0l.713-.713a8.09 8.09 0 0 0 1.684.713v.977a2.14 2.14 0 1 0 4.28 0v-1.005a8.09 8.09 0 0 0 1.684-.713l.713.713a2.2 2.2 0 0 0 3.032 0 2.14 2.14 0 0 0 0-3.032l-.713-.713a8.09 8.09 0 0 0 .713-1.684h.977a2.14 2.14 0 0 0 0-4.28zM14.8 12.528a3.075 3.075 0 0 1-.321.785 3.21 3.21 0 0 1-1.17 1.163 2.918 2.918 0 0 1-.778.321 3.25 3.25 0 0 1-2.44-.321 3.21 3.21 0 0 1-1.163-1.17 2.918 2.918 0 0 1-.321-.778 3.06 3.06 0 0 1 0-1.655 3.118 3.118 0 0 1 .321-.785A3.21 3.21 0 0 1 10.1 8.926a2.918 2.918 0 0 1 .778-.321 3.25 3.25 0 0 1 2.44.321 3.21 3.21 0 0 1 1.163 1.17 2.918 2.918 0 0 1 .321.778 3.053 3.053 0 0 1-.002 1.654z" transform="translate(-1 -1)"/>
</svg>
