<svg width="110" height="110" viewBox="0 0 110 110" fill="none" xmlns="http://www.w3.org/2000/svg">
<path d="M96.0126 16.4144L33.3999 2.99738C25.6746 1.34197 18.0701 6.26253 16.4147 13.9878L2.99773 76.6005C1.34232 84.3257 6.26288 91.9302 13.9881 93.5856L76.6008 107.003C84.3261 108.658 91.9306 103.737 93.586 96.0122L107.003 33.3995C108.658 25.6743 103.738 18.0698 96.0126 16.4144Z" fill="#38957F"/>
<path d="M25.6898 59.2825C28.2004 60.6344 30.9849 61.3993 33.8337 61.5196C36.1571 61.5196 37.1871 60.9208 37.1871 59.6418C37.1871 58.3627 36.3679 57.8022 33.1439 56.5902C26.4372 54.0752 24.4683 50.2619 24.5209 46.8175C24.5209 40.4509 29.6612 35.7131 37.7476 35.7083C40.7782 35.6663 43.7845 36.2536 46.5766 37.4329L44.7609 45.3133C42.7605 44.3216 40.5728 43.7648 38.3416 43.6797C36.3296 43.6797 35.2326 44.3648 35.2326 45.6247C35.2326 46.7169 36.1907 47.378 39.7596 48.7481C45.8005 51.0715 47.9035 54.468 47.9035 58.7507C47.9035 65.1221 43.0699 69.5246 33.8864 69.5294C29.872 69.5294 26.03 68.6384 23.7832 67.3737L25.6898 59.2825Z" fill="white"/>
<path d="M52.9547 47.2303C52.9547 43.1631 52.8158 39.5175 52.6816 36.3558H62.4878L63.0196 40.3415H63.1489C65.1993 37.3953 68.4185 35.6803 72.5288 35.6755C79.5853 35.6755 84.9842 42.4302 84.9842 52.3418C84.9842 64.1073 78.0906 69.5877 71.4509 69.5877C68.1455 69.5877 65.6065 68.1505 64.4759 66.5409H64.3418V81.9089H52.9787L52.9547 47.2303ZM64.3226 55.3742C64.309 56.1252 64.4058 56.8741 64.6101 57.597C64.8232 58.4606 65.3132 59.2307 66.0052 59.7896C66.6973 60.3484 67.5533 60.6653 68.4425 60.6917C71.6713 60.6917 73.4917 57.3766 73.4869 52.7346C73.4869 47.7141 71.7527 44.7392 68.5574 44.744C67.6094 44.7689 66.6977 45.1138 65.9705 45.7227C65.2434 46.3315 64.7437 47.1685 64.5526 48.0974C64.3675 48.6661 64.2816 49.2624 64.2987 49.8603L64.3226 55.3742Z" fill="white"/>
</svg>
