<svg viewBox="0 0 524 159" xmlns="http://www.w3.org/2000/svg"><rect fill="#19ae8a" height="129.85" rx="24" transform="matrix(.97854496 .2060334 -.2060334 .97854496 -123.9 -198.8)" width="129.85" x="185.78" y="161.77"/><g transform="translate(-176 -152)"><path d="m201.87 235.52a32.88 32.88 0 0 0 14.24 3.73c4.06-.06 5.82-1.11 5.8-3.35s-1.47-3.19-7.12-5.23c-11.75-4.25-15.26-10.85-15.28-16.86-.14-11.11 8.73-19.47 22.84-19.66a38.25 38.25 0 0 1 15.43 2.85l-2.95 13.82a27.34 27.34 0 0 0 -11.22-2.72c-3.51 0-5.41 1.26-5.38 3.46 0 1.9 1.67 3 8 5.35 10.58 3.92 14.29 9.8 14.44 17.27.15 11.11-8.2 18.88-24.22 19.09-7 .09-13.71-1.4-17.65-3.55z" fill="#fff"/><path d="m249.17 214c-.09-7.09-.4-13.45-.7-19l17.09-.22 1 7h.23c3.51-5.17 9.12-8.24 16.26-8.33 12.31-.16 21.83 11.52 22.05 28.8.27 20.52-11.66 30.2-23.23 30.35-5.77.07-10.22-2.41-12.23-5.17h-.23l.34 26.81-19.81.25zm20 14a13.42 13.42 0 0 0 .54 3.87 7.1 7.1 0 0 0 6.78 5.32c5.64-.07 8.74-5.89 8.63-14-.11-8.76-3.19-13.91-8.76-13.84a7.33 7.33 0 0 0 -6.91 6 9.3 9.3 0 0 0 -.41 3.08z" fill="#fff"/><path d="m350.85 290.34a16.09 16.09 0 0 0 6.92 1.9c2 0 2.85-.5 2.85-1.59s-.69-1.56-3.44-2.58c-5.7-2.14-7.37-5.37-7.34-8.29 0-5.39 4.38-9.39 11.26-9.39a18.65 18.65 0 0 1 7.5 1.47l-1.52 6.68a13.56 13.56 0 0 0 -5.45-1.38c-1.71 0-2.65.57-2.65 1.64s.79 1.48 3.85 2.65c5.13 2 6.9 4.85 6.93 8.47 0 5.4-4.12 9.12-11.93 9.12a18.89 18.89 0 0 1 -8.58-1.83z" fill="#6d6e71"/><path d="m384.84 263.23v7.77h5.65v7h-5.65v8.83c0 3.21.94 4.38 3.07 4.38a12.71 12.71 0 0 0 2.29-.2v7.4a20.86 20.86 0 0 1 -5.73.68 9.45 9.45 0 0 1 -6.56-2.29c-1.68-1.63-2.58-4.2-2.58-8.5v-10.3h-3.33v-7h3.34v-5.58z" fill="#6d6e71"/><path d="m420.3 289.32c0 3.59.12 6.73.23 9.21h-8.34l-.45-3.42h-.17a9.1 9.1 0 0 1 -7.82 4c-5.94 0-9.12-3.95-9.12-11.83v-16.28h9.69v14.91c0 3.45 1 5.39 3.17 5.39a3 3 0 0 0 2.8-2 3.94 3.94 0 0 0 .33-1.74v-16.56h9.68z" fill="#6d6e71"/><path d="m452.18 259v30.75c0 3.27.11 6.59.22 8.74h-8.51l-.42-3.5h-.11a8.61 8.61 0 0 1 -7.55 4.06c-6.41 0-10.85-6-10.85-14.21 0-9.35 5.34-14.49 11.34-14.49 2.93 0 5.07 1 6.1 2.63h.11v-13.98zm-9.67 23.44a7.93 7.93 0 0 0 -.08-1.36 3.57 3.57 0 0 0 -3.43-3.08c-3 0-4.32 3.07-4.32 6.82 0 4.45 1.87 6.57 4.29 6.57a3.37 3.37 0 0 0 3.32-2.73 7 7 0 0 0 .19-1.8z" fill="#6d6e71"/><path d="m466 288.3c.26 2.28 3.12 3.59 6.61 3.59a23.24 23.24 0 0 0 7-1l1.21 6.57a27.1 27.1 0 0 1 -9.68 1.59c-9.17 0-14.33-5.18-14.33-13.89 0-7.33 4.47-14.76 13.53-14.76 8.05 0 11.92 5.82 11.92 13.89a20.11 20.11 0 0 1 -.34 4zm7.37-6.59c0-1.92-.66-4.84-3.55-4.84s-3.79 2.9-3.91 4.84z" fill="#6d6e71"/><path d="m486.6 280.16c0-3.44-.11-6.58-.22-9.21h8.33l.45 3.41h.17a9.5 9.5 0 0 1 7.84-4c6.24 0 9.24 4.5 9.24 11.56v16.58h-9.69v-15.6c0-2.79-.91-4.64-3.12-4.64a3.19 3.19 0 0 0 -3 2.19 5.84 5.84 0 0 0 -.33 2.19v15.89h-9.67z" fill="#6d6e71"/><path d="m528.67 263.23v7.77h5.64v7h-5.64v8.83c0 3.21.93 4.38 3.07 4.38a12.59 12.59 0 0 0 2.26-.21v7.4a20.78 20.78 0 0 1 -5.72.68 9.47 9.47 0 0 1 -6.57-2.29c-1.68-1.63-2.57-4.2-2.57-8.5v-10.29h-3.34v-7h3.34v-5.58z" fill="#6d6e71"/><path d="m549 280.16c0-3.44-.12-6.53-.23-9.21h8.34l.45 3.38h.11a9.34 9.34 0 0 1 8-3.94c6 0 10.57 5.73 10.57 14.12 0 10-5.88 14.58-11.52 14.58a7.31 7.31 0 0 1 -5.93-2.58h-.11v13h-9.68zm9.66 6.92a6.53 6.53 0 0 0 .24 1.89 3.45 3.45 0 0 0 3.27 2.62c2.75 0 4.29-2.81 4.29-6.73 0-4.25-1.46-6.77-4.18-6.77a3.57 3.57 0 0 0 -3.41 2.85 4.44 4.44 0 0 0 -.21 1.49z" fill="#6d6e71"/><path d="m595.77 298.53-.51-2.49h-.17a9 9 0 0 1 -7.24 3 8.39 8.39 0 0 1 -8.66-8.63c0-7.4 6.67-10.58 15.1-10.6v-.33c0-1.25-1-2.46-4.27-2.46a15.2 15.2 0 0 0 -7.26 1.95l-1.68-6.21a23.52 23.52 0 0 1 10.82-2.42c9.52 0 12.1 5.75 12.1 12.16v9.38a39.12 39.12 0 0 0 .44 6.6zm-1.18-12.74c-3.64 0-6 1.13-6 3.69a2.58 2.58 0 0 0 2.71 2.84 3.45 3.45 0 0 0 3.2-2.28 4.88 4.88 0 0 0 .13-1.32z" fill="#6d6e71"/><path d="m635.8 259v30.75c0 3.27.11 6.59.22 8.74h-8.51l-.42-3.5h-.09a8.6 8.6 0 0 1 -7.54 4.06c-6.42 0-10.86-6-10.86-14.21 0-9.35 5.34-14.49 11.34-14.49 2.93 0 5.07 1 6.1 2.63h.12v-13.98zm-9.66 23.44a7.06 7.06 0 0 0 -.09-1.36 3.57 3.57 0 0 0 -3.4-3.15c-3 0-4.32 3.07-4.32 6.82 0 4.45 1.87 6.57 4.29 6.57a3.37 3.37 0 0 0 3.32-2.73 7 7 0 0 0 .2-1.8z" fill="#6d6e71"/><path d="m667.58 259v30.75c0 3.27.11 6.59.22 8.74h-8.51l-.42-3.5h-.11a8.6 8.6 0 0 1 -7.54 4.06c-6.42 0-10.86-6-10.86-14.21 0-9.35 5.35-14.49 11.34-14.49 2.93 0 5.07 1 6.1 2.63h.12v-13.98zm-9.66 23.44a7.06 7.06 0 0 0 -.09-1.36 3.57 3.57 0 0 0 -3.4-3.15c-3 0-4.32 3.07-4.32 6.82 0 4.45 1.87 6.57 4.29 6.57a3.37 3.37 0 0 0 3.32-2.73 7 7 0 0 0 .2-1.8z" fill="#6d6e71"/><path d="m681.45 271 3 12.79c.34 1.49.74 3.31 1 4.68h.17c.29-1.4.57-3.22.83-4.62l2.35-12.85h10.08l-6 19.11c-3.24 9.43-5.68 13.78-8.62 16.62a15.34 15.34 0 0 1 -8.46 4.13l-2.2-8.22a12.63 12.63 0 0 0 3.47-1.26 8 8 0 0 0 2.95-2.57 2.21 2.21 0 0 0 .48-1.21 3.29 3.29 0 0 0 -.34-1.33l-9.37-25.27z" fill="#6d6e71"/></g><path d="m0 0h524v159h-524z" fill="none"/></svg>