<svg width="22" height="17" viewBox="0 0 22 17" fill="none" xmlns="http://www.w3.org/2000/svg">
<path d="M19.2503 0.774306C18.2328 0.440104 17.1145 0.296875 16.042 0.296875C14.2545 0.296875 12.3295 0.678819 11.0003 1.72917C9.67116 0.678819 7.74616 0.296875 5.95866 0.296875C4.17116 0.296875 2.24616 0.678819 0.916992 1.72917V15.7179C0.916992 15.9566 1.14616 16.1953 1.37533 16.1953C1.46699 16.1953 1.51283 16.1476 1.60449 16.1476C2.84199 15.5269 4.62949 15.0972 5.95866 15.0972C7.74616 15.0972 9.67116 15.4792 11.0003 16.5295C12.2378 15.7179 14.4837 15.0972 16.042 15.0972C17.5545 15.0972 19.1128 15.3837 20.3962 16.0998C20.4878 16.1476 20.5337 16.1476 20.6253 16.1476C20.8545 16.1476 21.0837 15.9089 21.0837 15.6701V1.72917C20.5337 1.29948 19.9378 1.01302 19.2503 0.774306ZM19.2503 13.6649C18.242 13.3307 17.142 13.1875 16.042 13.1875C14.4837 13.1875 12.2378 13.8082 11.0003 14.6198V3.63889C12.2378 2.82726 14.4837 2.2066 16.042 2.2066C17.142 2.2066 18.242 2.34983 19.2503 2.68403V13.6649Z" fill="#38957F"/>
</svg>
