<svg height="22.402" viewBox="0 0 22.402 22.402" width="22.402" xmlns="http://www.w3.org/2000/svg"><path d="m20.261 9.561h-1.005a8.09 8.09 0 0 0 -.713-1.684l.713-.713a2.14 2.14 0 0 0 0-3.032 2.2 2.2 0 0 0 -3.032 0l-.713.713a8.09 8.09 0 0 0 -1.684-.713v-.992a2.14 2.14 0 1 0 -4.28 0v1.006a8.09 8.09 0 0 0 -1.684.713l-.713-.713a2.211 2.211 0 0 0 -3.032 0 2.14 2.14 0 0 0 0 3.032l.713.713a8.09 8.09 0 0 0 -.713 1.684h-.978a2.14 2.14 0 1 0 0 4.28h1.006a8.09 8.09 0 0 0 .713 1.684l-.713.713a2.14 2.14 0 0 0 0 3.032 2.2 2.2 0 0 0 3.032 0l.713-.713a8.09 8.09 0 0 0 1.684.713v.977a2.14 2.14 0 1 0 4.28 0v-1.005a8.09 8.09 0 0 0 1.684-.713l.713.713a2.2 2.2 0 0 0 3.032 0 2.14 2.14 0 0 0 0-3.032l-.713-.713a8.09 8.09 0 0 0 .713-1.684h.977a2.14 2.14 0 0 0 0-4.28zm-5.461 2.967a3.075 3.075 0 0 1 -.321.785 3.21 3.21 0 0 1 -1.17 1.163 2.918 2.918 0 0 1 -.778.321 3.25 3.25 0 0 1 -2.44-.321 3.21 3.21 0 0 1 -1.163-1.17 2.918 2.918 0 0 1 -.321-.778 3.06 3.06 0 0 1 0-1.655 3.118 3.118 0 0 1 .321-.785 3.21 3.21 0 0 1 1.172-1.162 2.918 2.918 0 0 1 .778-.321 3.25 3.25 0 0 1 2.44.321 3.21 3.21 0 0 1 1.163 1.17 2.918 2.918 0 0 1 .321.778 3.053 3.053 0 0 1 -.002 1.654z" fill="none" stroke="#1bae8a" transform="translate(-.5 -.5)"/></svg>