<svg height="21.295" viewBox="0 0 14.461 21.295" width="14.461" xmlns="http://www.w3.org/2000/svg"><g fill="none" stroke="#6d6e71"><path d="m26.859 0a2.863 2.863 0 0 0 -2.859 2.859.715.715 0 0 0 1.43 0 1.43 1.43 0 1 1 2.859 0c0 .62-.364 1-.963 1.553a2.769 2.769 0 0 0 -1.181 2.021.715.715 0 0 0 1.43 0c0-.291.274-.558.72-.97a3.476 3.476 0 0 0 1.424-2.6 2.863 2.863 0 0 0 -2.86-2.863z" transform="translate(-23.5 7.701)"/><path d="m37.43 72a1.43 1.43 0 1 0 1.43 1.43 1.43 1.43 0 0 0 -1.43-1.43z" transform="translate(-34.07 -55.721)"/><path d="m29.074 0a5.08 5.08 0 0 0 -5.074 5.074 1.268 1.268 0 1 0 2.537 0 2.537 2.537 0 1 1 5.074 0c0 1.1-.647 1.775-1.709 2.756-.984.905-2.1 1.931-2.1 3.586a1.268 1.268 0 1 0 2.537 0c0-.517.486-.991 1.278-1.722 1.065-.984 2.527-2.33 2.527-4.62a5.08 5.08 0 0 0 -5.07-5.074z" transform="translate(-20.186 .5)"/><path d="m38.537 72a2.537 2.537 0 1 0 2.537 2.537 2.537 2.537 0 0 0 -2.537-2.537z" transform="translate(-29.649 -56.279)"/></g></svg>